<?xml version="1.0" encoding="utf-8"?>
<!-- Generator: Adobe Illustrator 24.3.0, SVG Export Plug-In . SVG Version: 6.00 Build 0)  -->
<svg version="1.1" id="Layer_1" xmlns="http://www.w3.org/2000/svg" xmlns:xlink="http://www.w3.org/1999/xlink" x="0px" y="0px"
	 viewBox="0 0 55.55 55.55" style="enable-background:new 0 0 55.55 55.55;" xml:space="preserve">
<style type="text/css">
	.st0{fill:#FFFFFF;}
</style>
<g>
	<path class="st0" d="M17.07,35.48c2.76,2.9,5.49,5.45,8.89,7.2c0.62,0.32,1,0.07,1.37-0.39c0.68-0.89,1.37-1.78,2.07-2.67
		c1.19-1.5,2.53-1.73,4.13-0.68c2.64,1.76,5.29,3.51,7.93,5.29c1.6,1.07,1.87,2.42,0.91,4.06c-0.59,1.03-1.21,2.03-1.82,3.03
		c-1.03,1.73-2.55,2.58-4.51,2.87c-3.6,0.55-6.91-0.36-10.12-1.87c-4.15-1.94-7.71-4.72-11.06-7.8c-4.33-4.01-8.3-8.32-11.24-13.5
		c-1.82-3.21-3.15-6.61-3.08-10.37c0.02-1.94,0.16-4.01,1.8-5.31c1.6-1.25,3.4-2.28,5.2-3.24c0.98-0.52,2.21,0.02,2.94,1.05
		c0.55,0.75,1.03,1.5,1.66,2.44c0.02-0.46,0.05-0.73,0.05-0.98c0-2.92,0-5.86,0-8.78c0-1.92,0.89-2.8,2.76-2.8
		c12.27,0,24.53,0,36.8,0c1.89,0,2.78,0.87,2.78,2.78c0,8.98,0,17.94,0,26.93c0,1.87-0.87,2.74-2.74,2.74c-11.19,0-22.39,0-33.61,0
		C17.92,35.48,17.62,35.48,17.07,35.48z M33.37,4.89c-6.11,0-12.2,0.02-18.31-0.02c-0.82,0-1.05,0.27-1.05,1.07
		c0.05,2.92,0.16,5.86-0.02,8.78c-0.16,2.55,0.25,4.81,2.03,6.73c0.02,0.02,0.02,0.05,0.05,0.07c0.89,1.39,0.68,2.78-0.59,3.81
		c-0.91,0.75-1.85,1.46-2.8,2.17c-0.59,0.43-0.78,0.96-0.36,1.6c0.84,1.32,1.73,2.62,2.58,3.94c0.32,0.5,0.75,0.64,1.35,0.64
		c11.79-0.02,23.58-0.02,35.34-0.02c1.14,0,1.14,0,1.14-1.12c0-8.87,0-17.72,0-26.58c0-1.09,0-1.09-1.14-1.09
		C45.53,4.89,39.44,4.89,33.37,4.89z M33.88,52.49c0.46,0,0.91,0.02,1.35,0c1.73-0.14,3.15-0.75,3.97-2.42
		c0.48-0.93,1.07-1.78,1.6-2.67c0.48-0.82,0.41-1.19-0.36-1.69c-2.64-1.78-5.29-3.51-7.93-5.29c-0.66-0.46-1.19-0.39-1.66,0.25
		c-0.68,0.91-1.39,1.82-2.12,2.74c-1.05,1.32-2.28,1.55-3.81,0.75c-2.3-1.21-4.35-2.76-6.25-4.54c-3.06-2.9-5.97-5.88-7.96-9.64
		c-0.82-1.55-0.57-2.78,0.8-3.85c0.87-0.68,1.73-1.35,2.6-2.03c0.78-0.62,0.84-0.96,0.3-1.78c-1.69-2.64-3.47-5.24-5.18-7.87
		c-0.46-0.68-0.96-0.82-1.64-0.41c-1.07,0.64-2.17,1.3-3.24,1.96c-0.98,0.59-1.53,1.46-1.76,2.55c-0.59,2.94-0.02,5.75,1.09,8.48
		c1.62,3.94,4.1,7.34,6.91,10.51c4.1,4.63,8.55,8.87,13.93,12.02C27.4,51.26,30.46,52.54,33.88,52.49z"/>
	<path class="st0" d="M33.4,20.85c-0.73-0.34-1.44-0.52-1.96-0.91c-4.9-3.67-9.76-7.39-14.64-11.1c-0.5-0.36-0.87-0.82-0.41-1.41
		c0.48-0.62,1.03-0.36,1.55,0.02c4.74,3.6,9.48,7.2,14.25,10.81c1.05,0.8,1.37,0.8,2.37,0.05c4.56-3.47,9.14-6.93,13.7-10.37
		c0.21-0.16,0.41-0.3,0.62-0.46c0.52-0.41,1.09-0.64,1.53,0c0.43,0.62,0.05,1.09-0.5,1.48c-1.16,0.84-2.28,1.73-3.42,2.6
		c-3.65,2.76-7.3,5.54-10.97,8.28C34.9,20.25,34.15,20.48,33.4,20.85z"/>
	<path class="st0" d="M50.56,30.42c0.02,0.87-0.66,1.32-1.28,0.98c-0.18-0.11-0.36-0.27-0.5-0.43c-2.9-3.1-5.81-6.2-8.69-9.33
		c-0.25-0.27-0.43-0.66-0.46-1.03c-0.02-0.23,0.32-0.62,0.52-0.66c0.34-0.05,0.8,0.07,1.05,0.27c0.75,0.68,1.41,1.46,2.1,2.19
		c2.23,2.42,4.49,4.81,6.73,7.23C50.27,29.92,50.45,30.24,50.56,30.42z"/>
	<path class="st0" d="M27.33,20.85c-0.23,0.32-0.36,0.57-0.55,0.78c-2.9,3.12-5.81,6.25-8.71,9.37c-0.07,0.07-0.11,0.11-0.18,0.18
		c-0.41,0.39-0.89,0.52-1.35,0.11c-0.46-0.43-0.36-0.91,0.02-1.35c3.01-3.21,6-6.45,9.03-9.64c0.23-0.23,0.78-0.32,1.09-0.25
		C26.94,20.09,27.1,20.55,27.33,20.85z"/>
</g>
</svg>
