<?xml version="1.0" encoding="utf-8"?>
<!-- Generator: Adobe Illustrator 24.3.0, SVG Export Plug-In . SVG Version: 6.00 Build 0)  -->
<svg version="1.1" id="Layer_1" xmlns="http://www.w3.org/2000/svg" xmlns:xlink="http://www.w3.org/1999/xlink" x="0px" y="0px"
	 viewBox="0 0 25 25" style="enable-background:new 0 0 25 25;" xml:space="preserve">
<style type="text/css">
	.st0{fill:url(#SVGID_1_);}
	.st1{fill:#C8DAEA;}
	.st2{fill:#A9C6D8;}
	.st3{fill:#FFFFFF;}
</style>
<linearGradient id="SVGID_1_" gradientUnits="userSpaceOnUse" x1="12.5" y1="0.3583" x2="12.5" y2="24.6896" gradientTransform="matrix(1 0 0 -1 0 25)">
	<stop  offset="0" style="stop-color:#1D93D2"/>
	<stop  offset="1" style="stop-color:#38B0E3"/>
</linearGradient>
<circle class="st0" cx="12.5" cy="12.48" r="12.17"/>
<path class="st1" d="M8.57,13.37l1.44,4c0,0,0.18,0.37,0.37,0.37c0.19,0,3.07-2.99,3.07-2.99l3.2-6.17l-8.03,3.76L8.57,13.37z"/>
<path class="st2" d="M10.48,14.39l-0.28,2.94c0,0-0.12,0.9,0.79,0c0.9-0.9,1.77-1.6,1.77-1.6"/>
<path class="st3" d="M8.6,13.51l-2.97-0.97c0,0-0.35-0.14-0.24-0.47C5.41,12,5.46,11.95,5.6,11.85c0.66-0.46,12.18-4.6,12.18-4.6
	s0.33-0.11,0.52-0.04c0.1,0.03,0.17,0.11,0.19,0.21c0.02,0.09,0.03,0.17,0.03,0.26c0,0.08-0.01,0.15-0.02,0.26
	c-0.07,1.13-2.17,9.58-2.17,9.58s-0.13,0.49-0.58,0.51c-0.22,0.01-0.44-0.08-0.6-0.23c-0.88-0.76-3.94-2.81-4.61-3.26
	c-0.03-0.02-0.05-0.05-0.06-0.09c-0.01-0.05,0.04-0.11,0.04-0.11s5.31-4.72,5.46-5.22c0.01-0.04-0.03-0.06-0.09-0.04
	c-0.35,0.13-6.47,3.99-7.15,4.42C8.7,13.51,8.65,13.52,8.6,13.51z"/>
</svg>
