<?xml version="1.0" encoding="utf-8"?>
<!-- Generator: Adobe Illustrator 24.3.0, SVG Export Plug-In . SVG Version: 6.00 Build 0)  -->
<svg version="1.1" id="Layer_1" xmlns="http://www.w3.org/2000/svg" xmlns:xlink="http://www.w3.org/1999/xlink" x="0px" y="0px"
	 viewBox="0 0 62 65.6" style="enable-background:new 0 0 62 65.6;" xml:space="preserve">
<style type="text/css">
	.st0{fill:#E20613;}
	.st1{fill:none;}
</style>
<g>
	<g>
		<path class="st0" d="M27.6,43.8L16.2,55.2c-0.4,0.4-1,0.4-1.3,0l-2.3-2.3c-0.4-0.4-0.4-1,0-1.3l11.5-11.5L23,38.9L11.5,50.4
			c-1,1-1,2.6,0,3.6l2.3,2.3c1,1,2.6,1,3.6,0L28.7,45L27.6,43.8z"/>
	</g>
	<g>
		<path class="st0" d="M38.5,31l-4,4l-1.7-1.7l4.1-4.1c0.5-0.5,1.2-0.5,1.7,0C39,29.7,39,30.5,38.5,31z"/>
	</g>
	<g>
		<g>
			<path class="st0" d="M47.4,49.2L33.2,36.2l-1.7-1.6l-4.4-4c-1.1-1.1-2.8-1.1-3.9,0L21.9,32c-1.1,1.1-1.1,2.8,0,3.9l2,2.2l1.1,1.2
				l3.5,3.8l1.1,1.2l11,11.9c0.6,0.7,1.5,1.1,2.4,1.1c0.9,0,1.8-0.3,2.4-1l2.1-2.1c0.7-0.7,1-1.5,1-2.4
				C48.5,50.7,48.1,49.8,47.4,49.2z M46.3,52.8l-2.1,2.1c-0.3,0.3-0.7,0.5-1.1,0.5c-0.4,0-0.8-0.2-1.1-0.5L30.8,42.9l-1.1-1.2
				l-3.5-3.8l-1.1-1.2l-2-2.2c-0.4-0.4-0.4-1,0-1.4l1.3-1.3c0.4-0.4,1-0.4,1.4,0l20.3,18.6c0.3,0.3,0.5,0.7,0.5,1.1
				C46.7,52.1,46.6,52.5,46.3,52.8z"/>
		</g>
		<g>
			<g>
				<path class="st0" d="M21.9,15.4c-3.4-3.4-8.4-4-12.4-1.9c-0.5,0.3-1.1,0.6-1.6,1l1.4,1.1l5.8,4.7l-3.4,3.4l-4.7-5.9l-1.1-1.4
					l-0.5,0.8l-0.5,0.8c-2.1,4-1.5,9.1,1.9,12.5c4.2,4.2,10.9,4.2,15.1,0C26,26.3,26,19.6,21.9,15.4z M20.6,29.2
					c-3.5,3.5-9.1,3.5-12.6,0c-2.6-2.6-3.3-6.5-1.9-9.7l5.4,6.9l6.2-6.2L11,14.7c3.2-1.3,7.1-0.7,9.7,1.9
					C24.1,20.1,24.1,25.8,20.6,29.2z"/>
			</g>
		</g>
	</g>
	<g>
		<path class="st0" d="M39.8,10.4c0.1,0,0.4,0,0.7,0.3l0.2,0.2c0.4,0.4,0.4,1,0,1.3l-6.9,6.9c-0.2,0.2-0.5,0.3-0.7,0.3
			c-0.1,0-0.4,0-0.7-0.3L32.3,19C32,18.7,32,18.4,32,18.3c0-0.1,0-0.4,0.3-0.7l6.9-6.9C39.4,10.5,39.7,10.4,39.8,10.4 M39.8,8.5
			c-0.7,0-1.5,0.3-2.1,0.9l-6.9,6.9c-1.1,1.1-1.1,3,0,4.1l0.2,0.2c0.6,0.6,1.3,0.9,2.1,0.9s1.5-0.3,2.1-0.9l6.9-6.9
			c1.1-1.1,1.1-3,0-4.1l-0.2-0.2C41.3,8.8,40.6,8.5,39.8,8.5L39.8,8.5z"/>
		<path class="st0" d="M44.6,15.2c0.1,0,0.4,0,0.7,0.3l8,8c0.2,0.2,0.3,0.5,0.3,0.7c0,0.1,0,0.4-0.3,0.7l-6.9,6.9
			C46.1,32,45.9,32,45.7,32s-0.4,0-0.7-0.3l-8-8c-0.2-0.2-0.3-0.5-0.3-0.7c0-0.1,0-0.4,0.3-0.7l6.9-6.9
			C44.2,15.2,44.4,15.2,44.6,15.2 M44.6,13.2c-0.7,0-1.5,0.3-2.1,0.9L35.6,21c-1.1,1.1-1.1,3,0,4.1l8,8c0.6,0.6,1.3,0.9,2.1,0.9
			s1.5-0.3,2.1-0.9l6.9-6.9c1.1-1.1,1.1-3,0-4.1l-8-8C46.1,13.5,45.3,13.2,44.6,13.2L44.6,13.2z"/>
		<path class="st0" d="M57.2,27.8c0.1,0,0.4,0,0.7,0.3c0.2,0.2,0.3,0.5,0.3,0.7c0,0.1,0,0.4-0.3,0.7L51,36.3
			c-0.2,0.2-0.5,0.3-0.7,0.3c-0.1,0-0.4,0-0.7-0.3c-0.2-0.2-0.3-0.5-0.3-0.7c0-0.1,0-0.4,0.3-0.7l6.9-6.9
			C56.8,27.9,57.1,27.8,57.2,27.8 M57.2,25.9c-0.7,0-1.5,0.3-2.1,0.9l-6.9,6.9c-1.1,1.1-1.1,3,0,4.1c0.6,0.6,1.3,0.9,2.1,0.9
			s1.5-0.3,2.1-0.9l6.9-6.9c1.1-1.1,1.1-3,0-4.1C58.7,26.1,57.9,25.9,57.2,25.9L57.2,25.9z"/>
	</g>
	<line class="st1" x1="34.5" y1="35" x2="32.9" y2="33.4"/>
</g>
</svg>
