<?xml version="1.0" encoding="utf-8"?>
<!-- Generator: Adobe Illustrator 24.3.0, SVG Export Plug-In . SVG Version: 6.00 Build 0)  -->
<svg version="1.1" id="Layer_1" xmlns="http://www.w3.org/2000/svg" xmlns:xlink="http://www.w3.org/1999/xlink" x="0px" y="0px"
	 viewBox="0 0 62 65.6" style="enable-background:new 0 0 62 65.6;" xml:space="preserve">
<style type="text/css">
	.st0{fill:#E4262A;}
	.st1{fill:#E4262A;stroke:#E4262A;stroke-width:0.55;stroke-miterlimit:10;}
</style>
<g>
	<g>
		<g>
			<g>
				<g>
					<g>
						<path class="st0" d="M36.7,45.2C36.7,45.2,36.7,45.3,36.7,45.2L36.7,45.2c-0.1,0.1-0.1,0.1-0.1,0c0,0,0,0-0.1,0
							c-0.1-0.1-0.3-0.2-0.4-0.3c0,0,0,0-0.1-0.1v0c0,0,0,0-0.1-0.1c0,0,0,0,0.1-0.1c0.1-0.1,0.3-0.1,0.4-0.1
							C36.7,44.8,36.8,45,36.7,45.2z"/>
					</g>
					<g>
						<path class="st0" d="M36.9,44.9c0-0.2-0.2-0.3-0.3-0.4c-0.1,0-0.2-0.1-0.3-0.1h0c-0.1,0-0.1,0-0.2,0c0,0,0,0,0,0
							c0,0-0.1,0-0.1,0c0,0,0,0,0,0c0,0,0,0,0,0h0l0,0v0c0,0,0,0-0.1,0c0,0-0.1,0.1-0.1,0.1c0,0,0,0,0,0h0c0,0,0,0,0,0l0,0.1l0,0v0
							l0,0.1l0,0c0,0,0,0,0,0.1l0,0l0.1,0.1c0,0,0.1,0.1,0.1,0.1c0,0,0.1,0.1,0.1,0.1c0,0,0,0,0,0c0,0,0.1,0.1,0.1,0.1c0,0,0,0,0,0
							c0,0,0.1,0,0.1,0c0,0,0,0,0.1,0c0,0,0,0,0,0l0.1,0h0.1l0-0.1l0,0v0l0,0l0.1-0.1c0,0,0-0.1,0-0.1v0c0,0,0,0,0,0c0,0,0,0,0,0
							c0,0,0,0,0,0h0v0c0,0,0-0.1,0-0.1C37,45,37,45,36.9,44.9z M36.1,44.9L36.1,44.9L36.1,44.9L36.1,44.9L36.1,44.9L36.1,44.9
							L36.1,44.9z"/>
					</g>
				</g>
				<g>
					<g>
						<path class="st0" d="M36.4,34.6h6.3v0.6h-6.3c-0.2,0-0.3-0.1-0.3-0.3C36.1,34.7,36.3,34.6,36.4,34.6z"/>
					</g>
					<g>
						<path class="st0" d="M54.3,36.5l-0.6,1.6l-0.1,0.2l0,0.1l-0.1,0.1l-0.1,0.2c0,0-0.1,0-0.1,0L53.3,39l-1.1,2.9
							c0,0-0.1-0.1-0.1-0.1c0,0,0,0-0.1,0c0,0-0.1,0-0.1,0c0,0,0,0,0,0h-0.2l0.1-0.2l0.9-2.6l0-0.1l0-0.1l0-0.1l0.1-0.1l0.1-0.2
							l0-0.1l0-0.1l0-0.1l0-0.1l0.6-1.6c0.1-0.2,0.1-0.5-0.1-0.7c-0.2-0.2-0.4-0.4-0.7-0.4h-7.8v-0.6h7.8c0.5,0,0.9,0.2,1.2,0.6
							C54.4,35.6,54.5,36.1,54.3,36.5z"/>
					</g>
					<g>
						<path class="st0" d="M53.8,35.5c-0.2-0.3-0.5-0.4-0.9-0.4h-7.8v0.2h7.8c0.3,0,0.5,0.1,0.7,0.4c0.2,0.2,0.2,0.5,0.1,0.7
							l-0.6,1.6l0,0.1l0,0.1l0,0.1l0,0.1l-0.1,0.2l-0.1,0.1H53l0,0.1l0,0.1h0.2l0-0.1l0-0.1l0-0.1l0.1-0.2l0-0.1l0-0.1l0-0.1l0-0.1
							l0.5-1.5C54,36.1,54,35.7,53.8,35.5z M53.8,35.5c-0.2-0.3-0.5-0.4-0.9-0.4h-7.8v0.1h7.8c0.3,0,0.6,0.1,0.7,0.4
							c0.2,0.2,0.2,0.5,0.1,0.8l-0.6,1.5l0,0.1l0,0.1l0,0.1l0,0.1L53,38.5L53,38.6h0.1l0-0.1l0.1-0.2l0-0.1l0-0.1l0-0.1l0-0.1
							l0.5-1.5C54,36.1,54,35.7,53.8,35.5z M53.8,35.5c-0.2-0.3-0.5-0.4-0.9-0.4h-7.8v0.1h7.8c0.3,0,0.6,0.1,0.7,0.4
							c0.2,0.2,0.2,0.5,0.1,0.8l-0.6,1.5l0,0.1l0,0.1l0,0.1l0,0.1L53,38.5L53,38.6h0.1l0-0.1l0.1-0.2l0-0.1l0-0.1l0-0.1l0-0.1
							l0.5-1.5C54,36.1,54,35.7,53.8,35.5z M54.3,35.1c-0.3-0.5-0.8-0.7-1.4-0.7h-7.8v0.5h7.8c0.4,0,0.8,0.2,1,0.5
							c0.2,0.3,0.3,0.7,0.1,1.1L53.5,38l0,0.1l0,0.1l0,0.1l-0.1,0.3l-0.1,0l0,0l0,0.1l0,0.1l0,0.1L53,39.1l-0.9,2.4c0,0,0,0-0.1,0
							l0,0L53,39l0.1-0.1l0-0.1l0-0.1l0-0.1l0.1-0.2l0-0.1l0-0.1l0-0.1l0-0.1l0.5-1.5c0.1-0.3,0.1-0.7-0.1-0.9
							c-0.2-0.3-0.5-0.4-0.9-0.4h-7.8v0.5h7.8c0.2,0,0.4,0.1,0.5,0.3c0.1,0.2,0.1,0.3,0.1,0.5l-0.6,1.6l0,0.1l0,0.1l0,0.1l0,0.1
							l-0.1,0.2l-0.1,0.1l0,0.1l0,0.1l0,0.1l-0.9,2.6l-0.1,0.2L51.4,42h0.5c0.1,0,0.1,0,0.1,0.1v0l0.1,0.2l0,0l0,0.1v0l0,0.1l0-0.1
							l0,0l1.2-3.3c0,0,0,0,0,0l0.1,0l0-0.1l0.1-0.2c0,0,0-0.1,0-0.1l0.7-1.9C54.7,36.1,54.6,35.5,54.3,35.1z M35.9,34.9
							c0,0.3,0.2,0.5,0.5,0.5h6.3V35h-6.3c0,0-0.1,0-0.1-0.1c0,0,0-0.1,0.1-0.1h6.3v-0.5h-6.3C36.1,34.4,35.9,34.6,35.9,34.9z
							 M53.8,35.5c-0.2-0.3-0.5-0.4-0.9-0.4h-7.8v0.1h7.8c0.3,0,0.6,0.1,0.7,0.4c0.2,0.2,0.2,0.5,0.1,0.8l-0.6,1.5l0,0.1l0,0.1
							l0,0.1l0,0.1L53,38.5L53,38.6h0.1l0-0.1l0.1-0.2l0-0.1l0-0.1l0-0.1l0-0.1l0.5-1.5C54,36.1,54,35.7,53.8,35.5z M53.8,35.5
							c-0.2-0.3-0.5-0.4-0.9-0.4h-7.8v0.1h7.8c0.3,0,0.6,0.1,0.7,0.4c0.2,0.2,0.2,0.5,0.1,0.8l-0.6,1.5l0,0.1l0,0.1l0,0.1l0,0.1
							L53,38.5h-0.1l-0.1,0.1l0,0.1l0,0.1l0,0.1l-0.9,2.6h0.2L53,39l0.1-0.1l0-0.1l0-0.1l0-0.1l0.1-0.2l0-0.1l0-0.1l0-0.1l0-0.1
							l0.5-1.5C54,36.1,54,35.7,53.8,35.5z"/>
					</g>
					<g>
						<rect x="42.7" y="34.3" class="st0" width="2.5" height="1.2"/>
					</g>
				</g>
				<g>
					<g>
						<path class="st0" d="M36.6,45.2C36.6,45.2,36.6,45.2,36.6,45.2c-0.1,0-0.1,0-0.1-0.1v0c-0.1,0-0.2-0.1-0.3-0.2h0l0,0
							c0,0,0,0-0.1-0.1l-0.1-0.1L36,44.8c0,0,0,0,0,0l0,0c0,0,0,0,0.1,0.1c0,0,0,0,0.1,0.1c0,0,0,0,0,0c0.1,0.1,0.2,0.1,0.3,0.2
							c0,0,0,0,0,0c0,0,0.1,0,0.1,0c0,0,0,0,0.1,0l0-0.1L36.6,45.2C36.7,45.3,36.7,45.2,36.6,45.2C36.7,45.2,36.6,45.2,36.6,45.2z
							 M54.2,35.2c-0.3-0.4-0.8-0.7-1.3-0.7h-7.8v0.2h7.8c0.4,0,0.9,0.2,1.1,0.6c0.3,0.4,0.3,0.8,0.2,1.2L53.7,38l-0.1,0.1l0,0.1v0
							l-0.1,0.2v0c0,0,0,0,0,0l-0.1,0.2l0,0.1c0,0,0.1,0,0.1,0l-0.1,0.2L52.3,42c0,0,0,0.1,0,0.1c0,0,0,0,0,0.1l1.2-3.3l0.1-0.3
							c0,0,0,0,0,0c0,0,0,0,0,0c0,0,0,0,0,0l0.1-0.2l0-0.1l0.6-1.6C54.5,36.1,54.5,35.6,54.2,35.2z M52.9,38.8L52.9,38.8l0.1-0.2
							l0.1-0.1l0.1-0.2l0-0.1l0-0.1l0-0.1l0-0.1l0.6-1.5c0.1-0.3,0.1-0.6-0.1-0.8c-0.2-0.2-0.4-0.4-0.7-0.4h-7.8v0.2h7.8
							c0.2,0,0.5,0.1,0.6,0.3c0.1,0.2,0.2,0.4,0.1,0.7l-0.6,1.6l0,0.1l0,0.1l0,0.1l0,0.1l-0.1,0.2l-0.1,0.1l0,0.1l0,0.1l0,0.1
							l-0.9,2.6l-0.1,0.2l0,0.1h0.1l0-0.1h0.1l0.1-0.2l0.9-2.6L52.9,38.8z M36.1,34.9c0,0.2,0.2,0.4,0.4,0.4h6.3v-0.2h-6.3
							c-0.1,0-0.2-0.1-0.2-0.2c0-0.1,0.1-0.2,0.2-0.2h6.3v-0.2h-6.3C36.2,34.5,36.1,34.7,36.1,34.9z"/>
					</g>
					<g>
						<path class="st0" d="M54.4,35c-0.3-0.5-0.9-0.7-1.4-0.7h-7.8v1.2h7.8c0.2,0,0.3,0.1,0.4,0.2c0.1,0.1,0.1,0.3,0.1,0.5l-0.6,1.7
							l0,0.1l0,0.1l0,0.1l0,0.1l-0.1,0.2l-0.1,0.1l0,0.1l0,0.1L52.4,39l-0.9,2.6l-0.1,0.2h0L51.3,42l0,0.1h0.6l0-0.1H52l0.1-0.2
							l0.1-0.2l0.9-2.4l0.1,0l-1,2.7l0,0.1l0,0.1v0l0,0.1c0,0,0,0,0,0.1v0l0.1,0.1l0.1,0l0,0l0.2,0.1v0h0c0,0,0-0.1,0-0.1l2-5.6
							C54.8,36.1,54.7,35.5,54.4,35z M35.8,34.9c0,0.3,0.3,0.6,0.6,0.6h6.3v-1.2h-6.3C36.1,34.3,35.8,34.6,35.8,34.9z M37,45.1
							L37,45.1L36.7,45l0,0l0,0.2h0v0l0-0.1v0l0,0c0,0,0,0,0,0c-0.1,0-0.2-0.1-0.2-0.2l0,0c0,0,0,0,0,0l0,0l-0.1-0.1l-0.1-0.1v0l0,0
							L36,44.5c0,0,0,0,0,0c0,0,0,0,0,0h0l0,0l-0.1,0c0,0-0.1,0.1-0.1,0.1c0,0,0,0,0,0h0c0,0,0,0,0,0l0,0.1v0l0,0.1v0l0,0.1l0,0
							c0,0,0,0,0.1,0.1h0c0,0,0,0,0,0c0,0,0,0,0.1,0.1l0,0l0,0v0l0,0c0,0,0,0,0,0c0,0,0,0,0.1,0c0,0,0,0,0,0v0c0,0,0.1,0,0.1,0.1
							l0,0l0,0l0.1,0h0l0.1,0c0,0,0,0,0.1,0c0,0,0,0,0.1,0l0.1,0l0.1,0l0.1-0.2l0,0v0l0,0l0.1-0.3h0L37,45.1L37,45.1L37,45.1z"/>
					</g>
				</g>
				<g>
					<g>
						<path class="st0" d="M52.3,42c0,0,0,0.1,0,0.1c0,0.1,0,0.1,0,0.2c0,0.1-0.1,0.1-0.2,0.2c0,0-0.1,0-0.1,0c0,0-0.1,0-0.1,0H38.2
							c-0.2,0-0.4-0.2-0.4-0.4c0-0.2,0.2-0.4,0.4-0.4h13.4l0,0.1h0.1l0-0.1h0.2c0.1,0,0.3,0.1,0.3,0.2l1.1-3.1c0,0,0.1,0,0.1,0
							L52.3,42z"/>
					</g>
					<g>
						<path class="st0" d="M45.2,41.7V42h6.2l0.1-0.2H45.2z M53.8,38.3L53.8,38.3l-0.1,0.1l0,0l0,0l-0.1,0.1l-0.2,0.1h0l-0.1,0l0,0
							l0,0.1l0,0.1l0,0.1L53,39.1l-0.9,2.4c0,0,0,0-0.1,0c0,0-0.1,0-0.1,0H38.2c-0.3,0-0.6,0.3-0.6,0.6c0,0.3,0.3,0.6,0.6,0.6h13.7
							c0.1,0,0.1,0,0.1,0c0,0,0.1,0,0.1,0c0,0,0.1,0,0.1-0.1c0.1-0.1,0.2-0.2,0.2-0.3v0h0c0,0,0-0.1,0-0.1c0,0,0-0.1,0-0.1
							c0,0,0-0.1,0-0.1l1.1-3.1l0-0.1l0-0.1l0.1-0.2L53.8,38.3L53.8,38.3z M45.2,42.3h-2.5l-4.5,0c-0.1,0-0.2-0.1-0.2-0.2
							c0-0.1,0.1-0.2,0.2-0.2h13.1l0,0.1h0.6l0-0.1h0c0.1,0,0.1,0,0.1,0.1v0l0,0.1c0,0,0,0,0,0.1v0c0,0,0,0-0.1,0.1L45.2,42.3z"/>
					</g>
				</g>
				<g>
					<g>
						<path class="st0" d="M52.3,42.3l-0.8,2.2c-0.2,0.6-0.8,1-1.4,1H37.1c-0.2,0-0.4,0-0.5-0.1l0-0.1l0,0c0,0,0,0,0,0
							c0.1-0.2,0-0.4-0.2-0.5c-0.2-0.1-0.3,0-0.4,0.1c0,0,0,0-0.1,0.1c0,0,0,0,0,0l0,0c-0.1-0.1-0.2-0.3-0.3-0.5l-4.1-11.7
							c-0.1-0.2-0.2-0.3-0.4-0.4l-2.9-1.2c-0.2-0.1-0.3-0.3-0.2-0.5c0-0.1,0.1-0.2,0.2-0.2c0.1,0,0.2,0,0.3,0l2.9,1.2
							c0.4,0.2,0.7,0.5,0.8,0.9l4.1,11.7c0.1,0.3,0.4,0.5,0.7,0.5h12.9c0.3,0,0.6-0.2,0.7-0.5l0.6-1.7h0.6c0,0,0.1,0,0.1,0
							c0,0,0.1,0,0.1,0C52.2,42.4,52.3,42.4,52.3,42.3z"/>
					</g>
					<g>
						<path class="st0" d="M51.3,42.8l-0.5,1.4c-0.1,0.3-0.4,0.5-0.7,0.5h-4.9v0.2h4.9c0.4,0,0.8-0.3,0.9-0.6l0.5-1.5H51.3z
							 M36.9,45.2C36.9,45.2,36.9,45.2,36.9,45.2L36.9,45.2L36.9,45.2z M36.9,45.2C36.9,45.2,36.9,45.2,36.9,45.2L36.9,45.2
							L36.9,45.2z M52.5,42.4l-0.1-0.1l-0.1,0l-0.1,0l-0.1,0v0c0,0,0,0-0.1,0.1l-0.8,0l-0.1,0.2l-0.1,0.2l-0.5,1.4
							c-0.1,0.2-0.3,0.3-0.5,0.3H37.1c-0.2,0-0.4-0.1-0.5-0.3l-4.1-11.7c-0.2-0.5-0.5-0.8-1-1l-2.9-1.2c-0.1-0.1-0.3-0.1-0.5,0
							c-0.2,0.1-0.3,0.2-0.3,0.3c-0.1,0.3,0,0.7,0.3,0.8l2.9,1.2c0.1,0,0.2,0.2,0.3,0.3l4.1,11.7c0,0.1,0.1,0.3,0.2,0.4v0l0,0.1l0,0
							c0,0,0,0,0.1,0.1h0c0,0,0,0,0,0c0,0,0,0,0.1,0.1l0,0l0,0v0l0-0.1l0.1-0.1l0-0.1l0,0l0,0l-0.1,0l-0.1,0l0.1,0l0.1,0h0l0,0l0,0
							h0c0,0,0,0,0,0h0c0,0,0.1,0,0.1,0h0c0.1,0,0.1,0.1,0.1,0.2c0,0,0,0,0,0v0l0,0.1l-0.1,0.2l0,0.1v0l0,0l0.1,0h0l0.1,0
							c0,0,0,0,0.1,0c0,0,0,0,0.1,0l0.1,0c0,0,0.1,0,0.1,0c0.1,0,0.3,0,0.4,0h12.9c0.7,0,1.4-0.5,1.7-1.2L52.5,42.4L52.5,42.4
							L52.5,42.4z M50.1,45.3H37.1c-0.1,0-0.1,0-0.2,0v0c0,0,0,0,0,0c0,0,0,0,0,0v0c0,0,0-0.1,0-0.1c0,0,0-0.1,0-0.1c0,0,0,0,0,0
							c0.1,0,0.1,0,0.2,0h12.9c0.4,0,0.8-0.3,0.9-0.6l0.5-1.5h0.4l-0.6,1.6C51.1,44.9,50.6,45.3,50.1,45.3z M31.3,32.2l-2.9-1.2
							c-0.1,0-0.1-0.1-0.1-0.2c0,0,0-0.1,0.1-0.1c0,0,0,0,0.1,0c0,0,0,0,0.1,0l2.9,1.2c0.3,0.1,0.6,0.4,0.7,0.8l4.1,11.7
							c0,0.1,0.1,0.1,0.1,0.2h0c-0.1,0-0.1,0-0.2,0c0,0,0,0,0,0c0,0-0.1,0-0.1,0c0,0,0,0,0,0c0,0,0,0,0,0h0c0-0.1-0.1-0.1-0.1-0.2
							l-4.1-11.6C31.8,32.5,31.6,32.3,31.3,32.2z M36.9,45.2C36.9,45.2,36.9,45.2,36.9,45.2L36.9,45.2L36.9,45.2z M51.3,42.8
							l-0.5,1.4c-0.1,0.3-0.4,0.5-0.7,0.5h-4.9v0.2h4.9c0.4,0,0.8-0.3,0.9-0.6l0.5-1.5H51.3z M36.9,45.2
							C36.9,45.2,36.9,45.2,36.9,45.2L36.9,45.2L36.9,45.2z M51.3,42.8l-0.5,1.4c-0.1,0.3-0.4,0.5-0.7,0.5h-4.9v0.2h4.9
							c0.4,0,0.8-0.3,0.9-0.6l0.5-1.5H51.3z"/>
					</g>
				</g>
			</g>
		</g>
		<g>
			<g>
				<g>
					<g>
						<path class="st0" d="M53.3,38.7h-16c-0.2,0-0.3-0.1-0.3-0.3c0-0.2,0.1-0.3,0.3-0.3h16c0.2,0,0.3,0.1,0.3,0.3
							C53.6,38.6,53.5,38.7,53.3,38.7z"/>
					</g>
					<g>
						<path class="st0" d="M45.2,38.5v0.2h7.7l0-0.1l0.1-0.1H45.2z M45.2,38.5v0.1h7.7l0.1-0.1H45.2z M53.8,38.3
							C53.8,38.2,53.8,38.2,53.8,38.3c0-0.1-0.1-0.1-0.1-0.2c0,0,0-0.1-0.1-0.1c0,0-0.1-0.1-0.1-0.1c0,0-0.1-0.1-0.2-0.1
							c0,0-0.1,0-0.1,0h-16c-0.3,0-0.5,0.2-0.5,0.5c0,0.3,0.2,0.5,0.5,0.5h16c0,0,0.1,0,0.1,0c0,0,0.1,0,0.1,0
							c0.1,0,0.2-0.1,0.2-0.2c0,0,0,0,0-0.1c0,0,0-0.1,0-0.1c0,0,0,0,0-0.1v0C53.8,38.4,53.8,38.3,53.8,38.3z M37.3,38.3h16
							c0,0,0.1,0,0.1,0.1c0,0,0,0.1-0.1,0.1h-16C37.3,38.5,37.2,38.5,37.3,38.3C37.2,38.4,37.3,38.3,37.3,38.3z M45.2,38.5v0.1h7.7
							l0.1-0.1H45.2z"/>
					</g>
				</g>
				<g>
					<g>
						<path class="st1" d="M45.2,38.6L45.2,38.6l7.7,0.1l0-0.1H45.2z M53.7,38.4C53.7,38.3,53.7,38.3,53.7,38.4c0-0.1,0-0.1-0.1-0.2
							c0,0-0.1-0.1-0.1-0.1c0,0-0.1-0.1-0.2-0.1c0,0,0,0,0,0h-16c-0.2,0-0.4,0.2-0.4,0.4c0,0.2,0.2,0.4,0.4,0.4h16c0,0,0.1,0,0.1,0
							c0,0,0.1,0,0.1,0c0.1,0,0.1-0.1,0.1-0.1c0,0,0,0,0,0c0,0,0,0,0,0c0,0,0,0,0,0C53.7,38.5,53.7,38.4,53.7,38.4
							C53.7,38.4,53.7,38.4,53.7,38.4z M53.5,38.5c0,0.1-0.1,0.1-0.2,0.1h-16c-0.1,0-0.2-0.1-0.2-0.2c0-0.1,0.1-0.2,0.2-0.2h16
							c0.1,0,0.1,0,0.1,0.1C53.5,38.3,53.5,38.3,53.5,38.5L53.5,38.5C53.5,38.5,53.5,38.5,53.5,38.5z"/>
					</g>
				</g>
			</g>
		</g>
		<g>
			<g>
				<g>
					<g>
						<path class="st0" d="M51.7,41.7L51.7,41.7L51.7,41.7L51.7,41.7L51.7,41.7z"/>
					</g>
					<g>
						<polygon class="st0" points="51.9,42.1 51.3,42.1 51.5,41.5 52.1,41.5 						"/>
					</g>
				</g>
			</g>
		</g>
		<g>
			<g>
				<g>
					<g>
						<path class="st0" d="M50.6,48.5c0,0.2-0.2,0.4-0.4,0.4H36.4c-0.5,0-1-0.3-1.3-0.7c-0.3-0.5-0.3-1-0.1-1.5l0.9-1.8
							c0,0,0,0,0.1,0.1c0,0,0,0,0.1,0.1c0.1,0.1,0.2,0.2,0.4,0.3c0,0,0.1,0,0.1,0c0,0,0.1,0,0.1,0l-0.9,1.7c-0.1,0.2-0.1,0.5,0,0.7
							c0.1,0.2,0.4,0.4,0.6,0.4h13.7C50.4,48.1,50.6,48.3,50.6,48.5z"/>
					</g>
					<g>
						<path class="st0" d="M36.2,45.3l0-0.1L36.2,45.3L36.2,45.3C36.2,45.4,36.2,45.4,36.2,45.3L36.2,45.3c0,0.1,0,0.1,0.1,0.1l0,0
							l0,0v0l0-0.1C36.3,45.4,36.3,45.4,36.2,45.3z M36.2,45.3l0-0.1L36.2,45.3L36.2,45.3C36.2,45.4,36.2,45.4,36.2,45.3L36.2,45.3
							c0,0.1,0,0.1,0.1,0.1l0,0l0,0v0l0-0.1C36.3,45.4,36.3,45.4,36.2,45.3z M50.2,47.9H36.4c-0.2,0-0.3-0.1-0.4-0.2
							c-0.1-0.1-0.1-0.3,0-0.5l0.8-1.5v0l0.1-0.2l0,0v0l0,0l0.1-0.2l-0.1,0l-0.1,0l-0.1,0h0v0l-0.1,0c0,0,0,0,0,0c0,0,0,0,0,0
							c-0.1,0-0.2-0.1-0.2-0.2h0c0,0,0,0,0,0l0,0l0-0.1l0-0.1L36,44.6l0-0.1v0l0-0.1l-0.1,0.2v0c0,0,0,0,0,0l0,0.1v0l0,0.1v0
							l-0.9,1.6c-0.3,0.6-0.3,1.2,0.1,1.7c0.3,0.5,0.9,0.8,1.5,0.8h13.7c0.3,0,0.6-0.3,0.6-0.6C50.8,48.2,50.5,47.9,50.2,47.9z
							 M50.2,48.7H36.4c-0.5,0-0.9-0.2-1.1-0.6c-0.2-0.4-0.3-0.9,0-1.3l0.8-1.5l0,0c0,0,0,0,0,0c0,0,0,0,0.1,0c0,0,0,0,0,0v0
							c0,0,0.1,0,0.1,0.1l0,0l0,0l0,0L35.6,47c-0.2,0.3-0.1,0.7,0,0.9s0.5,0.5,0.8,0.5h13.7c0.1,0,0.2,0.1,0.2,0.2
							C50.3,48.6,50.3,48.7,50.2,48.7z M36.2,45.3l0-0.1L36.2,45.3L36.2,45.3C36.2,45.4,36.2,45.4,36.2,45.3L36.2,45.3
							c0,0.1,0,0.1,0.1,0.1l0,0l0,0v0l0-0.1C36.3,45.4,36.3,45.4,36.2,45.3z M36.2,45.3l0-0.1L36.2,45.3L36.2,45.3
							C36.2,45.4,36.2,45.4,36.2,45.3L36.2,45.3c0,0.1,0,0.1,0.1,0.1l0,0l0,0v0l0-0.1C36.3,45.4,36.3,45.4,36.2,45.3z"/>
					</g>
				</g>
				<g>
					<g>
						<path class="st0" d="M36.6,45.2C36.6,45.2,36.6,45.2,36.6,45.2L36.6,45.2l-0.1,0.2c0,0,0,0-0.1,0c-0.1-0.1-0.3-0.2-0.4-0.3
							c0,0,0,0-0.1-0.1l0-0.1c0,0,0,0,0,0c0,0,0,0,0.1-0.1c0.1-0.1,0.2-0.1,0.4,0C36.6,44.9,36.7,45.1,36.6,45.2z"/>
					</g>
					<g>
						<path class="st0" d="M36.7,45.6l-0.3-0.1c-0.2-0.1-0.3-0.2-0.5-0.3c0,0,0,0-0.1-0.1L35.7,45l0.2-0.3c0,0,0,0,0.1-0.1
							c0.2-0.1,0.4-0.2,0.6-0.1c0.2,0.1,0.3,0.4,0.3,0.6l0,0.1L36.7,45.6z"/>
					</g>
				</g>
				<g>
					<g>
						<path class="st0" d="M36.7,45C36.7,45,36.7,44.9,36.7,45c0-0.1,0-0.1-0.1-0.2c0,0-0.1-0.1-0.1-0.1c0,0,0,0-0.1,0
							c0,0,0,0-0.1,0h0c0,0,0,0-0.1,0c-0.1,0-0.1,0-0.2,0.1c0,0,0,0-0.1,0L36,44.8c0,0,0,0,0,0l0,0c0,0,0,0,0.1,0.1c0,0,0,0,0.1,0.1
							l0-0.1c0,0,0,0,0,0c0,0,0,0,0,0c0,0,0,0,0,0c0,0,0,0,0,0c0,0,0.1,0,0.1,0c0,0,0.1,0,0.1,0c0.1,0,0.1,0.1,0.1,0.2
							c0,0,0,0,0,0.1c0,0,0,0,0,0l0,0.1l0,0.1c0,0,0.1,0,0.1,0c0,0,0,0,0.1,0l0-0.1l0-0.1c0,0,0,0,0,0c0,0,0,0,0-0.1
							C36.7,45.1,36.7,45.1,36.7,45z"/>
					</g>
					<g>
						<path class="st0" d="M36.9,44.9c0-0.2-0.2-0.3-0.3-0.4c-0.1,0-0.2-0.1-0.3-0.1h0c-0.1,0-0.1,0-0.2,0c0,0,0,0,0,0
							c0,0-0.1,0-0.1,0c0,0,0,0,0,0c0,0,0,0,0,0h0l0,0v0c0,0,0,0-0.1,0c0,0-0.1,0.1-0.1,0.1c0,0,0,0,0,0h0c0,0,0,0,0,0l0,0.1v0
							l0,0.1v0l0,0.1l0,0c0,0,0,0,0.1,0.1h0c0,0,0,0,0,0c0,0,0,0,0.1,0.1l0,0l0,0v0l0,0l0.1,0.1l0-0.1l0.1-0.1l0,0.1l0,0.1v0l0,0
							l0.1,0l0,0l0,0l0.1,0h0l0.1,0c0,0,0,0,0.1,0c0,0,0,0,0.1,0l0.1,0l0.1,0l0.1-0.2l0,0l0,0l0.1-0.1c0,0,0-0.1,0-0.1v0
							c0,0,0,0,0,0c0,0,0,0,0,0v0c0,0,0-0.1,0-0.1C37,45,37,45,36.9,44.9z"/>
					</g>
				</g>
			</g>
		</g>
		<g>
			<g>
				<g>
					<g>
						<path class="st0" d="M39.1,49.3c-0.8,0-1.5,0.7-1.5,1.5c0,0.8,0.7,1.5,1.5,1.5s1.5-0.7,1.5-1.5C40.6,49.9,40,49.3,39.1,49.3z
							 M39.1,51.8c-0.6,0-1.1-0.5-1.1-1.1c0-0.6,0.5-1.1,1.1-1.1c0.6,0,1.1,0.5,1.1,1.1C40.2,51.3,39.7,51.8,39.1,51.8z"/>
					</g>
					<g>
						<path class="st0" d="M39.8,49.1c-0.2-0.1-0.4-0.1-0.6-0.1c-0.2,0-0.4,0-0.6,0.1c-0.6,0.3-1.1,0.9-1.1,1.6
							c0,0.8,0.6,1.5,1.3,1.7c0.1,0,0.2,0,0.4,0c0.1,0,0.3,0,0.4,0c0.8-0.2,1.3-0.9,1.3-1.7C40.9,50,40.4,49.4,39.8,49.1z
							 M39.1,51.6c-0.5,0-0.9-0.4-0.9-0.9s0.4-0.9,0.9-0.9c0.5,0,0.9,0.4,0.9,0.9S39.6,51.6,39.1,51.6z"/>
					</g>
				</g>
				<g>
					<g>
						<path class="st0" d="M39.1,49.6c-0.6,0-1.1,0.5-1.1,1.1c0,0.6,0.5,1.1,1.1,1.1c0.6,0,1.1-0.5,1.1-1.1
							C40.3,50.1,39.8,49.6,39.1,49.6z M39.1,51.8c-0.6,0-1-0.5-1-1s0.5-1,1-1c0.6,0,1,0.5,1,1S39.7,51.8,39.1,51.8z M39.1,49.6
							c-0.6,0-1.1,0.5-1.1,1.1c0,0.6,0.5,1.1,1.1,1.1c0.6,0,1.1-0.5,1.1-1.1C40.3,50.1,39.8,49.6,39.1,49.6z M39.1,51.8
							c-0.6,0-1-0.5-1-1s0.5-1,1-1c0.6,0,1,0.5,1,1S39.7,51.8,39.1,51.8z M39.1,49.6c-0.6,0-1.1,0.5-1.1,1.1c0,0.6,0.5,1.1,1.1,1.1
							c0.6,0,1.1-0.5,1.1-1.1C40.3,50.1,39.8,49.6,39.1,49.6z M39.1,51.8c-0.6,0-1-0.5-1-1s0.5-1,1-1c0.6,0,1,0.5,1,1
							S39.7,51.8,39.1,51.8z M39.1,49.6c-0.6,0-1.1,0.5-1.1,1.1c0,0.6,0.5,1.1,1.1,1.1c0.6,0,1.1-0.5,1.1-1.1
							C40.3,50.1,39.8,49.6,39.1,49.6z M39.1,51.8c-0.6,0-1-0.5-1-1s0.5-1,1-1c0.6,0,1,0.5,1,1S39.7,51.8,39.1,51.8z M39.1,49.2
							c-0.9,0-1.5,0.7-1.5,1.5c0,0.8,0.7,1.5,1.5,1.5c0.9,0,1.5-0.7,1.5-1.5C40.7,49.9,40,49.2,39.1,49.2z M39.1,52.2
							c-0.8,0-1.4-0.6-1.4-1.4c0-0.8,0.6-1.4,1.4-1.4c0.8,0,1.4,0.6,1.4,1.4C40.6,51.5,39.9,52.2,39.1,52.2z M39.1,49.6
							c-0.6,0-1.1,0.5-1.1,1.1c0,0.6,0.5,1.1,1.1,1.1c0.6,0,1.1-0.5,1.1-1.1C40.3,50.1,39.8,49.6,39.1,49.6z M39.1,51.8
							c-0.6,0-1-0.5-1-1s0.5-1,1-1c0.6,0,1,0.5,1,1S39.7,51.8,39.1,51.8z M39.1,49.6c-0.6,0-1.1,0.5-1.1,1.1c0,0.6,0.5,1.1,1.1,1.1
							c0.6,0,1.1-0.5,1.1-1.1C40.3,50.1,39.8,49.6,39.1,49.6z M39.1,51.8c-0.6,0-1-0.5-1-1s0.5-1,1-1c0.6,0,1,0.5,1,1
							S39.7,51.8,39.1,51.8z M39.1,49.6c-0.6,0-1.1,0.5-1.1,1.1c0,0.6,0.5,1.1,1.1,1.1c0.6,0,1.1-0.5,1.1-1.1
							C40.3,50.1,39.8,49.6,39.1,49.6z M39.1,51.8c-0.6,0-1-0.5-1-1s0.5-1,1-1c0.6,0,1,0.5,1,1S39.7,51.8,39.1,51.8z M39.1,49.6
							c-0.6,0-1.1,0.5-1.1,1.1c0,0.6,0.5,1.1,1.1,1.1c0.6,0,1.1-0.5,1.1-1.1C40.3,50.1,39.8,49.6,39.1,49.6z M39.1,51.8
							c-0.6,0-1-0.5-1-1s0.5-1,1-1c0.6,0,1,0.5,1,1S39.7,51.8,39.1,51.8z M39.1,49.6c-0.6,0-1.1,0.5-1.1,1.1c0,0.6,0.5,1.1,1.1,1.1
							c0.6,0,1.1-0.5,1.1-1.1C40.3,50.1,39.8,49.6,39.1,49.6z M39.1,51.8c-0.6,0-1-0.5-1-1s0.5-1,1-1c0.6,0,1,0.5,1,1
							S39.7,51.8,39.1,51.8z"/>
					</g>
					<g>
						<path class="st0" d="M39.9,49.1C39.7,49,39.4,49,39.1,49c-0.3,0-0.5,0.1-0.8,0.2c-0.6,0.3-1,0.9-1,1.6c0,0.8,0.5,1.4,1.2,1.7
							c0.2,0.1,0.4,0.1,0.5,0.1c0.2,0,0.4,0,0.5-0.1c0.7-0.2,1.2-0.9,1.2-1.7C40.9,50,40.5,49.4,39.9,49.1z M39.9,50.7
							c0,0.4-0.4,0.8-0.8,0.8c-0.4,0-0.8-0.4-0.8-0.8c0-0.4,0.4-0.8,0.8-0.8C39.6,49.9,39.9,50.3,39.9,50.7z"/>
					</g>
				</g>
			</g>
		</g>
		<g>
			<g>
				<g>
					<g>
						<path class="st0" d="M47.1,49.3c-0.8,0-1.5,0.7-1.5,1.5c0,0.8,0.7,1.5,1.5,1.5c0.8,0,1.5-0.7,1.5-1.5
							C48.6,49.9,47.9,49.3,47.1,49.3z M47.1,51.8c-0.6,0-1.1-0.5-1.1-1.1c0-0.6,0.5-1.1,1.1-1.1c0.6,0,1.1,0.5,1.1,1.1
							C48.2,51.3,47.7,51.8,47.1,51.8z"/>
					</g>
					<g>
						<path class="st0" d="M47.7,49.1c-0.2-0.1-0.4-0.1-0.6-0.1c-0.2,0-0.4,0-0.6,0.1c-0.6,0.3-1.1,0.9-1.1,1.6
							c0,0.9,0.8,1.7,1.7,1.7c0.9,0,1.7-0.8,1.7-1.7C48.8,50,48.4,49.4,47.7,49.1z M47.1,51.6c-0.5,0-0.9-0.4-0.9-0.9
							s0.4-0.9,0.9-0.9s0.9,0.4,0.9,0.9S47.6,51.6,47.1,51.6z"/>
					</g>
				</g>
				<g>
					<g>
						<path class="st0" d="M47.1,49.6c-0.6,0-1.1,0.5-1.1,1.1c0,0.6,0.5,1.1,1.1,1.1c0.6,0,1.1-0.5,1.1-1.1
							C48.2,50.1,47.7,49.6,47.1,49.6z M47.1,51.8c-0.6,0-1-0.5-1-1s0.5-1,1-1s1,0.5,1,1S47.7,51.8,47.1,51.8z M47.1,49.6
							c-0.6,0-1.1,0.5-1.1,1.1c0,0.6,0.5,1.1,1.1,1.1c0.6,0,1.1-0.5,1.1-1.1C48.2,50.1,47.7,49.6,47.1,49.6z M47.1,51.8
							c-0.6,0-1-0.5-1-1s0.5-1,1-1s1,0.5,1,1S47.7,51.8,47.1,51.8z M47.1,49.6c-0.6,0-1.1,0.5-1.1,1.1c0,0.6,0.5,1.1,1.1,1.1
							c0.6,0,1.1-0.5,1.1-1.1C48.2,50.1,47.7,49.6,47.1,49.6z M47.1,51.8c-0.6,0-1-0.5-1-1s0.5-1,1-1s1,0.5,1,1S47.7,51.8,47.1,51.8
							z M47.1,49.6c-0.6,0-1.1,0.5-1.1,1.1c0,0.6,0.5,1.1,1.1,1.1c0.6,0,1.1-0.5,1.1-1.1C48.2,50.1,47.7,49.6,47.1,49.6z M47.1,51.8
							c-0.6,0-1-0.5-1-1s0.5-1,1-1s1,0.5,1,1S47.7,51.8,47.1,51.8z M47.1,49.2c-0.9,0-1.5,0.7-1.5,1.5c0,0.8,0.7,1.5,1.5,1.5
							c0.8,0,1.5-0.7,1.5-1.5C48.6,49.9,48,49.2,47.1,49.2z M47.1,52.2c-0.8,0-1.4-0.6-1.4-1.4c0-0.8,0.6-1.4,1.4-1.4
							c0.8,0,1.4,0.6,1.4,1.4C48.6,51.5,47.9,52.2,47.1,52.2z M47.1,49.6c-0.6,0-1.1,0.5-1.1,1.1c0,0.6,0.5,1.1,1.1,1.1
							c0.6,0,1.1-0.5,1.1-1.1C48.2,50.1,47.7,49.6,47.1,49.6z M47.1,51.8c-0.6,0-1-0.5-1-1s0.5-1,1-1s1,0.5,1,1S47.7,51.8,47.1,51.8
							z M47.1,49.6c-0.6,0-1.1,0.5-1.1,1.1c0,0.6,0.5,1.1,1.1,1.1c0.6,0,1.1-0.5,1.1-1.1C48.2,50.1,47.7,49.6,47.1,49.6z M47.1,51.8
							c-0.6,0-1-0.5-1-1s0.5-1,1-1s1,0.5,1,1S47.7,51.8,47.1,51.8z M47.1,49.6c-0.6,0-1.1,0.5-1.1,1.1c0,0.6,0.5,1.1,1.1,1.1
							c0.6,0,1.1-0.5,1.1-1.1C48.2,50.1,47.7,49.6,47.1,49.6z M47.1,51.8c-0.6,0-1-0.5-1-1s0.5-1,1-1s1,0.5,1,1S47.7,51.8,47.1,51.8
							z M47.1,49.6c-0.6,0-1.1,0.5-1.1,1.1c0,0.6,0.5,1.1,1.1,1.1c0.6,0,1.1-0.5,1.1-1.1C48.2,50.1,47.7,49.6,47.1,49.6z M47.1,51.8
							c-0.6,0-1-0.5-1-1s0.5-1,1-1s1,0.5,1,1S47.7,51.8,47.1,51.8z M47.1,49.6c-0.6,0-1.1,0.5-1.1,1.1c0,0.6,0.5,1.1,1.1,1.1
							c0.6,0,1.1-0.5,1.1-1.1C48.2,50.1,47.7,49.6,47.1,49.6z M47.1,51.8c-0.6,0-1-0.5-1-1s0.5-1,1-1s1,0.5,1,1S47.7,51.8,47.1,51.8
							z"/>
					</g>
					<g>
						<path class="st0" d="M47.9,49.1C47.6,49,47.4,49,47.1,49c-0.3,0-0.5,0.1-0.8,0.2c-0.6,0.3-1,0.9-1,1.6c0,1,0.8,1.8,1.8,1.8
							c1,0,1.8-0.8,1.8-1.8C48.9,50,48.5,49.4,47.9,49.1z M47.1,51.5c-0.4,0-0.8-0.4-0.8-0.8c0-0.4,0.4-0.8,0.8-0.8
							c0.4,0,0.8,0.4,0.8,0.8C47.9,51.2,47.6,51.5,47.1,51.5z"/>
					</g>
				</g>
			</g>
		</g>
	</g>
	<g>
		<g>
			<path class="st0" d="M45.2,33.6V11c0-1.8-1.4-3.2-3.2-3.2H17.8c-1.8,0-3.2,1.4-3.2,3.2v42.5c0,1.8,1.4,3.2,3.2,3.2H42
				c1.8,0,3.2-1.4,3.2-3.2v-1.1h-2.5v1.1c0,0.4-0.3,0.8-0.7,0.8H17.8c-0.4,0-0.7-0.3-0.7-0.8V11c0-0.4,0.3-0.8,0.7-0.8H42
				c0.4,0,0.7,0.3,0.7,0.8v22.6H45.2z"/>
		</g>
	</g>
	<g>
		<g>
			<path class="st0" d="M29.9,48.5c-1.1,0-2,0.9-2,2c0,1.1,0.9,2,2,2c1.1,0,2-0.9,2-2C31.8,49.4,30.9,48.5,29.9,48.5z M29.9,52
				c-0.8,0-1.5-0.7-1.5-1.5c0-0.8,0.7-1.5,1.5-1.5c0.8,0,1.5,0.7,1.5,1.5C31.4,51.3,30.7,52,29.9,52z"/>
		</g>
	</g>
	<g>
		<rect x="16.4" y="14.1" class="st0" width="26.9" height="0.5"/>
	</g>
	<g>
		<path class="st0" d="M33.7,12.1H26c-0.1,0-0.2-0.1-0.2-0.2s0.1-0.2,0.2-0.2h7.7c0.1,0,0.2,0.1,0.2,0.2S33.9,12.1,33.7,12.1z"/>
	</g>
	<g>
		<path class="st0" d="M29.5,35.7h-7.9c-0.2,0-0.3-0.1-0.3-0.3c0-0.2,0.1-0.3,0.3-0.3h7.9c0.2,0,0.3,0.1,0.3,0.3
			C29.8,35.6,29.7,35.7,29.5,35.7z"/>
	</g>
	<g>
		<path class="st0" d="M30.3,37.9h-4.2c-0.2,0-0.3-0.1-0.3-0.3c0-0.2,0.1-0.3,0.3-0.3h4.2c0.2,0,0.3,0.1,0.3,0.3
			C30.6,37.7,30.4,37.9,30.3,37.9z"/>
	</g>
	<g>
		<path class="st0" d="M24.8,37.9h-1.6c-0.2,0-0.3-0.1-0.3-0.3c0-0.2,0.1-0.3,0.3-0.3h1.6c0.2,0,0.3,0.1,0.3,0.3
			C25.1,37.7,25,37.9,24.8,37.9z"/>
	</g>
	<g>
		<path class="st0" d="M30.7,40.6H19.8c-0.2,0-0.3-0.1-0.3-0.3s0.1-0.3,0.3-0.3h10.9c0.2,0,0.3,0.1,0.3,0.3S30.8,40.6,30.7,40.6z"/>
	</g>
	<g>
		<path class="st0" d="M29.9,43.1h-3.2c-0.2,0-0.3-0.1-0.3-0.3c0-0.2,0.1-0.3,0.3-0.3h3.2c0.2,0,0.3,0.1,0.3,0.3
			C30.1,42.9,30,43.1,29.9,43.1z"/>
	</g>
</g>
</svg>
