<?xml version="1.0" encoding="utf-8"?>
<!-- Generator: Adobe Illustrator 24.3.0, SVG Export Plug-In . SVG Version: 6.00 Build 0)  -->
<svg version="1.1" id="Layer_1" xmlns="http://www.w3.org/2000/svg" xmlns:xlink="http://www.w3.org/1999/xlink" x="0px" y="0px"
	 viewBox="0 0 62 65.6" style="enable-background:new 0 0 62 65.6;" xml:space="preserve">
<style type="text/css">
	.st0{fill:#E20613;}
</style>
<g>
	<g>
		<path class="st0" d="M31.5,57.3C18,57.3,7,46.3,7,32.8C7,19.3,18,8.3,31.5,8.3C45,8.3,56,19.3,56,32.8C56,46.3,45,57.3,31.5,57.3z
			 M31.5,10.7c-12.2,0-22.1,9.9-22.1,22.1c0,12.2,9.9,22.1,22.1,22.1c12.2,0,22.1-9.9,22.1-22.1C53.6,20.6,43.7,10.7,31.5,10.7z"/>
	</g>
	<g>
		<path class="st0" d="M38.3,39.4c-1.2,1.1-2.9,1.8-5.1,2.1v3.3h-2.9v-3.2c-1.4-0.1-2.8-0.3-4.1-0.8c-1.3-0.4-2.4-1-3.2-1.6l1.6-3.6
			c0.7,0.5,1.6,1,2.6,1.4c1,0.4,2,0.6,3.1,0.7v-4.9c-1.4-0.3-2.6-0.7-3.5-1.1c-1-0.4-1.8-1-2.4-1.8c-0.6-0.8-1-1.8-1-3.1
			c0-1.6,0.6-3,1.8-4.2c1.2-1.2,2.9-1.9,5.1-2.1v-3.2h2.9v3.2c2.4,0.2,4.4,0.8,5.9,1.8l-1.5,3.6c-1.5-0.8-3-1.3-4.5-1.5v5
			c1.4,0.3,2.5,0.7,3.5,1.1c0.9,0.4,1.7,1,2.4,1.8c0.6,0.8,1,1.8,1,3.1C40,36.9,39.4,38.3,38.3,39.4z M28.7,27.8
			c0.4,0.3,0.9,0.6,1.6,0.8v-4.2c-0.7,0.2-1.3,0.5-1.6,0.8c-0.4,0.4-0.5,0.8-0.5,1.3C28.1,27.1,28.3,27.5,28.7,27.8z M34.8,36.9
			c0.4-0.4,0.5-0.8,0.5-1.3c0-0.5-0.2-0.9-0.5-1.2c-0.4-0.3-0.9-0.6-1.6-0.8v4C33.9,37.5,34.4,37.3,34.8,36.9z"/>
	</g>
</g>
</svg>
