<?xml version="1.0" encoding="utf-8"?>
<!-- Generator: Adobe Illustrator 24.3.0, SVG Export Plug-In . SVG Version: 6.00 Build 0)  -->
<svg version="1.1" id="Layer_1" xmlns="http://www.w3.org/2000/svg" xmlns:xlink="http://www.w3.org/1999/xlink" x="0px" y="0px"
	 viewBox="0 0 62 65.6" style="enable-background:new 0 0 62 65.6;" xml:space="preserve">
<style type="text/css">
	.st0{fill:#E20613;}
</style>
<g>
	<g>
		<g>
			<path class="st0" d="M24.2,36.9h-0.7c-9,0-16.3-7.3-16.3-16.3v-9.5c0-1.5,1.3-2.8,2.8-2.8h27.7c1.5,0,2.8,1.3,2.8,2.8v9.5
				C40.4,29.6,33.1,36.9,24.2,36.9z M9.9,10.7c-0.2,0-0.4,0.2-0.4,0.4v9.5c0,7.6,6.2,13.9,13.9,13.9h0.7c7.6,0,13.9-6.2,13.9-13.9
				v-9.5c0-0.2-0.2-0.4-0.4-0.4H9.9z"/>
		</g>
		<g>
			<rect x="22.6" y="38.1" class="st0" width="2.4" height="13.7"/>
		</g>
		<g>
			<path class="st0" d="M35,57c-0.2,0-0.5-0.1-0.7-0.2c-11.6-7.8-20.8-0.2-20.9-0.1c-0.5,0.4-1.3,0.4-1.7-0.1
				c-0.4-0.5-0.4-1.3,0.1-1.7c0.1-0.1,10.8-8.9,23.8-0.1c0.6,0.4,0.7,1.1,0.3,1.7C35.8,56.8,35.4,57,35,57z"/>
		</g>
	</g>
	<g>
		<g>
			<path class="st0" d="M44.7,30.1c-0.7,0-1.2-0.5-1.2-1.2V14.8c0-0.7,0.5-1.2,1.2-1.2c0.7,0,1.2,0.5,1.2,1.2v14.1
				C45.9,29.5,45.3,30.1,44.7,30.1z"/>
		</g>
		<g>
			<path class="st0" d="M49.7,30.1c-0.7,0-1.2-0.5-1.2-1.2V14.8c0-0.7,0.5-1.2,1.2-1.2c0.7,0,1.2,0.5,1.2,1.2v14.1
				C50.9,29.5,50.3,30.1,49.7,30.1z"/>
		</g>
		<g>
			<path class="st0" d="M49.7,57.3c-0.7,0-1.2-0.5-1.2-1.2V34.5h1.2c2.1,0,3.8-1.7,3.8-3.8V14.8c0-0.7,0.5-1.2,1.2-1.2
				c0.7,0,1.2,0.5,1.2,1.2v15.9c0,3-2.1,5.5-5,6.1v19.2C50.9,56.7,50.3,57.3,49.7,57.3z"/>
		</g>
	</g>
</g>
</svg>
