<?xml version="1.0" encoding="utf-8"?>
<!-- Generator: Adobe Illustrator 24.3.0, SVG Export Plug-In . SVG Version: 6.00 Build 0)  -->
<svg version="1.1" id="Layer_1" xmlns="http://www.w3.org/2000/svg" xmlns:xlink="http://www.w3.org/1999/xlink" x="0px" y="0px"
	 viewBox="0 0 62 65.6" style="enable-background:new 0 0 62 65.6;" xml:space="preserve">
<style type="text/css">
	.st0{fill:#E4262A;}
</style>
<g>
	<g>
		<path class="st0" d="M55.2,25.7H7.4v-7.6l23.9-9.8l23.8,9.8V25.7z M9.9,23.3h42.9v-3.6L31.3,11L9.9,19.7V23.3z"/>
	</g>
	<g>
		<path class="st0" d="M23.1,27.4H12.9v-2.9h10.2V27.4z M13.8,26.6h8.6v-1.3h-8.6V26.6z"/>
	</g>
	<g>
		<path class="st0" d="M53.2,52.6h-43v-5.9h43V52.6z M12.6,50.1h38.1v-1.1H12.6V50.1z"/>
	</g>
	<g>
		<path class="st0" d="M56.4,57H6.2v-5.9h50.2V57z M9.4,54.6H54v-1.1H9.4V54.6z"/>
	</g>
	<g>
		<path class="st0" d="M21.6,49.1h-7.1V26.8h7.1V49.1z M16.9,46.7h2.3V29.2h-2.3V46.7z"/>
	</g>
	<g>
		<path class="st0" d="M21.6,49.1h-7.1V26.8h7.1V49.1z M16.9,46.7h2.3V29.2h-2.3V46.7z"/>
	</g>
	<g>
		<path class="st0" d="M34.9,49.1h-7.1V27.3h7.1V49.1z M30.2,46.7h2.3v-17h-2.3V46.7z"/>
	</g>
	<g>
		<path class="st0" d="M48.2,49.1H41V27.3h7.1V49.1z M43.5,46.7h2.3v-17h-2.3V46.7z"/>
	</g>
	<g>
		<path class="st0" d="M36.4,27.4H26.2v-2.9h10.2V27.4z M27,26.6h8.6v-1.3H27V26.6z"/>
	</g>
	<g>
		<path class="st0" d="M49.7,27.4H39.5v-2.9h10.2V27.4z M40.3,26.6h8.6v-1.3h-8.6V26.6z"/>
	</g>
	<g>
		<path class="st0" d="M30.6,22.4c-2.9,0-5.2-2.3-5.2-5.2s2.3-5.2,5.2-5.2c2.9,0,5.2,2.3,5.2,5.2S33.5,22.4,30.6,22.4z M30.6,14.5
			c-1.5,0-2.8,1.2-2.8,2.8s1.2,2.8,2.8,2.8s2.8-1.2,2.8-2.8S32.1,14.5,30.6,14.5z"/>
	</g>
</g>
</svg>
