<?xml version="1.0" encoding="utf-8"?>
<!-- Generator: Adobe Illustrator 24.3.0, SVG Export Plug-In . SVG Version: 6.00 Build 0)  -->
<svg version="1.1" id="Layer_1" xmlns="http://www.w3.org/2000/svg" xmlns:xlink="http://www.w3.org/1999/xlink" x="0px" y="0px"
	 viewBox="0 0 62 65.6" style="enable-background:new 0 0 62 65.6;" xml:space="preserve">
<style type="text/css">
	.st0{fill:#1D1D1B;}
	.st1{fill:#E20613;}
</style>
<g>
	<path class="st0" d="M28.4,35.7L26,34.9c-3.2-2.9-7.8-3.7-10.8-3.9c0,0,0,0,0,0l-3.3-1.2C11.9,29.8,23.2,28.6,28.4,35.7z"/>
	<path class="st0" d="M28.4,35.7l3.4,1.2h-2.6C28.9,36.5,28.7,36.1,28.4,35.7z"/>
	<path class="st0" d="M41.6,40.5l-0.1,0L40.3,40c-0.2-0.6-0.6-1-1.3-1.4c-0.6-0.3-1.3-0.5-2-0.5h-1.9l-3.4-1.2H37
		c0.9,0,1.8,0.2,2.6,0.6c0.9,0.5,1.8,1.3,2,2.8C41.6,40.4,41.6,40.4,41.6,40.5z"/>
	<path class="st1" d="M42.8,40.3c0.1,0.7-0.4,1.3-1.1,1.3c0,0-0.1,0-0.1,0c-0.6,0-1.1-0.5-1.2-1.1c0,0,0-0.1,0-0.1
		c0-0.2-0.1-0.3-0.1-0.5c-0.2-0.6-0.6-1-1.3-1.4c-0.6-0.3-1.3-0.5-2-0.5h-8.5l-0.3-0.6c-0.6-1-1.3-1.9-2.1-2.7
		c-3.2-2.9-7.8-3.7-10.8-3.9c0,0,0,0,0,0c-1.8-0.1-3.1,0-3.2,0c-0.1,0-0.2,0-0.3,0c-0.5-0.1-1-0.5-1-1.1c-0.1-0.6,0.4-1.2,1-1.3
		c0,0,0,0,0.1,0c0.5-0.1,12.8-1.2,18.1,7.1H37c1.1,0,2.2,0.3,3.2,0.8c1.4,0.8,2.3,1.9,2.6,3.3C42.8,40,42.8,40.2,42.8,40.3z"/>
</g>
<g>
	<g>
		<path class="st1" d="M36.2,3.5h-4.3c-1.2,0-2.3,1-2.3,2.3V14h2.2V5.7c0,0,0-0.1,0.1-0.1h4.3c0,0,0.1,0,0.1,0.1V14h2.2V5.7
			C38.4,4.5,37.4,3.5,36.2,3.5z"/>
	</g>
	<g>
		<path class="st1" d="M36.2,18.4v8.3c0,0,0,0.1-0.1,0.1h-4.3c0,0-0.1,0-0.1-0.1v-8.3h-2.2v8.3c0,1.2,1,2.3,2.3,2.3h4.3
			c1.2,0,2.3-1,2.3-2.3v-8.3H36.2z"/>
	</g>
	<g>
		<path class="st1" d="M23.5,14h8.3v-2.2h-8.3c-1.2,0-2.3,1-2.3,2.3v4.3c0,1.2,1,2.3,2.3,2.3h8.3v-2.2h-8.3c0,0-0.1,0-0.1-0.1
			L23.5,14C23.5,14.1,23.5,14,23.5,14z"/>
	</g>
	<g>
		<path class="st1" d="M44.6,11.8h-8.3V14h8.3c0,0,0.1,0,0.1,0.1v4.3c0,0,0,0.1-0.1,0.1h-8.3v2.2h8.3c1.2,0,2.3-1,2.3-2.3v-4.3
			C46.8,12.9,45.8,11.8,44.6,11.8z"/>
	</g>
</g>
<g>
	<path class="st1" d="M59.3,36.2c-1.2-2-3.7-2.8-5.8-1.7l-12.1,6H24.3c-0.7,0-1.2,0.5-1.2,1.2c0,0.7,0.5,1.2,1.2,1.2h17.7l12.6-6.3
		c1-0.5,2.1-0.1,2.7,0.8c0.3,0.5,0.4,1,0.2,1.6c-0.1,0.5-0.5,1-1,1.2L32.5,53l-19.5-6.8V27.4c0-2.2-1.8-3.9-3.9-3.9H6.1
		c-2.2,0-3.9,1.8-3.9,3.9v21.4c0,2.2,1.8,3.9,3.9,3.9h3.1c2.2,0,3.9-1.8,3.9-3.9v0l19.7,6.8l24.8-13.3c1.1-0.6,1.8-1.5,2.2-2.7
		C60,38.5,59.9,37.2,59.3,36.2z M10.7,48.8c0,0.9-0.7,1.6-1.6,1.6H6.1c-0.9,0-1.6-0.7-1.6-1.6V27.4c0-0.9,0.7-1.6,1.6-1.6h3.1
		c0.9,0,1.6,0.7,1.6,1.6V48.8z"/>
</g>
</svg>
