<?xml version="1.0" encoding="utf-8"?>
<!-- Generator: Adobe Illustrator 24.3.0, SVG Export Plug-In . SVG Version: 6.00 Build 0)  -->
<svg version="1.1" id="Layer_1" xmlns="http://www.w3.org/2000/svg" xmlns:xlink="http://www.w3.org/1999/xlink" x="0px" y="0px"
	 viewBox="0 0 62 65.6" style="enable-background:new 0 0 62 65.6;" xml:space="preserve">
<style type="text/css">
	.st0{fill:#E20613;}
	.st1{fill:none;}
</style>
<g>
	<g>
		<path class="st0" d="M31,18.5C16.9,18.5,5.4,30.9,5.4,46v0.8h51.1V46C56.5,30.9,45.1,18.5,31,18.5z M7,45.2c0.4-13.9,11-25,24-25
			s23.6,11.2,24,25H7z"/>
	</g>
	<g>
		<path class="st0" d="M31,23.5c-0.2,0-0.3,0-0.4,0v1.2c0.1,0,0.3,0,0.4,0c7.8,0,14.5,5.2,17,12.3l1.1-0.3
			C46.6,29,39.4,23.5,31,23.5z"/>
	</g>
	<g>
		<path class="st0" d="M58.3,49.3H3.7c-0.4,0-0.8-0.4-0.8-0.8s0.3-0.8,0.8-0.8h54.5c0.4,0,0.8,0.4,0.8,0.8S58.7,49.3,58.3,49.3z"/>
	</g>
	<g>
		<path class="st0" d="M32.4,19.5c-0.4,0-0.8-0.4-0.8-0.8c0-0.4-0.3-0.7-0.7-0.7c-0.4,0-0.7,0.3-0.7,0.7c0,0.5-0.3,0.8-0.8,0.8
			c-0.4,0-0.8-0.4-0.8-0.8c0-1.3,1-2.4,2.2-2.4s2.2,1.1,2.2,2.4C33.2,19.1,32.9,19.5,32.4,19.5z"/>
	</g>
	<line class="st1" x1="49.2" y1="36.7" x2="48.1" y2="37"/>
</g>
</svg>
