<?xml version="1.0" encoding="utf-8"?>
<!-- Generator: Adobe Illustrator 24.3.0, SVG Export Plug-In . SVG Version: 6.00 Build 0)  -->
<svg version="1.1" id="Layer_1" xmlns="http://www.w3.org/2000/svg" xmlns:xlink="http://www.w3.org/1999/xlink" x="0px" y="0px"
	 viewBox="0 0 62 65.6" style="enable-background:new 0 0 62 65.6;" xml:space="preserve">
<style type="text/css">
	.st0{fill:#E20613;}
</style>
<g>
	<path class="st0" d="M17.5,23.2c-3.9,0-7.3,2.5-8.5,6c-0.3,0.9-0.5,2-0.5,3c0,1.1,0.2,2.1,0.5,3c0.9,2.5,2.8,4.5,5.3,5.4
		c1,0.4,2.1,0.6,3.3,0.6H23V23.2H17.5z M9.9,32.3c0-4.2,3.4-7.6,7.6-7.6h4.1v15.2h-4.1C13.3,39.9,9.9,36.5,9.9,32.3z"/>
</g>
<g>
	<path class="st0" d="M17.5,23.2c-3.9,0-7.3,2.5-8.5,6c-0.3,0.9-0.5,2-0.5,3c0,1.1,0.2,2.1,0.5,3c0.9,2.5,2.8,4.5,5.3,5.4
		c1,0.4,2.1,0.6,3.3,0.6H23V23.2H17.5z M9.9,32.3c0-4.2,3.4-7.6,7.6-7.6h4.1v15.2h-4.1C13.3,39.9,9.9,36.5,9.9,32.3z"/>
</g>
<g>
	<path class="st0" d="M7.9,29.3c-1.7,0-3,1.4-3,3c0,1.7,1.4,3,3,3h2.1v-6.1H7.9z M8.5,33.8H7.9c-0.9,0-1.6-0.7-1.6-1.6
		c0-0.9,0.7-1.6,1.6-1.6h0.6V33.8z"/>
</g>
<g>
	<path class="st0" d="M22.2,23.2l-0.6,0.2v17.8l0.7,0.2L45,46.7V17.3L22.2,23.2z M43.5,44.9L23,40V24.6l20.5-5.4V44.9z"/>
</g>
<g>
	<path class="st0" d="M50.4,15h-2.6c-1.3,0-2.3,1-2.3,2.3v30.1c0,1.3,1,2.3,2.3,2.3h2.6c1.3,0,2.3-1,2.3-2.3V17.4
		C52.8,16.1,51.7,15,50.4,15z M51.3,47.5c0,0.5-0.4,0.9-0.9,0.9h-2.6c-0.5,0-0.9-0.4-0.9-0.9V17.4c0-0.5,0.4-0.9,0.9-0.9h2.6
		c0.5,0,0.9,0.4,0.9,0.9V47.5z"/>
</g>
<g>
	<path class="st0" d="M57.2,32.8c0,3.1-1.8,5.9-4.4,7.2c-0.5,0.2-1,0.4-1.5,0.6V39c0.5-0.2,1-0.4,1.5-0.8c1.8-1.2,2.9-3.2,2.9-5.5
		c0-2.3-1.2-4.3-2.9-5.5c-0.5-0.3-0.9-0.6-1.5-0.8V25c0.5,0.1,1,0.3,1.5,0.6C55.4,26.9,57.2,29.6,57.2,32.8z"/>
</g>
<g>
	<path class="st0" d="M21.6,40.5l-7-0.6l-0.4,0.9L10,50.9c-0.4,1.1-0.3,2.3,0.3,3.2c0.6,1,1.7,1.5,2.9,1.5c1.4,0,2.7-0.9,3.2-2.2
		l4.8-12.2L21.6,40.5L21.6,40.5L21.6,40.5z M15.1,53c-0.3,0.8-1,1.3-1.8,1.3c-0.7,0-1.3-0.3-1.6-0.9c-0.4-0.6-0.4-1.2-0.2-1.9
		l4.2-10.1l3.9,0.4L15.1,53z"/>
</g>
</svg>
