<?xml version="1.0" encoding="utf-8"?>
<!-- Generator: Adobe Illustrator 24.3.0, SVG Export Plug-In . SVG Version: 6.00 Build 0)  -->
<svg version="1.1" id="Layer_1" xmlns="http://www.w3.org/2000/svg" xmlns:xlink="http://www.w3.org/1999/xlink" x="0px" y="0px"
	 viewBox="0 0 62 65.6" style="enable-background:new 0 0 62 65.6;" xml:space="preserve">
<style type="text/css">
	.st0{fill:#E4262A;stroke:#E4262A;stroke-width:0.55;stroke-miterlimit:10;}
</style>
<g>
	<g>
		<path class="st0" d="M9.1,55.4H1V7h33.4v8.3c0,0.5-0.4,0.8-0.8,0.8s-0.8-0.4-0.8-0.8V8.7H2.7v45.1h6.5c0.5,0,0.8,0.4,0.8,0.8
			C10,55.1,9.6,55.4,9.1,55.4z"/>
	</g>
	<g>
		<path class="st0" d="M28.9,12.8H5.3c-0.5,0-0.8-0.4-0.8-0.8c0-0.5,0.4-0.8,0.8-0.8h23.6c0.5,0,0.8,0.4,0.8,0.8
			C29.7,12.4,29.4,12.8,28.9,12.8z"/>
	</g>
	<g>
		<path class="st0" d="M20.4,19.1H5.3c-0.5,0-0.8-0.4-0.8-0.8c0-0.5,0.4-0.8,0.8-0.8h15.2c0.5,0,0.8,0.4,0.8,0.8
			C21.2,18.8,20.9,19.1,20.4,19.1z"/>
	</g>
	<g>
		<path class="st0" d="M13,25.2H5.3c-0.5,0-0.8-0.4-0.8-0.8s0.4-0.8,0.8-0.8H13c0.5,0,0.8,0.4,0.8,0.8S13.5,25.2,13,25.2z"/>
	</g>
	<g>
		<path class="st0" d="M8.8,32.1H5.3c-0.5,0-0.8-0.4-0.8-0.8c0-0.5,0.4-0.8,0.8-0.8h3.6c0.5,0,0.8,0.4,0.8,0.8
			C9.7,31.7,9.3,32.1,8.8,32.1z"/>
	</g>
	<g>
		<path class="st0" d="M8.8,37.8H5.3c-0.5,0-0.8-0.4-0.8-0.8s0.4-0.8,0.8-0.8h3.6c0.5,0,0.8,0.4,0.8,0.8S9.3,37.8,8.8,37.8z"/>
	</g>
	<g>
		<path class="st0" d="M9.1,44.6H5.3c-0.5,0-0.8-0.4-0.8-0.8c0-0.5,0.4-0.8,0.8-0.8h3.9c0.5,0,0.8,0.4,0.8,0.8
			C10,44.2,9.6,44.6,9.1,44.6z"/>
	</g>
	<g>
		<path class="st0" d="M9.3,50.9h-4c-0.5,0-0.8-0.4-0.8-0.8s0.4-0.8,0.8-0.8h4c0.5,0,0.8,0.4,0.8,0.8S9.8,50.9,9.3,50.9z"/>
	</g>
	<g>
		<g>
			<path class="st0" d="M48.1,9.8c-0.5-0.6-1.3-0.9-2.1-0.9c-0.8,0-1.5,0.3-2.1,0.9l-13,13.9V24l1.7,1.7v-1.4L45.1,11
				c0.4-0.5,1.3-0.5,1.7,0l12.6,13.4v29.4h-9.3V39.3c0-1.2-0.9-2.1-2.1-2.1h-4.8c-1.1,0-2.1,0.9-2.1,2.1v14.5h-2.6v1.7h4.3V39.3
				c0-0.2,0.2-0.4,0.4-0.4H48c0.2,0,0.4,0.2,0.4,0.4v16.1h12.7V23.7L48.1,9.8z"/>
		</g>
		<g>
			<path class="st0" d="M30.9,25.7l-4.5-4.5c-0.9-0.9-2.4-1-3.4,0l-10.4,9.7v24.6h7.6V43.6c0-0.5,0.4-0.8,0.8-0.8h5.4
				c0.4,0,0.8,0.4,0.8,0.8v11.8h8.8V30.9L30.9,25.7z M28.9,53.8V43.6c0-1.4-1.1-2.5-2.5-2.5H21c-1.4,0-2.5,1.1-2.5,2.5v10.2h-4.3
				V31.6l9.8-9.3c0.3-0.3,0.8-0.3,1.1,0l5.7,5.7l3.5,3.5v22.2H28.9z"/>
		</g>
	</g>
</g>
</svg>
