<?xml version="1.0" encoding="utf-8"?>
<!-- Generator: Adobe Illustrator 24.3.0, SVG Export Plug-In . SVG Version: 6.00 Build 0)  -->
<svg version="1.1" id="Layer_1" xmlns="http://www.w3.org/2000/svg" xmlns:xlink="http://www.w3.org/1999/xlink" x="0px" y="0px"
	 viewBox="0 0 62 65.6" style="enable-background:new 0 0 62 65.6;" xml:space="preserve">
<style type="text/css">
	.st0{fill:#E4262A;stroke:#E4262A;stroke-width:0.55;stroke-miterlimit:10;}
</style>
<g>
	<g>
		<g>
			<path class="st0" d="M20.5,45.3C20.5,45.3,20.5,45.4,20.5,45.3l-0.1,0.2c-0.1,0-0.1,0-0.2-0.1c-0.1,0-0.1,0-0.2-0.1
				c-0.3-0.2-0.6-0.3-0.8-0.6c0,0-0.1-0.1-0.1-0.1v0c0,0-0.1-0.1-0.1-0.2c0,0,0.1-0.1,0.1-0.1c0.3-0.2,0.7-0.3,1-0.1
				C20.5,44.4,20.7,44.9,20.5,45.3z"/>
			<path class="st0" d="M59.6,26l-1.4,3.9L58,30.4l-0.2,0.5c-0.1,0-0.2,0.1-0.2,0.1l-2.5,6.9c-0.2-0.2-0.4-0.4-0.7-0.4H54l2.3-6.5
				l0.1-0.2l0.1-0.2l0.4-1l0.1-0.2l0.1-0.2l1.4-3.8c0.2-0.6,0.1-1.2-0.2-1.7c-0.3-0.5-0.9-0.8-1.5-0.8H19.9c-0.4,0-0.7-0.3-0.7-0.7
				c0-0.4,0.3-0.7,0.7-0.7h36.7c1,0,2,0.5,2.6,1.4C59.8,23.9,60,25,59.6,26z"/>
			<path class="st0" d="M59.4,22.9c-0.6-0.9-1.7-1.5-2.8-1.5H19.9c-0.5,0-0.9,0.4-0.9,0.9c0,0.5,0.4,0.9,0.9,0.9h36.7
				c0.5,0,1,0.3,1.3,0.7c0.3,0.4,0.4,1,0.2,1.5l-1.4,3.8l-0.1,0.2l-0.1,0.2l-0.4,1l-0.1,0.2L56.1,31l-2.3,6.5l-0.1,0.2h0.2l0.1-0.2
				h0.2l2.3-6.5l0.1-0.2l0.1-0.2l0.4-1l0.1-0.2l0.1-0.2l1.3-3.7c0.2-0.6,0.1-1.3-0.3-1.8c-0.4-0.5-1-0.9-1.6-0.9H19.9
				c-0.3,0-0.5-0.2-0.5-0.5c0-0.3,0.2-0.5,0.5-0.5h36.7c1,0,1.9,0.5,2.5,1.3c0.6,0.8,0.7,1.8,0.4,2.8l-1.3,3.7L58,29.9c0,0,0,0,0,0
				l-0.1,0.4c0,0,0,0.1,0,0.1l-0.2,0.4L57.6,31c0.1,0,0.2-0.1,0.2-0.1l-2.6,7.3c0,0.1,0,0.2,0,0.3c0,0.1,0,0.2-0.1,0.3l3-8.2
				c0,0,0,0,0,0c0,0,0-0.1,0-0.1c0,0,0-0.1,0-0.1l1.6-4.3C60.2,25,60,23.8,59.4,22.9z M20.3,45.3c-0.1,0-0.1,0-0.2-0.1
				c-0.3-0.1-0.6-0.3-0.8-0.6c0,0-0.1-0.1-0.1-0.1l-0.1-0.1c0,0-0.1,0.1-0.1,0.1c0,0,0,0.1-0.1,0.1l0,0.1c0,0.1,0.1,0.1,0.1,0.2
				c0,0,0.1,0.1,0.1,0.1c0.3,0.2,0.5,0.4,0.8,0.6c0.1,0,0.1,0.1,0.2,0.1c0.1,0,0.1,0,0.2,0.1l0.1-0.2l0.1-0.1c0,0,0,0,0-0.1
				C20.4,45.3,20.4,45.3,20.3,45.3z"/>
			<path class="st0" d="M55.2,38.2c0,0.1,0,0.2,0,0.3c0,0.1,0,0.2-0.1,0.3c-0.1,0.2-0.2,0.3-0.3,0.4c-0.1,0-0.2,0.1-0.2,0.1
				c-0.1,0-0.1,0-0.2,0H23.9c-0.5,0-0.9-0.4-0.9-0.9c0-0.5,0.4-0.9,0.9-0.9h29.9l-0.1,0.2h0.2l0.1-0.2h0.4c0.3,0,0.6,0.1,0.7,0.4
				l2.5-6.9c0.1,0,0.2-0.1,0.2-0.1L55.2,38.2z"/>
			<path class="st0" d="M55.2,38.8l-1.7,4.8c-0.5,1.3-1.8,2.3-3.2,2.3H21.5c-0.4,0-0.8-0.1-1.1-0.2l0.1-0.2l0.1-0.1c0,0,0,0,0-0.1
				c0.2-0.4,0-0.9-0.4-1.1c-0.3-0.2-0.7-0.1-1,0.1c0,0-0.1,0.1-0.1,0.1c0,0,0,0.1-0.1,0.1l0,0.1c-0.3-0.3-0.5-0.7-0.6-1.1L9.2,17.7
				c-0.1-0.4-0.5-0.8-0.9-1l-6.4-2.8c-0.4-0.2-0.7-0.7-0.5-1.2c0.1-0.2,0.3-0.4,0.5-0.5c0.2-0.1,0.5-0.1,0.7,0L9,15.1
				c0.9,0.4,1.5,1.1,1.9,2L19.9,43c0.2,0.7,0.8,1.1,1.5,1.1h28.8c0.7,0,1.3-0.4,1.5-1.1l1.3-3.7h1.3c0.1,0,0.2,0,0.2,0
				c0.1,0,0.2-0.1,0.2-0.1C55,39.1,55.1,38.9,55.2,38.8z"/>
		</g>
	</g>
	<g>
		<g>
			<path class="st0" d="M57.4,30.9H21.9c-0.4,0-0.7-0.3-0.7-0.7s0.3-0.7,0.7-0.7h35.5c0.4,0,0.7,0.3,0.7,0.7S57.8,30.9,57.4,30.9z"
				/>
			<path class="st0" d="M58.2,29.9c0-0.1-0.1-0.2-0.1-0.2c-0.2-0.2-0.4-0.4-0.7-0.4H21.9c-0.5,0-0.9,0.4-0.9,0.9
				c0,0.5,0.4,0.9,0.9,0.9h35.5c0.1,0,0.2,0,0.2,0c0.1,0,0.2-0.1,0.2-0.1c0.1-0.1,0.2-0.2,0.3-0.3c0,0,0,0,0,0c0,0,0-0.1,0-0.1
				c0,0,0-0.1,0-0.1c0-0.1,0-0.1,0-0.2C58.3,30.1,58.2,30,58.2,29.9z M57.4,30.7H21.9c-0.3,0-0.5-0.2-0.5-0.5c0-0.3,0.2-0.5,0.5-0.5
				h35.5c0.3,0,0.5,0.2,0.5,0.5c0,0,0,0.1,0,0.1c0,0,0,0.1,0,0.1C57.8,30.5,57.6,30.7,57.4,30.7z"/>
		</g>
	</g>
	<g>
		<g>
			<path class="st0" d="M53.8,37.5l-0.1,0.2h0.2l0.1-0.2H53.8z"/>
		</g>
	</g>
	<g>
		<g>
			<path class="st0" d="M51.3,52.6c0,0.5-0.4,0.9-0.9,0.9H19.8c-1.2,0-2.3-0.6-2.9-1.6c-0.6-1-0.7-2.3-0.1-3.3l2-3.9
				c0,0.1,0.1,0.1,0.1,0.2c0,0,0.1,0.1,0.1,0.1c0.3,0.2,0.5,0.4,0.8,0.6c0.1,0,0.1,0.1,0.2,0.1c0.1,0,0.1,0,0.2,0.1l-1.9,3.7
				c-0.3,0.5-0.2,1.1,0.1,1.6c0.3,0.5,0.8,0.8,1.4,0.8h30.6C50.9,51.8,51.3,52.1,51.3,52.6z"/>
			<path class="st0" d="M20.3,45.3C20.3,45.3,20.3,45.3,20.3,45.3l-0.1,0.2l-0.1,0.2c-0.1,0-0.1,0-0.2-0.1c-0.3-0.2-0.6-0.3-0.8-0.6
				c0,0-0.1-0.1-0.1-0.1l0.1-0.1c0,0,0,0,0,0c0-0.1,0.1-0.1,0.1-0.2c0.2-0.2,0.5-0.2,0.8-0.1C20.3,44.5,20.4,44.9,20.3,45.3z"/>
			<path class="st0" d="M20.1,44.2c-0.3-0.2-0.7-0.1-1,0.1c0,0-0.1,0.1-0.1,0.1c0,0,0,0.1-0.1,0.1l0,0.1c0,0.1,0.1,0.1,0.1,0.2
				c0,0,0.1,0.1,0.1,0.1l0.1-0.2l0,0c0-0.1,0.1-0.1,0.1-0.1c0.1-0.1,0.2-0.1,0.3-0.1c0.1,0,0.2,0,0.2,0.1c0.2,0.1,0.3,0.4,0.2,0.6
				c0,0,0,0,0,0l-0.1,0.1L20,45.5c0.1,0,0.1,0.1,0.2,0.1c0.1,0,0.1,0,0.2,0.1l0.1-0.2l0.1-0.1c0,0,0,0,0-0.1
				C20.7,44.9,20.5,44.4,20.1,44.2z"/>
		</g>
	</g>
	<g>
		<g>
			<path class="st0" d="M25.9,60.9c-1.8,0-3.3-1.5-3.3-3.3s1.5-3.3,3.3-3.3c1.8,0,3.3,1.5,3.3,3.3S27.7,60.9,25.9,60.9z M25.9,55.2
				c-1.3,0-2.4,1.1-2.4,2.4c0,1.3,1.1,2.4,2.4,2.4s2.4-1.1,2.4-2.4C28.3,56.2,27.2,55.2,25.9,55.2z"/>
			<path class="st0" d="M25.9,61c-1.9,0-3.4-1.5-3.4-3.4c0-1.9,1.5-3.4,3.4-3.4s3.4,1.5,3.4,3.4C29.3,59.4,27.8,61,25.9,61z
				 M25.9,54.4c-1.8,0-3.2,1.4-3.2,3.2c0,1.8,1.4,3.2,3.2,3.2c1.8,0,3.2-1.4,3.2-3.2C29.1,55.8,27.7,54.4,25.9,54.4z M25.9,60.1
				c-1.4,0-2.5-1.1-2.5-2.5c0-1.4,1.1-2.5,2.5-2.5c1.4,0,2.5,1.1,2.5,2.5C28.4,59,27.3,60.1,25.9,60.1z M25.9,55.3
				c-1.3,0-2.3,1-2.3,2.3c0,1.3,1,2.3,2.3,2.3c1.3,0,2.3-1,2.3-2.3C28.2,56.3,27.2,55.3,25.9,55.3z"/>
		</g>
	</g>
	<g>
		<g>
			<path class="st0" d="M43.6,60.9c-1.8,0-3.3-1.5-3.3-3.3s1.5-3.3,3.3-3.3c1.8,0,3.3,1.5,3.3,3.3S45.5,60.9,43.6,60.9z M43.6,55.2
				c-1.3,0-2.4,1.1-2.4,2.4c0,1.3,1.1,2.4,2.4,2.4c1.3,0,2.4-1.1,2.4-2.4C46,56.2,45,55.2,43.6,55.2z"/>
			<path class="st0" d="M43.6,61c-1.9,0-3.4-1.5-3.4-3.4c0-1.9,1.5-3.4,3.4-3.4c1.9,0,3.4,1.5,3.4,3.4C47.1,59.4,45.5,61,43.6,61z
				 M43.6,54.4c-1.8,0-3.2,1.4-3.2,3.2c0,1.8,1.4,3.2,3.2,3.2c1.8,0,3.2-1.4,3.2-3.2C46.8,55.8,45.4,54.4,43.6,54.4z M43.6,60.1
				c-1.4,0-2.5-1.1-2.5-2.5c0-1.4,1.1-2.5,2.5-2.5s2.5,1.1,2.5,2.5C46.2,59,45,60.1,43.6,60.1z M43.6,55.3c-1.3,0-2.3,1-2.3,2.3
				c0,1.3,1,2.3,2.3,2.3s2.3-1,2.3-2.3C45.9,56.3,44.9,55.3,43.6,55.3z"/>
		</g>
	</g>
</g>
</svg>
