<?xml version="1.0" encoding="utf-8"?>
<!-- Generator: Adobe Illustrator 24.3.0, SVG Export Plug-In . SVG Version: 6.00 Build 0)  -->
<svg version="1.1" id="Layer_1" xmlns="http://www.w3.org/2000/svg" xmlns:xlink="http://www.w3.org/1999/xlink" x="0px" y="0px"
	 viewBox="0 0 62 65.6" style="enable-background:new 0 0 62 65.6;" xml:space="preserve">
<style type="text/css">
	.st0{fill:#E20613;}
</style>
<g>
	<g>
		<path class="st0" d="M42.6,46.8H22.7c-1.4,0-2.5-1.1-2.5-2.5v-21c0-1.4,1.1-2.5,2.5-2.5h19.9c1.4,0,2.5,1.1,2.5,2.5v21
			C45.1,45.6,44,46.8,42.6,46.8z M22.7,22.4c-0.5,0-0.9,0.4-0.9,0.9v21c0,0.5,0.4,0.9,0.9,0.9h19.9c0.5,0,0.9-0.4,0.9-0.9v-21
			c0-0.5-0.4-0.9-0.9-0.9H22.7z"/>
	</g>
	<g>
		<path class="st0" d="M35.4,29.9h-5.5c-0.6,0-1,0.5-1,1v5.8c0,0.6,0.5,1,1,1h5.5c0.6,0,1-0.5,1-1v-5.8C36.4,30.3,36,29.9,35.4,29.9
			z M35.3,36.7h-5.4V31h5.4V36.7z"/>
		<rect x="29.9" y="31" class="st0" width="5.4" height="5.7"/>
	</g>
	<g>
		<rect x="23.6" y="12.6" class="st0" width="1.6" height="9"/>
	</g>
	<g>
		<path class="st0" d="M24.4,13.4c-2.1,0-3.8-1.7-3.8-3.8s1.7-3.8,3.8-3.8c2.1,0,3.8,1.7,3.8,3.8S26.5,13.4,24.4,13.4z M24.4,7.4
			c-1.2,0-2.2,1-2.2,2.2s1,2.2,2.2,2.2c1.2,0,2.2-1,2.2-2.2S25.6,7.4,24.4,7.4z"/>
	</g>
	<g>
		<rect x="44.3" y="25.8" class="st0" width="9" height="1.6"/>
	</g>
	<g>
		<path class="st0" d="M56.3,30.4c-2.1,0-3.8-1.7-3.8-3.8c0-2.1,1.7-3.8,3.8-3.8c2.1,0,3.8,1.7,3.8,3.8
			C60.1,28.7,58.4,30.4,56.3,30.4z M56.3,24.4c-1.2,0-2.2,1-2.2,2.2c0,1.2,1,2.2,2.2,2.2c1.2,0,2.2-1,2.2-2.2
			C58.5,25.4,57.5,24.4,56.3,24.4z"/>
	</g>
	<g>
		<path class="st0" d="M50.7,56.3c-2.1,0-3.8-1.7-3.8-3.8c0-2.1,1.7-3.8,3.8-3.8c2.1,0,3.8,1.7,3.8,3.8
			C54.5,54.6,52.8,56.3,50.7,56.3z M50.7,50.2c-1.2,0-2.2,1-2.2,2.2c0,1.2,1,2.2,2.2,2.2c1.2,0,2.2-1,2.2-2.2
			C52.9,51.2,51.9,50.2,50.7,50.2z"/>
	</g>
	<g>
		<g>
			<rect x="32.9" y="46.4" class="st0" width="1.6" height="6"/>
		</g>
		<g>
			<rect x="40.7" y="46.4" class="st0" width="1.6" height="6"/>
		</g>
		<g>
			<circle class="st0" cx="33.7" cy="52.6" r="1.7"/>
			<path class="st0" d="M33.7,55.1c-1.4,0-2.5-1.1-2.5-2.5c0-1.4,1.1-2.5,2.5-2.5s2.5,1.1,2.5,2.5C36.2,53.9,35.1,55.1,33.7,55.1z
				 M33.7,51.7c-0.5,0-0.9,0.4-0.9,0.9c0,0.5,0.4,0.9,0.9,0.9s0.9-0.4,0.9-0.9C34.6,52.1,34.2,51.7,33.7,51.7z"/>
		</g>
		<g>
			<circle class="st0" cx="33.7" cy="52.6" r="1.7"/>
			<path class="st0" d="M33.7,55.1c-1.4,0-2.5-1.1-2.5-2.5c0-1.4,1.1-2.5,2.5-2.5s2.5,1.1,2.5,2.5C36.2,53.9,35.1,55.1,33.7,55.1z
				 M33.7,51.7c-0.5,0-0.9,0.4-0.9,0.9c0,0.5,0.4,0.9,0.9,0.9s0.9-0.4,0.9-0.9C34.6,52.1,34.2,51.7,33.7,51.7z"/>
		</g>
		<g>
			<circle class="st0" cx="41.5" cy="52.6" r="1.7"/>
			<path class="st0" d="M41.5,55.1c-1.4,0-2.5-1.1-2.5-2.5c0-1.4,1.1-2.5,2.5-2.5c1.4,0,2.5,1.1,2.5,2.5
				C44,53.9,42.9,55.1,41.5,55.1z M41.5,51.7c-0.5,0-0.9,0.4-0.9,0.9c0,0.5,0.4,0.9,0.9,0.9s0.9-0.4,0.9-0.9
				C42.4,52.1,42,51.7,41.5,51.7z"/>
		</g>
	</g>
	<g>
		<g>
			<rect x="15.1" y="32.3" class="st0" width="6" height="1.6"/>
		</g>
		<g>
			<rect x="15.1" y="40.1" class="st0" width="6" height="1.6"/>
		</g>
		<g>
			<circle class="st0" cx="15" cy="33.1" r="1.7"/>
			<path class="st0" d="M15,35.6c-1.4,0-2.5-1.1-2.5-2.5c0-1.4,1.1-2.5,2.5-2.5s2.5,1.1,2.5,2.5C17.5,34.5,16.4,35.6,15,35.6z
				 M15,32.3c-0.5,0-0.9,0.4-0.9,0.9S14.5,34,15,34c0.5,0,0.9-0.4,0.9-0.9S15.5,32.3,15,32.3z"/>
		</g>
		<g>
			<circle class="st0" cx="15" cy="33.1" r="1.7"/>
			<path class="st0" d="M15,35.6c-1.4,0-2.5-1.1-2.5-2.5c0-1.4,1.1-2.5,2.5-2.5s2.5,1.1,2.5,2.5C17.5,34.5,16.4,35.6,15,35.6z
				 M15,32.3c-0.5,0-0.9,0.4-0.9,0.9S14.5,34,15,34c0.5,0,0.9-0.4,0.9-0.9S15.5,32.3,15,32.3z"/>
		</g>
		<g>
			<circle class="st0" cx="15" cy="40.9" r="1.7"/>
			<path class="st0" d="M15,43.4c-1.4,0-2.5-1.1-2.5-2.5c0-1.4,1.1-2.5,2.5-2.5s2.5,1.1,2.5,2.5C17.5,42.3,16.4,43.4,15,43.4z
				 M15,40c-0.5,0-0.9,0.4-0.9,0.9c0,0.5,0.4,0.9,0.9,0.9c0.5,0,0.9-0.4,0.9-0.9C15.9,40.4,15.5,40,15,40z"/>
		</g>
	</g>
	<g>
		<polygon class="st0" points="51.5,49.4 49.9,49.4 49.9,43.4 44.3,43.4 44.3,41.8 51.5,41.8 		"/>
	</g>
	<g>
		<circle class="st0" cx="50.7" cy="42.8" r="1.4"/>
		<path class="st0" d="M50.7,45c-1.2,0-2.2-1-2.2-2.2c0-1.2,1-2.2,2.2-2.2c1.2,0,2.2,1,2.2,2.2C52.9,44,51.9,45,50.7,45z M50.7,42.3
			c-0.3,0-0.6,0.3-0.6,0.6s0.3,0.6,0.6,0.6c0.3,0,0.6-0.3,0.6-0.6S51,42.3,50.7,42.3z"/>
	</g>
	<g>
		<path class="st0" d="M15.3,56.8c-2.1,0-3.8-1.7-3.8-3.8c0-2.1,1.7-3.8,3.8-3.8c2.1,0,3.8,1.7,3.8,3.8
			C19.2,55.1,17.4,56.8,15.3,56.8z M15.3,50.7c-1.2,0-2.2,1-2.2,2.2c0,1.2,1,2.2,2.2,2.2c1.2,0,2.2-1,2.2-2.2
			C17.5,51.7,16.5,50.7,15.3,50.7z"/>
	</g>
	<g>
		<polygon class="st0" points="26,53.8 18.4,53.8 18.4,52.1 24.4,52.1 24.4,46.5 26,46.5 		"/>
	</g>
	<g>
		<circle class="st0" cx="24.9" cy="53" r="1.4"/>
		<path class="st0" d="M24.9,55.1c-1.2,0-2.2-1-2.2-2.2s1-2.2,2.2-2.2s2.2,1,2.2,2.2S26.2,55.1,24.9,55.1z M24.9,52.4
			c-0.3,0-0.6,0.3-0.6,0.6s0.3,0.6,0.6,0.6s0.6-0.3,0.6-0.6S25.3,52.4,24.9,52.4z"/>
	</g>
	<g>
		<path class="st0" d="M5.7,39.8c-2.1,0-3.8-1.7-3.8-3.8c0-2.1,1.7-3.8,3.8-3.8c2.1,0,3.8,1.7,3.8,3.8C9.5,38.1,7.8,39.8,5.7,39.8z
			 M5.7,33.8c-1.2,0-2.2,1-2.2,2.2c0,1.2,1,2.2,2.2,2.2c1.2,0,2.2-1,2.2-2.2C7.9,34.8,6.9,33.8,5.7,33.8z"/>
	</g>
	<g>
		<polygon class="st0" points="6.5,32.9 4.9,32.9 4.9,25.3 20.2,25.3 20.2,26.9 6.5,26.9 		"/>
	</g>
	<g>
		<circle class="st0" cx="5.7" cy="26.4" r="1.4"/>
		<path class="st0" d="M5.7,28.6c-1.2,0-2.2-1-2.2-2.2c0-1.2,1-2.2,2.2-2.2s2.2,1,2.2,2.2C7.9,27.6,6.9,28.6,5.7,28.6z M5.7,25.8
			c-0.3,0-0.6,0.3-0.6,0.6s0.3,0.6,0.6,0.6c0.3,0,0.6-0.3,0.6-0.6S6,25.8,5.7,25.8z"/>
	</g>
</g>
</svg>
