<?xml version="1.0" encoding="utf-8"?>
<!-- Generator: Adobe Illustrator 24.3.0, SVG Export Plug-In . SVG Version: 6.00 Build 0)  -->
<svg version="1.1" id="Layer_1" xmlns="http://www.w3.org/2000/svg" xmlns:xlink="http://www.w3.org/1999/xlink" x="0px" y="0px"
	 viewBox="0 0 62 65.6" style="enable-background:new 0 0 62 65.6;" xml:space="preserve">
<style type="text/css">
	.st0{fill:none;}
	.st1{fill:#E20613;}
</style>
<g>
	<g>
		<path class="st1" d="M21.3,62.8c-0.8,0-1.5-0.7-1.5-1.5V19.8c0-0.8,0.7-1.5,1.5-1.5s1.5,0.7,1.5,1.5v41.5
			C22.8,62.1,22.1,62.8,21.3,62.8z"/>
	</g>
	<g>
		<path class="st1" d="M31,62.8c-0.8,0-1.5-0.7-1.5-1.5V33.1c0-0.8,0.7-1.5,1.5-1.5s1.5,0.7,1.5,1.5v28.2
			C32.5,62.1,31.8,62.8,31,62.8z"/>
	</g>
	<g>
		<path class="st1" d="M11.5,62.8c-0.8,0-1.5-0.7-1.5-1.5V33.1c0-0.8,0.7-1.5,1.5-1.5s1.5,0.7,1.5,1.5v28.2
			C13,62.1,12.4,62.8,11.5,62.8z"/>
	</g>
	<g>
		<path class="st1" d="M40.7,62.8c-0.8,0-1.5-0.7-1.5-1.5V25.9c0-0.8,0.7-1.5,1.5-1.5s1.5,0.7,1.5,1.5v35.4
			C42.2,62.1,41.5,62.8,40.7,62.8z"/>
	</g>
	<g>
		<path class="st1" d="M50.5,62.8c-0.8,0-1.5-0.7-1.5-1.5V18c0-0.8,0.7-1.5,1.5-1.5S52,17.2,52,18v43.3C52,62.1,51.3,62.8,50.5,62.8
			z"/>
	</g>
	<g>
		<path class="st1" d="M35.2,22.2L23.1,10l-9,9c-0.6,0.6-1.5,0.6-2.1,0s-0.6-1.5,0-2.1L23.1,5.8l12.1,12.1L46.9,6.3
			c0.6-0.6,1.5-0.6,2.1,0s0.6,1.5,0,2.1L35.2,22.2z"/>
	</g>
	<g>
		<polygon class="st1" points="51,12.3 43.5,4.8 52.8,2.8 		"/>
	</g>
</g>
</svg>
