<svg id="Layer_1" data-name="Layer 1" xmlns="http://www.w3.org/2000/svg" viewBox="0 0 61.99 65.57"><defs><style>.cls-1{fill:#ec2027;stroke-width:0.55px;}.cls-1,.cls-2{stroke:#ec2027;stroke-miterlimit:10;}.cls-2{fill:#a51e22;stroke-width:0.82px;}</style></defs><path class="cls-1" d="M12.77,31.14v4.8H7.94ZM36.93,66.29v2.9H7V36.76h6.64V30.23h11v-.82H13.36l-.83.82L7,35.78l-.82.81V70H37.75V66.29Z" transform="translate(-5.86 -4.72)"/><path class="cls-1" d="M23.23,58.37v.52H12.44a.26.26,0,0,1,0-.52Z" transform="translate(-5.86 -4.72)"/><path class="cls-1" d="M23.23,60.8v.48H12.44a.23.23,0,0,1-.24-.23.25.25,0,0,1,.24-.25Z" transform="translate(-5.86 -4.72)"/><path class="cls-1" d="M23.23,63.21v.5H12.44a.25.25,0,0,1,0-.5Z" transform="translate(-5.86 -4.72)"/><path class="cls-1" d="M23.23,49v.94L19,47.48l-6.49,8a.43.43,0,0,1-.32.14.4.4,0,0,1-.26-.08.42.42,0,0,1-.06-.58l6.94-8.48Z" transform="translate(-5.86 -4.72)"/><path class="cls-1" d="M26.68,7.46a3.19,3.19,0,0,0-3.18,3.18v17h1.38v-17a1.81,1.81,0,0,1,1.8-1.81H36V7.46Z" transform="translate(-5.86 -4.72)"/><path class="cls-1" d="M67.57,10.64v52.2A3.18,3.18,0,0,1,64.4,66H26.68a3.19,3.19,0,0,1-3.18-3.18V27.62h1.38V62.84a1.81,1.81,0,0,0,1.8,1.81H64.4a1.81,1.81,0,0,0,1.8-1.81V10.64a1.81,1.81,0,0,0-1.8-1.81H55V7.46H64.4A3.18,3.18,0,0,1,67.57,10.64Z" transform="translate(-5.86 -4.72)"/><path class="cls-1" d="M53.74,5H37.34A1.3,1.3,0,0,0,36,6.29V8.87a1.3,1.3,0,0,0,1.3,1.29h16.4A1.3,1.3,0,0,0,55,8.87V6.29A1.3,1.3,0,0,0,53.74,5ZM40.43,7.46a.8.8,0,0,1-1.59,0V7.37a.8.8,0,1,1,1.6,0A.28.28,0,0,1,40.43,7.46ZM52,7.46a.79.79,0,0,1-.8.71.81.81,0,0,1-.8-.71V7.37a.8.8,0,0,1,.8-.8.8.8,0,0,1,.81.8A.28.28,0,0,1,52,7.46Z" transform="translate(-5.86 -4.72)"/><path class="cls-2" d="M28.07,19.4v7.4h7.41V19.4Zm6.73,6.72h-6v-6h6Z" transform="translate(-5.86 -4.72)"/><path class="cls-2" d="M61,20.35h-22A.35.35,0,0,1,38.6,20a.34.34,0,0,1,.34-.34H61a.35.35,0,0,1,.35.34A.35.35,0,0,1,61,20.35Z" transform="translate(-5.86 -4.72)"/><path class="cls-2" d="M57.8,23.55H38.94a.32.32,0,0,1-.32-.32.32.32,0,0,1,.32-.32H57.8a.32.32,0,0,1,.31.32A.31.31,0,0,1,57.8,23.55Z" transform="translate(-5.86 -4.72)"/><path class="cls-2" d="M59.9,26.8h-21a.34.34,0,1,1,0-.67h21a.34.34,0,1,1,0,.67Z" transform="translate(-5.86 -4.72)"/><path class="cls-2" d="M28.07,30.42v7.41h7.41V30.42Zm6.73,6.73h-6v-6h6Z" transform="translate(-5.86 -4.72)"/><path class="cls-2" d="M61,31.37h-22a.34.34,0,0,1,0-.68H61a.34.34,0,1,1,0,.68Z" transform="translate(-5.86 -4.72)"/><path class="cls-2" d="M57.8,34.58H38.94a.32.32,0,0,1-.32-.32.32.32,0,0,1,.32-.32H57.8a.32.32,0,0,1,.31.32A.31.31,0,0,1,57.8,34.58Z" transform="translate(-5.86 -4.72)"/><path class="cls-2" d="M59.9,37.83h-21a.34.34,0,1,1,0-.67h21a.34.34,0,1,1,0,.67Z" transform="translate(-5.86 -4.72)"/><path class="cls-2" d="M28.07,41.52v7.41h7.41V41.52Zm6.73,6.72h-6v-6h6Z" transform="translate(-5.86 -4.72)"/><path class="cls-2" d="M61,42.47h-22a.34.34,0,0,1-.34-.34.35.35,0,0,1,.34-.35H61a.35.35,0,0,1,.35.35A.35.35,0,0,1,61,42.47Z" transform="translate(-5.86 -4.72)"/><path class="cls-2" d="M57.8,45.68H38.94a.32.32,0,0,1-.32-.32.32.32,0,0,1,.32-.32H57.8a.31.31,0,0,1,.31.32A.32.32,0,0,1,57.8,45.68Z" transform="translate(-5.86 -4.72)"/><path class="cls-2" d="M59.9,48.92h-21a.34.34,0,1,1,0-.67h21a.34.34,0,1,1,0,.67Z" transform="translate(-5.86 -4.72)"/></svg>