<svg id="Layer_1" data-name="Layer 1" xmlns="http://www.w3.org/2000/svg" viewBox="0 0 61.43 54.58"><defs><style>.cls-1,.cls-4{fill:#ec2027;}.cls-2{fill:#231f20;}.cls-3{fill:#ed2027;}.cls-4{stroke:#ec2027;stroke-miterlimit:10;stroke-width:0.49px;}</style></defs><path class="cls-1" d="M64.79,13.27H63.36V12.19A2.24,2.24,0,0,0,61.12,10h-16a3,3,0,0,0-3,3v.36H9.88a3,3,0,0,0-3,3V51.15a3,3,0,0,0,3,3H20v-.47H9.88a2.54,2.54,0,0,1-2.54-2.54V16.28a2.54,2.54,0,0,1,2.54-2.54H42.61v-.83a2.49,2.49,0,0,1,2.5-2.49h16a1.77,1.77,0,0,1,1.77,1.77v1.55h1.9a2.55,2.55,0,0,1,2.55,2.54V51.15a2.55,2.55,0,0,1-2.55,2.54H60.25v.47h4.54a3,3,0,0,0,3-3V16.28A3,3,0,0,0,64.79,13.27ZM31.52,53.69v.47h.4v-.47Z" transform="translate(-6.62 -9.7)"/><path class="cls-1" d="M64.8,13H63.61v-.83A2.49,2.49,0,0,0,61.12,9.7h-16a3.21,3.21,0,0,0-3.21,3.21V13h-32a3.27,3.27,0,0,0-3.26,3.26V51.15a3.27,3.27,0,0,0,3.26,3.26H20.25v-1H9.88a2.31,2.31,0,0,1-2.3-2.3V16.28A2.31,2.31,0,0,1,9.88,14h33V12.91a2.26,2.26,0,0,1,2.26-2.25h16a1.53,1.53,0,0,1,1.53,1.53V14H64.8a2.3,2.3,0,0,1,2.29,2.3V51.15a2.3,2.3,0,0,1-2.29,2.3H60v1H64.8a3.26,3.26,0,0,0,3.25-3.26V16.28A3.26,3.26,0,0,0,64.8,13ZM31.27,53.45v1h.89v-1Z" transform="translate(-6.62 -9.7)"/><path class="cls-1" d="M47.69,58.53v4.86H20.25V26h2.83V23.11h9.08v-.89H22.6l-3.24,3.33V64.28H48.58V58.53ZM22.19,23.92V25.1H21.05Z" transform="translate(-6.62 -9.7)"/><rect class="cls-2" x="35.28" y="18.68" width="0.53" height="0.49"/><path class="cls-3" d="M32.16,28.18v.9H23.45a.45.45,0,0,1-.45-.45.45.45,0,0,1,.45-.45Z" transform="translate(-6.62 -9.7)"/><rect class="cls-2" x="35.28" y="20.43" width="0.53" height="0.49"/><path class="cls-3" d="M32.16,29.93v.9H23.45a.45.45,0,0,1-.45-.45.45.45,0,0,1,.45-.45Z" transform="translate(-6.62 -9.7)"/><rect class="cls-2" x="35.28" y="22.18" width="0.53" height="0.49"/><path class="cls-3" d="M32.16,31.68v.89H23.45a.45.45,0,1,1,0-.89Z" transform="translate(-6.62 -9.7)"/><path class="cls-3" d="M32.16,33.43v.89H23.45a.45.45,0,1,1,0-.89Z" transform="translate(-6.62 -9.7)"/><rect class="cls-2" x="30.91" y="25.67" width="0.96" height="0.49"/><rect class="cls-2" x="33.55" y="25.67" width="0.96" height="0.49"/><rect class="cls-2" x="35.28" y="25.67" width="0.53" height="0.49"/><path class="cls-3" d="M32.16,35.17v.9H23.45a.45.45,0,0,1,0-.9Z" transform="translate(-6.62 -9.7)"/><rect class="cls-2" x="30.91" y="27.42" width="0.96" height="0.49"/><rect class="cls-2" x="33.55" y="27.42" width="0.96" height="0.49"/><rect class="cls-2" x="35.28" y="27.42" width="0.53" height="0.49"/><path class="cls-3" d="M32.16,36.92v.9H23.45a.45.45,0,0,1-.45-.45.45.45,0,0,1,.45-.45Z" transform="translate(-6.62 -9.7)"/><rect class="cls-3" x="24.77" y="31.35" width="0.53" height="0.29"/><path class="cls-3" d="M23.45,40.81a.39.39,0,0,0-.4.38.4.4,0,0,0,.4.4h8.71v-.78Zm8.47.53h-.53v-.29h.53Z" transform="translate(-6.62 -9.7)"/><rect class="cls-3" x="24.77" y="31.35" width="0.53" height="0.29"/><path class="cls-3" d="M32.16,42.86v.78H23.45a.39.39,0,1,1,0-.78Z" transform="translate(-6.62 -9.7)"/><path class="cls-3" d="M23.45,44.91a.4.4,0,1,0,0,.79h8.71v-.79Zm8.47.54h-.4v-.29h.4Z" transform="translate(-6.62 -9.7)"/><rect class="cls-3" x="24.89" y="35.45" width="0.4" height="0.3"/><rect class="cls-3" x="24.89" y="35.45" width="0.4" height="0.3"/><path class="cls-3" d="M32.16,47v.79H23.45a.4.4,0,1,1,0-.79Z" transform="translate(-6.62 -9.7)"/><path class="cls-3" d="M32.16,55v1l-.24.19-.4.33-.25.2-2.52,2a.44.44,0,0,1-.25.08.38.38,0,0,1-.3-.13.39.39,0,0,1,.06-.56l3-2.44.25-.2.4-.32Z" transform="translate(-6.62 -9.7)"/><polygon class="cls-1" points="41.96 48.83 41.96 49.72 24.65 49.72 24.65 12.52 25.54 12.52 25.54 48.83 41.96 48.83"/><path class="cls-4" d="M34.62,17.62l-.39.4-2.31,2.37-.4.41v1.67h.4V20.89h2.84V18h25.1V58.78H48.34v.4H60.25V17.62Zm-.27,2.86h-2l2-2Z" transform="translate(-6.62 -9.7)"/><path class="cls-1" d="M40.41,45.78v2H38.25V47.3l-.47.33v.65h3.1V45.45ZM37.78,33.35V45.91l.47-.33V33.82h2.16V44.06l.47-.33V33.35Z" transform="translate(-6.62 -9.7)"/><path class="cls-1" d="M40.17,45.65v1.91H38.49v-.73l-1,.67v1h3.6V45ZM37.53,33.11V46.38l1-.68V34.07h1.68V44.53l1-.67V33.11Z" transform="translate(-6.62 -9.7)"/><path class="cls-1" d="M42.14,28.28V42.85l.47-.33V28.75h2.18V42.19l.47.27V28.28Zm2.65,15.53v4H42.61V44.24l-.47.33v3.71h3.12v-4.2Z" transform="translate(-6.62 -9.7)"/><path class="cls-1" d="M44.54,43.39v4.17H42.86V43.77l-1,.67v4.08h3.6V43.94ZM41.9,28V43.32l1-.67V29h1.68V42.33l1,.55V28Z" transform="translate(-6.62 -9.7)"/><path class="cls-1" d="M46.52,38.45v4.73l.47.28V38.92h2.16v5.79l0,0,.43-.42V38.45Zm2.89,8-.26-.14v1.47H47V45.08l-.47-.27v3.47h3.1v-2Z" transform="translate(-6.62 -9.7)"/><path class="cls-1" d="M49.37,46.17l-.46-.26v1.65H47.23V44.94l-1-.55v4.13h3.6V45.68Zm-3.1-8v5.12l1,.56V39.16h1.68v5.69l.32.18.64-.62V38.2Z" transform="translate(-6.62 -9.7)"/><path class="cls-1" d="M53.53,42.48v5.33H51.35V44.59l-.47.45v3.24H54V42Zm-2.65-9.13v9.73l.47-.46v-8.8h2.18v6.7l.47-.46V33.35Z" transform="translate(-6.62 -9.7)"/><path class="cls-1" d="M53.28,42.38v5.18H51.6V44l-1,.93v3.58h3.6V41.45Zm-2.64-9.27V43.67l1-.94V34.07h1.68v7l1-.93V33.11Z" transform="translate(-6.62 -9.7)"/><path class="cls-1" d="M54.43,38.6l.67.69-.86.84-1,.94L51.6,42.7l-1,.93-.77.75-.65.62-.31-.18-1.68-1-1-.55-.77-.44-1-.56-.67-.39-1,.71-1,.67-.77.54-1,.67-1.68,1.18-1,.67-1.48,1,.54.79.94-.66,1-.67,1.68-1.18,1-.67.77-.53,1-.68,1.06-.74.62.36,1,.56.77.44,1,.56,1.68,1,.46.26.5-.48.77-.75,1-.93,1.68-1.64,1-.93L55.77,40l.6.61.38-2.15Zm1.78,1.48-.43-.44L54,41.37l-.47.46-2.18,2.1-.47.46-1.26,1.22-.29.29-.18-.1L47,44.55l-.47-.28-1.26-.73-.47-.27-.88-.51-1.3.91-.47.32-1.26.89-.47.33-2.16,1.52-.47.32-1.13.79-.27-.39,1.4-1,.47-.32,2.16-1.52.47-.33,1.26-.88.47-.33,1.27-.89.91.53.47.27,1.26.73L47,44l2.16,1.26.11.06.36-.36,1.26-1.22.47-.45,2.18-2.11.47-.45,1.45-1.42L55,38.81l1.49-.1Z" transform="translate(-6.62 -9.7)"/></svg>