<svg id="Layer_1" data-name="Layer 1" xmlns="http://www.w3.org/2000/svg" viewBox="0 0 56.4 56.41"><defs><style>.cls-1{fill:#ed1c24;}</style></defs><path class="cls-1" d="M53.26,19.13l-1-1.68c-.33-.57-.29-.8.22-1.2L64.38,6.93c.51-.39.9-.39,1.18,0s.15.73-.36,1.13q-5.54,4.35-11.09,8.68c-.37.28-.39.46-.16.84q5.71,9.6,11.4,19.22c.51.86.5.93-.23,1.63-1.91,1.83-3.63,3.85-5.43,5.79a.56.56,0,0,0-.18.6,1.85,1.85,0,0,1,0,1.23A9.19,9.19,0,0,1,57.82,49a2.36,2.36,0,0,1-2,.76c-.34,0-.45,0-.53.41A7.55,7.55,0,0,1,53.5,53.4a2.36,2.36,0,0,1-2.1.74c-.27,0-.36,0-.42.31a7.35,7.35,0,0,1-1.76,3.34,2.34,2.34,0,0,1-2.14.78c-.27,0-.34,0-.39.29A7.08,7.08,0,0,1,45,62.16a2.57,2.57,0,0,1-3.29.51c-.81-.44-1.6-.91-2.39-1.39-.26-.16-.38-.15-.54.15a2.71,2.71,0,0,1-3.86,1.22,13.28,13.28,0,0,1-2-1.1c-.33-.25-.47-.79-.79-.9s-.72.28-1.14.32a2.3,2.3,0,0,1-1.22-.13,25.76,25.76,0,0,1-2.62-1.33c-.05,0-.12-.06-.13-.1-.27-.89-.79-.76-1.53-.54-1.37.4-4.18-1.14-4.71-2.46a2.6,2.6,0,0,1-.08-1.82c.09-.28,0-.32-.26-.37A7.24,7.24,0,0,1,17,52.62a2.46,2.46,0,0,1-.54-3.14c.64-1,.38-1.6-.36-2.41a49.24,49.24,0,0,1-6.47-8.63,1.51,1.51,0,0,1,0-1.71C13.32,30.36,16.94,24,20.59,17.57c.22-.39.18-.57-.17-.85Q15.13,12.43,9.85,8.1a1.92,1.92,0,0,1-.34-.3.68.68,0,0,1,.87-1,3.68,3.68,0,0,1,.44.34L21.9,16.16c.64.52.67.7.26,1.43L21,19.64c-.11.19-.19.32,0,.53a48.38,48.38,0,0,0,4.8,4.91c.45.37.94.69,1.41,1,.26.2.38.14.51-.17.5-1.17,1-2.32,1.55-3.49a1,1,0,0,1,.84-.64c3.76-.46,7.52-.93,11.28-1.44s7.53-.92,11.32-1.18C52.86,19.19,53,19.16,53.26,19.13ZM24.42,47c.44-.87.85-1.71,1.29-2.53a2.72,2.72,0,0,1,3.62-1.21c.6.27,1.18.57,1.76.88a2.72,2.72,0,0,1,1.21,3.58c-.14.32-.3.64-.47,1s-.14.34.19.38a8.21,8.21,0,0,1,3.28,1.52,1.27,1.27,0,0,1,.62.85c.11.87.6,1,1.39,1a6.16,6.16,0,0,1,2.25,1,2.72,2.72,0,0,1,1.28,3.91c-.37.72-.72,1.44-1.09,2.16-.12.22-.17.38.12.54.84.45,1.65,1,2.49,1.42a1.29,1.29,0,0,0,1.84-.52c.32-.51.62-1,.92-1.55a1.32,1.32,0,0,0-.49-1.9c-.52-.33-1.07-.63-1.59-.95a.78.78,0,0,1-.34-1.14c.2-.27.76-.26,1.14,0,.95.58,1.91,1.15,2.89,1.69a1.22,1.22,0,0,0,1.62-.39,11.93,11.93,0,0,0,1.11-1.85A1.29,1.29,0,0,0,49,53.05c-.21-.14-.45-.15-.66-.28-1-.64-2.06-1.31-3.13-1.89-.91-.51-1.78-1.08-2.69-1.58a.65.65,0,0,1-.33-.86.69.69,0,0,1,.79-.41,1.32,1.32,0,0,1,.45.21c2.47,1.42,4.94,2.86,7.41,4.27a1.4,1.4,0,0,0,2.13-.6l.69-1.23a1.4,1.4,0,0,0-.62-2.2l-5.73-3.35a1.71,1.71,0,0,1-.42-.28.63.63,0,0,1-.13-.82.61.61,0,0,1,.76-.32A2.3,2.3,0,0,1,48,44l7.11,4.13a1.4,1.4,0,0,0,2.13-.59L58,46.17a1.35,1.35,0,0,0-.56-2.05L35.24,31.5c-.32-.18-.46-.14-.65.15-.79,1.22-1.61,2.41-2.41,3.61a3.32,3.32,0,0,1-2.56,1.55c-.75.06-1.5,0-2.25,0a2.77,2.77,0,0,1-2.69-4.12q1-2.37,2.11-4.73c.11-.23.21-.4-.12-.59a17.55,17.55,0,0,1-3.76-3.11c-.95-1-1.87-2-2.82-3-.09.14-.16.24-.22.35L11,37.16A.68.68,0,0,0,11,38a55.8,55.8,0,0,0,6.55,8.66c.31.35.34,0,.43-.16a2.69,2.69,0,0,1,3.43-1.36A7.24,7.24,0,0,1,24.42,47ZM53.7,20.5c-3,.27-6,.44-8.88.83q-6.93.92-13.85,1.76a.78.78,0,0,0-.71.51c-1.44,3.25-2.9,6.5-4.35,9.75a1.41,1.41,0,0,0,1.37,2.12c.52,0,1,0,1.57,0a2.5,2.5,0,0,0,2.4-1.27c1.42-2.2,2.91-4.37,4.37-6.55.3-.45.69-.56,1.05-.33s.39.65.1,1.09-.58.92-.91,1.35-.14.44.16.61q4.27,2.4,8.53,4.81,6.95,4,13.86,8c.31.18.38,0,.53-.16,1.61-1.73,3.13-3.54,4.85-5.18.3-.28.28-.46.09-.78Q59.08,29,54.32,20.89C54.15,20.6,54,20.39,53.7,20.5Zm-22.52,26a1.37,1.37,0,0,0-.78-1.21c-.53-.27-1.07-.55-1.61-.81a1.32,1.32,0,0,0-1.89.65q-2.43,4.78-4.84,9.58a1.34,1.34,0,0,0,.62,1.87c.47.26,1,.5,1.45.74a1.39,1.39,0,0,0,2.1-.68Q28.6,52,31,47.32A1.76,1.76,0,0,0,31.18,46.51ZM27.57,57.4a1.37,1.37,0,0,0,.78,1.22c.53.27,1.06.55,1.6.81a1.34,1.34,0,0,0,1.87-.6c1-1.87,1.91-3.75,2.85-5.63a1.34,1.34,0,0,0-.62-1.86c-.47-.26-1-.5-1.45-.74a1.38,1.38,0,0,0-2.1.68c-.91,1.78-1.81,3.58-2.71,5.37A1.49,1.49,0,0,0,27.57,57.4Zm9.3-3.68a1.34,1.34,0,0,0-1.25.69c-.76,1.47-1.51,2.94-2.23,4.42A1.32,1.32,0,0,0,34,60.62c.56.3,1.13.59,1.71.85a1.32,1.32,0,0,0,1.79-.57c.76-1.45,1.49-2.9,2.2-4.37a1.3,1.3,0,0,0-.59-1.82c-.56-.31-1.13-.58-1.71-.85A2.28,2.28,0,0,0,36.87,53.72Zm-16.26-.85a1.4,1.4,0,0,0,1.24-.82c.48-1,1-1.9,1.45-2.86a1.35,1.35,0,0,0-.65-1.94c-.49-.27-1-.52-1.5-.77a1.36,1.36,0,0,0-1.92.59c-.52,1-1,2-1.5,3a1.34,1.34,0,0,0,.62,1.87c.54.29,1.1.56,1.66.83A1.11,1.11,0,0,0,20.61,52.87Z" transform="translate(-9.3 -6.62)"/></svg>