<svg id="Layer_1" data-name="Layer 1" xmlns="http://www.w3.org/2000/svg" viewBox="0 0 57.25 57.25"><defs><style>.cls-1{fill:#ed1557;stroke:#ec2027;stroke-miterlimit:10;stroke-width:0.82px;}.cls-2{font-size:8.07px;fill:#ed1c24;font-family:Arial-BoldMT, Arial;font-weight:700;}.cls-3{letter-spacing:-0.04em;}</style></defs><path class="cls-1" d="M67.14,35.3a28.1,28.1,0,0,0-8.66-20.12l-.3-.29A28.08,28.08,0,0,0,39.84,7.31c-.3,0-.6,0-.91,0h-.65l-1,0a28.17,28.17,0,0,0-17.62,7.55l-.3.29A28.14,28.14,0,0,0,10.72,35.3v.41A28.08,28.08,0,0,0,18.65,55.1l.28.29A28.16,28.16,0,0,0,37.3,63.67l1,0h.65l.91,0a28.11,28.11,0,0,0,19.09-8.31l.28-.29a28.08,28.08,0,0,0,7.93-19.39V35.3ZM58.93,54.8l-.29.3a27.78,27.78,0,0,1-19.56,8.21h-.35c-.14,0-.28,0-.41,0H38A27.74,27.74,0,0,1,19.22,55.1l-.29-.3a27.73,27.73,0,0,1-7.8-19.09V35.3a27.75,27.75,0,0,1,8.55-19.84l.3-.28A27.72,27.72,0,0,1,38,7.72h1.12a27.67,27.67,0,0,1,18.8,7.48l.3.28A27.71,27.71,0,0,1,66.73,35.3v.41A27.73,27.73,0,0,1,58.93,54.8Z" transform="translate(-10.31 -6.88)"/><path class="cls-1" d="M58.18,14.89l-.3.29A28,28,0,0,1,51.6,19.6l-.41.2a27.57,27.57,0,0,1-12.26,2.85h-.61a27.59,27.59,0,0,1-12.26-3.15l-.4-.21A28.42,28.42,0,0,1,20,15.18c-.09-.1-.2-.19-.3-.29l-.3.29.3.28a28.66,28.66,0,0,0,5.77,4.17l.4.21a27.9,27.9,0,0,0,12.47,3.21h.61A27.94,27.94,0,0,0,51.4,20.15l.41-.2a28.18,28.18,0,0,0,6.37-4.49l.3-.28Z" transform="translate(-10.31 -6.88)"/><path class="cls-1" d="M58.93,54.8a28.64,28.64,0,0,0-6.5-4.89L52,49.7a28.06,28.06,0,0,0-13.1-3.23h-.61A27.92,27.92,0,0,0,25.22,50l-.4.22a28.56,28.56,0,0,0-5.89,4.54l-.28.3.28.29.29-.29A27.49,27.49,0,0,1,25,50.62l.39-.22a27.54,27.54,0,0,1,12.91-3.51h.61a27.65,27.65,0,0,1,12.91,3.18l.4.21a28,28,0,0,1,6.4,4.83c.1.09.19.19.29.29l.28-.29Z" transform="translate(-10.31 -6.88)"/><path class="cls-1" d="M39,63.31l-.27-.14-.2-.1L38.32,63A31.19,31.19,0,0,1,25.41,50.4L25.22,50a30.69,30.69,0,0,1-3.64-14.33V35.3a30.74,30.74,0,0,1,4.27-15.46l.21-.35A31,31,0,0,1,38.32,8.05l.21-.12.2-.09L39,7.7l0,0,.8-.37c-.3,0-.6,0-.91,0H38.8l-.07,0-.2.1-.21.1L38,7.68l-.07,0a31.51,31.51,0,0,0-12.3,11.56l-.21.35A31,31,0,0,0,21.13,35.3a1.34,1.34,0,0,0,0,.2,1.48,1.48,0,0,0,0,.21,31.1,31.1,0,0,0,3.69,14.55c.06.12.13.24.2.36A31.46,31.46,0,0,0,38,63.29l.07,0a2.64,2.64,0,0,0,.29.15l.21.11.2.1.07,0h.13l.91,0-.8-.38Z" transform="translate(-10.31 -6.88)"/><path class="cls-1" d="M55.94,35.3A31.09,31.09,0,0,0,51.81,20l-.21-.35A31.57,31.57,0,0,0,39.08,7.7l0,0-.31-.16a1.76,1.76,0,0,0-.2-.09l-.21-.11,0,0-1,0,.73.34s0,0,.06,0l.23.11.21.11.2.1A31.16,31.16,0,0,1,51.19,19.8c.08.12.14.23.21.35A30.67,30.67,0,0,1,55.48,35.3a1.34,1.34,0,0,1,0,.2,1.48,1.48,0,0,1,0,.21A30.54,30.54,0,0,1,52,49.7c-.06.12-.12.24-.19.36A31.09,31.09,0,0,1,38.73,63l-.2.1-.21.11-.23.11-.06,0-.73.35,1,0,0,0,.21-.11.2-.09.31-.17h0a31.63,31.63,0,0,0,13.16-13c.06-.11.13-.23.19-.36a31,31,0,0,0,3.51-14.2V35.3Z" transform="translate(-10.31 -6.88)"/><path class="cls-1" d="M10.72,35.3H24.93v.41H10.72V35.3Z" transform="translate(-10.31 -6.88)"/><path class="cls-1" d="M67.14,35.5v.21H51.68V35.3H67.14Z" transform="translate(-10.31 -6.88)"/><path class="cls-1" d="M38.73,7.29V29h-.41V7.3Z" transform="translate(-10.31 -6.88)"/><path class="cls-1" d="M38.32,39.84h.41V63.71h-.41Z" transform="translate(-10.31 -6.88)"/><text class="cls-2" transform="translate(15.87 30.64)">T <tspan class="cls-3" x="7.18" y="0" xml:space="preserve"> A</tspan><tspan x="14.65" y="0" xml:space="preserve">  X</tspan></text></svg>