<svg id="Layer_1" data-name="Layer 1" xmlns="http://www.w3.org/2000/svg" viewBox="0 0 56.71 60.87"><defs><style>.cls-1,.cls-3,.cls-4{fill:#ed1c24;}.cls-2{fill:#ec2027;}.cls-3,.cls-4{stroke:#ec2027;stroke-miterlimit:10;}.cls-3{stroke-width:0.81px;}.cls-4{stroke-width:0.48px;}</style></defs><path class="cls-1" d="M58,6.89v26l-.54-.67V7.43H17.83l.57-.54Z" transform="translate(-12.89 -6.14)"/><path class="cls-2" d="M18.3,6.65,17.93,7l-.7.67h40V32.3l0,.07c.19.21.36.43.54.65l.42.57V6.65Zm.13.54.06-.06H57.71V32.19l-.05-.07V7.19Z" transform="translate(-12.89 -6.14)"/><path class="cls-1" d="M58.36,34.08l-.73-1c-.16-.22-.34-.43-.52-.64l-.1-.12V7.84L17.47,7.57l1-1.19,39.93.11Z" transform="translate(-12.89 -6.14)"/><path class="cls-2" d="M18.32,6.14l0,0L17,7.8h4.3l35.5.24V32.45l.16.19a7.79,7.79,0,0,1,.51.63l1.16,1.52V6.25Zm2.95,1.22-3.3,0,.14-.16h0l.4-.5v0h2.73l6.69,0,30.16.08V33.37l-.3-.39a8.06,8.06,0,0,0-.53-.66l0,0V7.6L33,7.43Z" transform="translate(-12.89 -6.14)"/><path class="cls-1" d="M57.93,41a.26.26,0,0,1-.27.27.28.28,0,0,1-.24-.16.2.2,0,0,1,0-.11A10.43,10.43,0,0,0,47,30.61a.27.27,0,0,1,0-.54,11,11,0,0,1,10.45,7.65A10.77,10.77,0,0,1,57.93,41Z" transform="translate(-12.89 -6.14)"/><path class="cls-2" d="M57.65,37.64A11.18,11.18,0,0,0,47,29.83a.51.51,0,0,0-.51.51.5.5,0,0,0,.51.51A10.19,10.19,0,0,1,57.15,41a.54.54,0,0,0,0,.2.53.53,0,0,0,.48.31.51.51,0,0,0,.51-.51A11.09,11.09,0,0,0,57.65,37.64ZM47,30.31A10.71,10.71,0,0,1,57.69,41h-.06A10.68,10.68,0,0,0,47,30.37Z" transform="translate(-12.89 -6.14)"/><path class="cls-1" d="M57.66,41.71a.65.65,0,0,1-.61-.4A.57.57,0,0,1,57,41,10,10,0,0,0,47,31a.68.68,0,1,1,0-1.35A11.33,11.33,0,0,1,57.8,37.59,11.16,11.16,0,0,1,58.34,41,.67.67,0,0,1,57.66,41.71Z" transform="translate(-12.89 -6.14)"/><path class="cls-2" d="M58,37.52A11.56,11.56,0,0,0,47,29.43a.92.92,0,1,0,0,1.83A9.79,9.79,0,0,1,56.75,41a1,1,0,0,0,.07.37.93.93,0,0,0,.85.54.91.91,0,0,0,.91-.91A11.56,11.56,0,0,0,58,37.52Zm-.36,3.95a.43.43,0,0,1-.41-.27.35.35,0,0,1,0-.16A10.27,10.27,0,0,0,47,30.78a.44.44,0,0,1-.43-.44.43.43,0,0,1,.43-.43,11.07,11.07,0,0,1,10.6,7.76A10.9,10.9,0,0,1,58.1,41,.43.43,0,0,1,57.67,41.47Z" transform="translate(-12.89 -6.14)"/><path class="cls-1" d="M61.49,56.45a.28.28,0,0,1-.19.07.26.26,0,0,1-.19-.07L57.87,53.2l-.54-.55,0,0a.26.26,0,0,1,0-.38l0,0a.26.26,0,0,1,.35,0l.19.19,3.62,3.64A.26.26,0,0,1,61.49,56.45Z" transform="translate(-12.89 -6.14)"/><path class="cls-2" d="M61.66,55.9l-3.81-3.83a.5.5,0,0,0-.61-.09h-.05l-.06.07a.52.52,0,0,0-.16.37.48.48,0,0,0,.16.35l3.8,3.83a.48.48,0,0,0,.37.15.52.52,0,0,0,.36-.14.51.51,0,0,0,.15-.36A.48.48,0,0,0,61.66,55.9Zm-.34.38h0l-3.78-3.8,0,0,0,0,3.82,3.85Z" transform="translate(-12.89 -6.14)"/><path class="cls-1" d="M58,49.66v.15l-.07-.06Z" transform="translate(-12.89 -6.14)"/><polygon class="cls-2" points="45.31 44.21 44.67 43.63 45.31 42.84 45.31 44.21"/><polygon class="cls-1" points="45.47 44.58 44.45 43.65 45.47 42.36 45.47 44.58"/><path class="cls-2" d="M57,49.82l1.59,1.45V47.82Zm.66,0,.45-.57v1Z" transform="translate(-12.89 -6.14)"/><polygon class="cls-1" points="45.07 51.08 45.07 60.23 0.64 60.23 0.64 6.59 1.18 6.59 1.18 59.69 44.53 59.69 44.53 50.46 45.07 51.08"/><path class="cls-2" d="M57.18,56V65.6H14.31V12.49h-1V66.61h44.9V57.14ZM13.77,13h.06V66.08H57.66V57.25l.05.06v8.82H13.77Z" transform="translate(-12.89 -6.14)"/><polygon class="cls-1" points="45.47 50.93 45.47 60.63 0.24 60.63 0.24 6.43 0.42 6.18 1.59 6.18 1.59 59.29 44.12 59.29 44.12 49.37 45.47 50.93"/><path class="cls-2" d="M56.77,54.86V65.19H14.71V12.09H13.5l-.19.24-.18.24-.24.31V67H58.6V57ZM13.37,12.57h.86v53.1h43V56.16l.87,1v9.37H13.37Z" transform="translate(-12.89 -6.14)"/><rect class="cls-3" x="7.31" y="15.44" width="29.93" height="0.54"/><rect class="cls-3" x="7.31" y="19.11" width="29.93" height="0.54"/><path class="cls-3" d="M40.11,28.93c-.31.16-.61.34-.91.53h-19v-.53Z" transform="translate(-12.89 -6.14)"/><path class="cls-3" d="M35.74,32.6c-.15.18-.28.35-.41.54H20.2V32.6Z" transform="translate(-12.89 -6.14)"/><path class="cls-3" d="M33.65,36.27c-.07.18-.14.36-.2.54H20.2v-.54Z" transform="translate(-12.89 -6.14)"/><path class="cls-3" d="M32.78,39.94c0,.18,0,.36,0,.54H20.2v-.54Z" transform="translate(-12.89 -6.14)"/><path class="cls-3" d="M33,44.15H20.2v-.54H32.92C32.94,43.8,33,44,33,44.15Z" transform="translate(-12.89 -6.14)"/><path class="cls-3" d="M34.35,47.82H20.2v-.53H34.07C34.16,47.47,34.25,47.65,34.35,47.82Z" transform="translate(-12.89 -6.14)"/><path class="cls-3" d="M37.16,51.5h-17V51H36.61A7,7,0,0,0,37.16,51.5Z" transform="translate(-12.89 -6.14)"/><path class="cls-3" d="M44.9,55.17H20.2v-.54H42.48A13.06,13.06,0,0,0,44.9,55.17Z" transform="translate(-12.89 -6.14)"/><path class="cls-4" d="M57.46,49.43l.1.08h0Z" transform="translate(-12.89 -6.14)"/><path class="cls-4" d="M67.5,59.49,58,50.55l-.4-.37-.14.16A13.88,13.88,0,0,1,54.35,53l3.07,3.56.54.63,5.37,6.25a2.89,2.89,0,0,0,4.23.16,2.89,2.89,0,0,0-.06-4.15Zm-.22,3.86a2.45,2.45,0,0,1-1.86.73,2.41,2.41,0,0,1-1.78-.87L55,53.12a14.45,14.45,0,0,0,2.63-2.36l9.63,9A2.47,2.47,0,0,1,68,61.55v.05A2.43,2.43,0,0,1,67.28,63.35Z" transform="translate(-12.89 -6.14)"/><path class="cls-4" d="M68.14,58.8l-9.71-9.1a14.38,14.38,0,0,0-.15-17.06c-.18-.24-.37-.47-.55-.69a14.37,14.37,0,0,0-17.8-3.38,10.6,10.6,0,0,0-.94.56,13.68,13.68,0,0,0-3.56,3.22,5,5,0,0,0-.42.55,13.78,13.78,0,0,0-1.74,3.23c-.07.18-.14.37-.2.55a14.63,14.63,0,0,0-.69,3.23c0,.18,0,.36,0,.55s0,.54,0,.82a14.27,14.27,0,0,0,.2,2.39c0,.19.06.38.1.56a14.64,14.64,0,0,0,1.09,3.23c.09.19.18.38.28.55a13.92,13.92,0,0,0,2.33,3.22c.18.2.37.39.56.57a14.46,14.46,0,0,0,11.79,3.77,12.66,12.66,0,0,0,1.56-.3,14.31,14.31,0,0,0,3.57-1.42L62.62,64.1a3.76,3.76,0,0,0,2.72,1.32h.18a3.83,3.83,0,0,0,2.71-1.13,3.83,3.83,0,0,0-.09-5.5ZM45,54.23a13,13,0,0,1-6.78-3c-.19-.17-.38-.33-.57-.52a13.39,13.39,0,0,1-2.34-3c-.09-.18-.18-.34-.27-.53a12.61,12.61,0,0,1-1.07-3,4,4,0,0,1-.11-.52,13.1,13.1,0,0,1-.2-2.26c0-.26,0-.52,0-.77s0-.35,0-.53a12.63,12.63,0,0,1,.68-3c.06-.17.12-.34.2-.52a12.67,12.67,0,0,1,1.72-3c.13-.18.27-.35.41-.52a12.83,12.83,0,0,1,3.71-3,10.4,10.4,0,0,1,1.06-.52,13,13,0,0,1,15.59,4c.17.22.34.45.52.72a13.06,13.06,0,0,1,0,14.48c-.14.21-.29.42-.43.61l-.1.12-.14.18-.09.12a13,13,0,0,1-3.09,2.74,4,4,0,0,1-.44.27,12.83,12.83,0,0,1-4.82,1.67A12.51,12.51,0,0,1,45,54.23ZM57.57,49.5h0l-.1-.08Zm10,14.14a2.89,2.89,0,0,1-4.23-.16L58,57.23l-.54-.63L54.35,53a13.88,13.88,0,0,0,3.07-2.7l.14-.16.4.37,9.54,8.94a2.89,2.89,0,0,1,.06,4.15Z" transform="translate(-12.89 -6.14)"/><path class="cls-4" d="M63.32,58.43a.27.27,0,0,1-.19-.08l-.83-.82a.29.29,0,0,1,0-.39.28.28,0,0,1,.38,0l.83.83a.28.28,0,0,1,0,.38A.27.27,0,0,1,63.32,58.43Z" transform="translate(-12.89 -6.14)"/><path class="cls-2" d="M18,6.17,13.5,12.09l-.19.24-.18.24-.24.31v.55h1.82l6.56.06V6.17Zm1.79,5.89L15.37,12l3.23-4.2.1-.14.05-.06h1.08Z" transform="translate(-12.89 -6.14)"/></svg>