<svg id="Layer_1" data-name="Layer 1" xmlns="http://www.w3.org/2000/svg" viewBox="0 0 66.94 47.93"><defs><style>.cls-1{fill:#ec2027;}</style></defs><path class="cls-1" d="M61.82,51.7h0c-.19.12-.4.25-.64.38a8.48,8.48,0,0,1-1.45.63h1.42a8,8,0,0,0,.9-.51c.17-.11.36-.24.56-.39l.15-.12Zm-9.72,0h-.93l.14.11c.21.16.39.28.55.38a6.77,6.77,0,0,0,.9.52h1.42a8.83,8.83,0,0,1-1.45-.63ZM66.74,13.53H8a1.91,1.91,0,0,0-1.9,1.9V50.82A1.91,1.91,0,0,0,8,52.72h44.3a9.94,9.94,0,0,1-1-.62c-.16-.12-.33-.25-.49-.39H8a.88.88,0,0,1-.88-.88V15.43A.89.89,0,0,1,8,14.55H66.74a.88.88,0,0,1,.88.88V50.82a.87.87,0,0,1-.88.88h-1l1.09,1a1.91,1.91,0,0,0,.63-.13,1.89,1.89,0,0,0,1.21-1.77V15.43A1.91,1.91,0,0,0,66.74,13.53ZM63.13,51.7h0l-.5.39-.47.32-.22.13-.11.07-.18.1h1c.23-.16.47-.32.71-.52l.45-.39.11-.11Z" transform="translate(-6.07 -13.53)"/><path class="cls-1" d="M49.21,48.6l0,0v0c-.06-.11-.12-.24-.18-.36v0a2,2,0,0,1-.1-.21h-.6l.12.27,0,0c0,.11.11.23.17.34v0h0a2.26,2.26,0,0,0,.11.22h.63C49.31,48.78,49.26,48.69,49.21,48.6Zm17.65-2.05a2.68,2.68,0,0,1-.07.27,9.16,9.16,0,0,1-.67,1.86,1.71,1.71,0,0,0,.93-1.52V45.44A8,8,0,0,1,66.86,46.55ZM65.34,15.46H9.43a1.71,1.71,0,0,0-1.71,1.71v30a1.72,1.72,0,0,0,1.71,1.71H48.48l-.14-.26,0,0v0a2.57,2.57,0,0,1-.18-.37l0,0c0-.06,0-.13-.08-.19H9.43a.79.79,0,0,1-.79-.79v-30a.79.79,0,0,1,.79-.79H65.34a.79.79,0,0,1,.79.79V40a9.68,9.68,0,0,1,.67,1.84l.06.26a8.3,8.3,0,0,1,.19,1.11v-26A1.71,1.71,0,0,0,65.34,15.46Zm-.57,33h0v0Zm0,0v0h0v0Zm.11.1h0Z" transform="translate(-6.07 -13.53)"/><rect class="cls-1" x="14.66" y="13.78" width="1.52" height="13.81"/><rect class="cls-1" x="16.65" y="8.14" width="1.52" height="19.44"/><rect class="cls-1" x="18.63" y="11.74" width="1.52" height="15.84"/><rect class="cls-1" x="20.61" y="18.98" width="1.52" height="8.6"/><rect class="cls-1" x="22.59" y="21.55" width="1.52" height="6.03"/><rect class="cls-1" x="24.57" y="11.2" width="1.52" height="16.39"/><path class="cls-1" d="M57.64,28.21c0,.18,0,.36,0,.53v.07h-.06l-10-.52v10.1h-.07A10.18,10.18,0,1,1,57.64,28.21Z" transform="translate(-6.07 -13.53)"/><path class="cls-1" d="M57.38,34.22h-.52l0,.07h.6l0,0,0,0ZM48.6,38.66a6.76,6.76,0,0,0-.38.61,1.27,1.27,0,0,1-.07.12v.13l.12-.21c.11-.19.24-.4.39-.61h0v-.12Z" transform="translate(-6.07 -13.53)"/><path class="cls-1" d="M58.78,29.44l0,.26a10.11,10.11,0,0,1-1.31,4.53h-.59l0,0a9.74,9.74,0,0,0,1.35-4.25l-9.56-.5v9.14l-.07.09a6.76,6.76,0,0,0-.38.61l-.07.12V28.89Z" transform="translate(-6.07 -13.53)"/><path class="cls-1" d="M66,47.55a.78.78,0,0,0,.09-.27Zm0,0a.78.78,0,0,0,.09-.27Zm0,0a.78.78,0,0,0,.09-.27Zm0,0a.78.78,0,0,0,.09-.27Zm0,0a.78.78,0,0,0,.09-.27Zm0,0a.78.78,0,0,0,.09-.27Zm6.18,9.53-4.78-4.49L67,52.16l-.5-.46h-.76l1.09,1,5.06,4.74a2,2,0,0,1,0,2.89,2,2,0,0,1-3-.11l-6.41-7.46.09-.06c.23-.16.47-.32.71-.52l.45-.39.11-.11h-.78l-.5.39-.47.32-.22.13-.11.07-.18.1a9.57,9.57,0,0,1-6,1.13,9.8,9.8,0,0,1-3.41-1.13,9.94,9.94,0,0,1-1-.62c-.16-.12-.33-.25-.49-.39h0l-.09-.08h0q-.21-.18-.42-.39A9.39,9.39,0,0,1,48.54,49l-.06-.11-.14-.26,0,0v0a2.57,2.57,0,0,1-.18-.37l0,0c0-.06,0-.13-.08-.19h-.55a1.46,1.46,0,0,0,.07.19v0l0,0s0,0,0,0h0a3.92,3.92,0,0,0,.16.36h0l0,0a0,0,0,0,1,0,0h0a1.63,1.63,0,0,0,.09.19l0,.1,0,.08a10.47,10.47,0,0,0,1.64,2.27l.39.38,0,0,0,0,0,0,0,0c.16.15.33.29.46.39l.08.06a7.26,7.26,0,0,0,.63.46A10.23,10.23,0,0,0,53.87,54a10.32,10.32,0,0,0,4.45.39,10.9,10.9,0,0,0,1.11-.22,9.63,9.63,0,0,0,2.66-1.09l6.47,7.52a2.56,2.56,0,0,0,1.81.88h.11a2.52,2.52,0,0,0,1.79-.76A2.44,2.44,0,0,0,73,58.89,2.48,2.48,0,0,0,72.21,57.08ZM66,47.55a.78.78,0,0,0,.09-.27Zm0,0a.78.78,0,0,0,.09-.27Zm0,0a.78.78,0,0,0,.09-.27Zm0,0a.78.78,0,0,0,.09-.27Zm0,0a.78.78,0,0,0,.09-.27Zm0,0a.78.78,0,0,0,.09-.27Zm0,0a.78.78,0,0,0,.09-.27Z" transform="translate(-6.07 -13.53)"/><path class="cls-1" d="M67.11,44.3a10.6,10.6,0,0,1-.06,1.14,8,8,0,0,1-.19,1.11,2.68,2.68,0,0,1-.07.27,9.16,9.16,0,0,1-.67,1.86,10.27,10.27,0,0,1-1,1.7h0l1.39,1.3h-.76l-1-.9-.06.07a6.83,6.83,0,0,1-.79.83h-.77a9.26,9.26,0,0,0,1.28-1.3.87.87,0,0,0,.09-.11l.09-.12s0,0,0-.06.22-.3.34-.48a8.53,8.53,0,0,0,.46-.76A9.68,9.68,0,0,0,66,47.55a.78.78,0,0,0,.09-.27,9.63,9.63,0,0,0,.47-3,9.88,9.88,0,0,0-1.11-4.5v0l-.37-.62L65,39c-.14-.2-.26-.37-.39-.53a9.5,9.5,0,0,0-7.44-3.77H56.7a9.24,9.24,0,0,0-3.59.79c-.27.12-.52.25-.79.39A9.62,9.62,0,0,0,49.6,38.1c-.11.12-.21.26-.32.39s-.3.41-.42.61l0,0a2.5,2.5,0,0,0-.21.35,9.31,9.31,0,0,0-.6,1.24,2.15,2.15,0,0,0-.15.38,10,10,0,0,0-.5,2.24l0,.39c0,.17,0,.37,0,.56A10.46,10.46,0,0,0,47.47,46a3.82,3.82,0,0,0,.08.39A9.11,9.11,0,0,0,48,48h-.55A9.74,9.74,0,0,1,47,46.39c0-.12,0-.24-.06-.35v0a9.33,9.33,0,0,1-.14-1.69c0-.19,0-.39,0-.57s0-.26,0-.39a9.74,9.74,0,0,1,.49-2.27c0-.13.08-.26.13-.39a9.4,9.4,0,0,1,.62-1.32.21.21,0,0,1,0-.06l0,0v0a5.19,5.19,0,0,1,.39-.61l.06-.1,0-.07h0l0,0L49,38a10,10,0,0,1,2.51-2.26,6.76,6.76,0,0,1,.66-.39,10.14,10.14,0,0,1,4.7-1.21h.51l.09,0h0a10.17,10.17,0,0,1,7.21,3.56l.3.37.16.21,0,0h0v0c.13.17.26.36.38.55v0s0,0,0,0,0,0,0,.06a8.4,8.4,0,0,1,.48.88,9.68,9.68,0,0,1,.67,1.84l.06.26a8.3,8.3,0,0,1,.19,1.11A10.88,10.88,0,0,1,67.11,44.3Z" transform="translate(-6.07 -13.53)"/><path class="cls-1" d="M68.61,55.55h0a.26.26,0,0,1-.19.07.26.26,0,0,1-.18-.07l-.59-.6a.23.23,0,0,1-.08-.18.27.27,0,0,1,.08-.19.27.27,0,0,1,.18-.07h0a.34.34,0,0,1,.19.07l.59.6A.27.27,0,0,1,68.61,55.55Z" transform="translate(-6.07 -13.53)"/><path class="cls-1" d="M64.91,48.52h0Z" transform="translate(-6.07 -13.53)"/><polygon class="cls-1" points="58.72 34.91 58.71 34.93 58.69 34.93 58.72 34.91"/><polygon class="cls-1" points="58.73 34.88 58.73 34.89 58.72 34.91 58.72 34.89 58.73 34.88"/><path class="cls-1" d="M64.9,48.52h0Z" transform="translate(-6.07 -13.53)"/><path class="cls-1" d="M49.21,48.6l0,0v0c-.06-.11-.12-.24-.18-.36v0a2,2,0,0,1-.1-.21h-.6l.12.27,0,0c0,.11.11.23.17.34v0h0a2.26,2.26,0,0,0,.11.22h.63C49.31,48.78,49.26,48.69,49.21,48.6Z" transform="translate(-6.07 -13.53)"/><path class="cls-1" d="M66.13,42.22a8.62,8.62,0,0,0-.53-1.63v0h0c-.11-.26-.24-.51-.38-.77v0l-.11-.19c-.13-.23-.27-.43-.4-.63A9.41,9.41,0,0,0,57,34.9h-.53a9.1,9.1,0,0,0-2.36.44,8.53,8.53,0,0,0-1,.39A9.49,9.49,0,0,0,50,38l-.33.39a7.27,7.27,0,0,0-.44.6c-.11.16-.2.29-.27.41a9.45,9.45,0,0,0-.65,1.27q-.08.18-.15.39a9.26,9.26,0,0,0-.53,2.27c0,.14,0,.26,0,.39a4.8,4.8,0,0,0,0,.57A9.16,9.16,0,0,0,47.71,46a4,4,0,0,0,.08.4,9.15,9.15,0,0,0,.5,1.56h.6a8.32,8.32,0,0,1-.55-1.59c0-.13-.06-.26-.08-.39a8.3,8.3,0,0,1-.16-1.67c0-.17,0-.36,0-.56s0-.26,0-.39a8.26,8.26,0,0,1,.55-2.24,2.7,2.7,0,0,1,.15-.38,8.84,8.84,0,0,1,.7-1.29c.09-.13.18-.26.31-.42a5,5,0,0,1,.42-.53,4.49,4.49,0,0,1,.36-.39,8.87,8.87,0,0,1,3.62-2.24,8.68,8.68,0,0,1,1.85-.38h0l.46,0a8.6,8.6,0,0,1,1.15,0,8.44,8.44,0,0,1,1.62.3,8.86,8.86,0,0,1,5.2,4c.15.26.28.5.39.73l.1.25h0a8.91,8.91,0,0,1,.36,1v0a8.65,8.65,0,0,1,0,4.94v0A6.72,6.72,0,0,1,65,48l-.06.13a1.91,1.91,0,0,1-.16.32h0v0h0v0l-.08.14h0a2.25,2.25,0,0,1-.12.21l0,.06a8.79,8.79,0,0,1-2.73,2.83h0c-.19.12-.4.25-.64.38a8.48,8.48,0,0,1-1.45.63,8.78,8.78,0,0,1-5.55,0,8.83,8.83,0,0,1-1.45-.63l-.63-.38h0l-.15-.1c-.16-.11-.33-.23-.52-.38a8.94,8.94,0,0,1-2-2.25l-.06-.1h-.63l.1.18a9.44,9.44,0,0,0,1.86,2.27l.46.38h0l.14.11c.21.16.39.28.55.38a6.77,6.77,0,0,0,.9.52,9.38,9.38,0,0,0,8.39,0,8,8,0,0,0,.9-.51c.17-.11.36-.24.56-.39l.15-.12a9.69,9.69,0,0,0,1.94-2.05c.13-.2.27-.4.4-.63a1.09,1.09,0,0,1,.08-.15,7.34,7.34,0,0,0,.47-1h0a9.46,9.46,0,0,0,.48-5.67Zm-1.23,6.3h0Z" transform="translate(-6.07 -13.53)"/><path class="cls-1" d="M64.63,44.54v.07H64.1v-.07a7.32,7.32,0,0,0-7.32-7.32h-.06V36.7h.06A7.85,7.85,0,0,1,64.63,44.54Z" transform="translate(-6.07 -13.53)"/><path class="cls-1" d="M41.26,55.46a2.31,2.31,0,0,1-.3.82H56.25a.47.47,0,0,1,.48.48v2.32a.48.48,0,0,1-.48.48H20a.49.49,0,0,1-.48-.48V56.76a.48.48,0,0,1,.48-.48H35.11a2.29,2.29,0,0,1-.29-.82H19.23a.48.48,0,0,0-.48.48v4a.47.47,0,0,0,.48.47H57.07a.48.48,0,0,0,.48-.47v-4a.49.49,0,0,0-.48-.48Z" transform="translate(-6.07 -13.53)"/><path class="cls-1" d="M35.6,51.8v3.26a1.75,1.75,0,0,0,0,.4,2.12,2.12,0,0,0,.29.82,2.43,2.43,0,0,0,4.22,0,2.29,2.29,0,0,0,.29-.82,1.75,1.75,0,0,0,0-.4V51.8Zm3.51,4.48a1.63,1.63,0,0,1-1.07.4,1.61,1.61,0,0,1-1.07-.4,1.58,1.58,0,0,1-.5-.82,1.29,1.29,0,0,1-.06-.4V52.62h3.25v2.44a1.29,1.29,0,0,1,0,.4A1.58,1.58,0,0,1,39.11,56.28Z" transform="translate(-6.07 -13.53)"/></svg>