<svg id="Layer_1" data-name="Layer 1" xmlns="http://www.w3.org/2000/svg" viewBox="0 0 53.31 61.8"><defs><style>.cls-1,.cls-3,.cls-4,.cls-5,.cls-6,.cls-7,.cls-8{fill:#ed1c24;}.cls-2{fill:#ec2027;}.cls-3,.cls-4,.cls-5,.cls-6,.cls-7{stroke:#ec2027;stroke-miterlimit:10;}.cls-3{stroke-width:1.02px;}.cls-4{stroke-width:0.97px;}.cls-5{stroke-width:0.98px;}.cls-6{stroke-width:0.98px;}.cls-7{stroke-width:0.97px;}.cls-8{font-size:6.53px;font-family:Arial-BoldMT, Arial;font-weight:700;}.cls-9{letter-spacing:-0.07em;}</style></defs><path class="cls-1" d="M45.05,64.23H19.53a4.12,4.12,0,0,1-4.1-4.12V14.34h8V6.73H23l.41-.39-8,7.26-.14.13-.23.22V60.11a4.49,4.49,0,0,0,4.47,4.5H45.59Zm-22-57V14H15.59Zm32-.84H23.46v.39H55.09a4.11,4.11,0,0,1,4.1,4.1v30c.13,0,.26.1.38.15V10.83A4.49,4.49,0,0,0,55.09,6.34Z" transform="translate(-14.54 -5.83)"/><path class="cls-2" d="M14.54,14.23v-.77l.55-.5,7.48-7,.19-.18H55.09a5,5,0,0,1,5,5V41.77l-.78-.33L59,41.33l-.34-.13V10.83a3.59,3.59,0,0,0-3.59-3.59H24v7.62H16V60.11a3.6,3.6,0,0,0,3.58,3.61h25.7l.13.1.52.37,1.35.93H19.53a5,5,0,0,1-5-5V14.49m2.37-1h5.66V8.34Z" transform="translate(-14.54 -5.83)"/><path class="cls-3" d="M59.57,42.88l-.38-.15a12.36,12.36,0,0,0-4.44-.81,12.55,12.55,0,0,0-4.91,1l-.82.38a12.65,12.65,0,0,0-4.16,3.42l-.29.39a12.4,12.4,0,0,0-1.79,3.49c-.05.12-.09.25-.13.38a12.51,12.51,0,0,0-.5,3.42v.39a12.56,12.56,0,0,0,4.58,9.45c.16.13.32.26.49.38A12.59,12.59,0,1,0,59.57,42.88ZM54.75,66.73a12.09,12.09,0,0,1-6.87-2.12l-.53-.38a12.17,12.17,0,0,1-4.82-9.45v-.39A12.15,12.15,0,0,1,43.05,51l.12-.38A12.35,12.35,0,0,1,45,47.1l.31-.39a12.34,12.34,0,0,1,4.56-3.42c.33-.14.66-.26,1-.38a12.31,12.31,0,0,1,8.27.22l.38.16a12.22,12.22,0,0,1-4.82,23.44Z" transform="translate(-14.54 -5.83)"/><path class="cls-3" d="M62.41,51.55a12.52,12.52,0,0,0-2.84,1.25l-.38.22a43.4,43.4,0,0,0-6.39,4.87l-.15.14-2.52-3.25-.3-.39L49.5,54a.19.19,0,1,1,.3-.24l.51.66.3.39,2.08,2.69a42,42,0,0,1,6.5-4.89c.12-.08.25-.15.38-.22a13,13,0,0,1,2.74-1.18.19.19,0,1,1,.1.37Z" transform="translate(-14.54 -5.83)"/><path class="cls-3" d="M51.78,24.5H20.85a.2.2,0,0,1-.19-.2.2.2,0,0,1,.19-.19H51.78a.2.2,0,0,1,.19.19A.2.2,0,0,1,51.78,24.5Z" transform="translate(-14.54 -5.83)"/><path class="cls-3" d="M51.78,28.26H20.85a.19.19,0,0,1-.19-.19.2.2,0,0,1,.19-.19H51.78a.2.2,0,0,1,.19.19A.19.19,0,0,1,51.78,28.26Z" transform="translate(-14.54 -5.83)"/><path class="cls-3" d="M51.78,32H20.85a.19.19,0,0,1-.19-.19.2.2,0,0,1,.19-.19H51.78a.2.2,0,0,1,.19.19A.19.19,0,0,1,51.78,32Z" transform="translate(-14.54 -5.83)"/><path class="cls-3" d="M51.78,35.8H20.85a.2.2,0,0,1-.19-.19.19.19,0,0,1,.19-.19H51.78a.19.19,0,0,1,.19.19A.2.2,0,0,1,51.78,35.8Z" transform="translate(-14.54 -5.83)"/><path class="cls-3" d="M51.78,39.57H20.85a.2.2,0,0,1-.19-.19.19.19,0,0,1,.19-.19H51.78a.19.19,0,0,1,.19.19A.2.2,0,0,1,51.78,39.57Z" transform="translate(-14.54 -5.83)"/><path class="cls-4" d="M45.22,42.91l-.74.38H20.83a.18.18,0,0,1-.17-.19.19.19,0,0,1,.17-.19Z" transform="translate(-14.54 -5.83)"/><path class="cls-5" d="M42,46.71l-.27.39H20.84a.18.18,0,0,1-.18-.19.19.19,0,0,1,.18-.2Z" transform="translate(-14.54 -5.83)"/><path class="cls-6" d="M40.11,50.59c0,.12-.08.25-.11.38H20.84a.18.18,0,0,1-.18-.19.19.19,0,0,1,.18-.19Z" transform="translate(-14.54 -5.83)"/><path class="cls-7" d="M39.41,54.78H20.83a.19.19,0,0,1-.17-.2.19.19,0,0,1,.17-.19H39.41v.39Z" transform="translate(-14.54 -5.83)"/><text class="cls-8" transform="translate(5.59 16.61)"><tspan class="cls-9">VA</tspan><tspan x="8.1" y="0">T</tspan></text></svg>