<svg xmlns="http://www.w3.org/2000/svg" xmlns:xlink="http://www.w3.org/1999/xlink" x="0px" y="0px"
	 viewBox="0 0 568.34 145.84">
<g>
	<path d="M305.88,74.04h-9.89l-3.94-10.23h-18.01l-3.72,10.23h-9.65L278.22,29h9.61L305.88,74.04z M289.13,56.22l-6.21-16.71
		l-6.08,16.71H289.13z"/>
	<path d="M310.63,28.99h9.09v24.4c0,3.87,0.12,6.39,0.34,7.53c0.38,1.84,1.32,3.32,2.79,4.44s3.46,1.68,6,1.68
		c2.58,0,4.52-0.52,5.84-1.58c1.31-1.06,2.1-2.35,2.37-3.89s0.4-4.09,0.4-7.66V28.99h9.09v23.66c0,5.41-0.24,9.23-0.73,11.46
		c-0.49,2.24-1.4,4.11-2.72,5.65s-3.09,2.76-5.3,3.67s-5.1,1.36-8.67,1.36c-4.3,0-7.56-0.5-9.79-1.49s-3.99-2.28-5.27-3.87
		c-1.29-1.58-2.14-3.25-2.55-4.99c-0.59-2.58-0.89-6.39-0.89-11.43L310.63,28.99L310.63,28.99z"/>
	<path d="M356.12,28.99h16.62c3.75,0,6.61,0.29,8.58,0.86c2.65,0.78,4.91,2.16,6.79,4.15c1.89,1.99,3.32,4.42,4.3,7.3
		s1.48,6.43,1.48,10.65c0,3.71-0.47,6.9-1.39,9.59c-1.13,3.27-2.74,5.93-4.82,7.96c-1.57,1.54-3.71,2.74-6.39,3.59
		c-2,0.63-4.7,0.96-8.05,0.96h-17.12L356.12,28.99L356.12,28.99z M365.21,36.62v29.83H372c2.54,0,4.37-0.14,5.5-0.43
		c1.48-0.37,2.7-0.99,3.67-1.88s1.77-2.33,2.38-4.35c0.62-2.02,0.92-4.77,0.92-8.25s-0.3-6.15-0.92-8.02
		c-0.62-1.86-1.48-3.32-2.58-4.36s-2.51-1.75-4.21-2.12c-1.27-0.29-3.76-0.43-7.47-0.43C369.3,36.62,365.21,36.62,365.21,36.62z"/>
	<path d="M401.31,74.04V28.99h9.09v45.04C410.4,74.04,401.31,74.04,401.31,74.04z"/>
	<path d="M429.21,74.04V36.62h-13.37V29h35.8v7.62h-13.33v37.43h-9.1V74.04z"/>
	<path d="M457.24,74.04V28.99h9.09v45.04C466.33,74.04,457.24,74.04,457.24,74.04z"/>
	<path d="M475.09,74.04V28.99h8.85l18.44,30.08V28.99h8.45v45.04h-9.12l-18.16-29.38v29.38C483.54,74.04,475.09,74.04,475.09,74.04z
		"/>
	<path d="M541.4,57.48v-7.59H561v17.95c-1.9,1.84-4.66,3.47-8.29,4.87c-3.62,1.4-7.27,2.11-10.99,2.11c-4.71,0-8.82-0.99-12.32-2.96
		c-3.51-1.98-6.13-4.8-7.9-8.48c-1.76-3.67-2.65-7.68-2.65-12c0-4.68,0.98-8.86,2.95-12.5c1.97-3.65,4.85-6.44,8.64-8.39
		c2.89-1.49,6.48-2.24,10.78-2.24c5.59,0,9.96,1.18,13.11,3.52c3.15,2.34,5.16,5.58,6.07,9.73l-9.03,1.69
		c-0.63-2.21-1.83-3.96-3.58-5.24c-1.75-1.28-3.94-1.92-6.56-1.92c-3.97,0-7.13,1.26-9.47,3.78c-2.34,2.52-3.52,6.26-3.52,11.21
		c0,5.35,1.19,9.36,3.57,12.03s5.49,4.01,9.35,4.01c1.9,0,3.81-0.37,5.73-1.12c1.91-0.75,3.55-1.65,4.93-2.72v-5.71H541.4V57.48z"/>
</g>
<g>
	<g>
		<g>
			<g>
				<defs>
					<polygon id="SVGID_1_" points="28.76,9.12 63.57,107.06 14.38,124.18 -37,102.16 4.07,0 25.49,0 					"/>
				</defs>
				<clipPath id="SVGID_2_">
					<use xlink:href="#SVGID_1_"  style="overflow:visible;"/>
				</clipPath>
				<g style="clip-path:url(#SVGID_2_);">
					<rect x="10.01" y="9.12" style="fill:#12100B;" width="56.84" height="13.09"/>
					<rect x="10.01" y="29.66" style="fill:#12100B;" width="56.84" height="13.09"/>
					<rect x="10.01" y="50.19" style="fill:#12100B;" width="56.84" height="13.09"/>
					<rect x="10.01" y="70.62" style="fill:#12100B;" width="56.84" height="13.09"/>
					<rect x="10.01" y="90.06" style="fill:#12100B;" width="56.84" height="13.09"/>
				</g>
			</g>
		</g>
	</g>
	<path style="fill:#E30A13;" d="M32.65,9.12h23.48c0,0,19.24-0.3,23.86,15.08c4.61,15.37-6.37,28.94-9.43,29.68
		c0,0,12.87,1.78,15.48,18.67c2.6,16.89-13.98,30.3-20.31,31l-4.68-13.88c0,0,8.18-3.19,9.59-12.87
		c1.41-9.67-6.69-13.02-12.71-13.61l-6.25,0.07l-4.46-13.09l6.09,0.15c0,0,9.82-0.52,12.49-10.64c2.67-10.12-2.23-17.35-12.71-17.41
		L37.61,22.2L32.65,9.12z"/>
	<polygon style="fill:#12100B;" points="88.04,96.02 109.37,27.88 118.99,27.88 138.53,71.61 185.64,27.88 195.46,27.88 
		175.42,96.02 149.15,96.02 157.68,68.73 129.8,96.02 123.05,96.02 107.88,67.94 99.74,96.02 	"/>
	<path style="fill:#12100B;" d="M260.67,27.88h-45.43c0,0-8.73-0.2-15.48,6.55s-4.96,19.83,4.27,31.54
		c9.22,11.7,14.88,18.54,9.43,19.54h-27.37l-2.58,10.51h44.63c0,0,13.98,0.4,19.64-13.19c5.65-13.59-16.66-30.65-21.62-40.57
		c0,0-1.89-3.37,2.28-3.37c4.16,0,28.56-0.1,28.56-0.1L260.67,27.88z"/>
</g>
<path style="fill:#E30A13;" d="M12.03,128.89h181.06c1.31,0,2.37,1.06,2.37,2.37l0,0c0,1.31-1.06,2.37-2.37,2.37H12.03
	c-1.31,0-2.37-1.06-2.37-2.37l0,0C9.67,129.95,10.73,128.89,12.03,128.89z"/>
<path style="fill:#12100B;" d="M12.03,120.43h181.06c1.31,0,2.37,1.06,2.37,2.37l0,0c0,1.31-1.06,2.37-2.37,2.37H12.03
	c-1.31,0-2.37-1.06-2.37-2.37l0,0C9.67,121.49,10.73,120.43,12.03,120.43z"/>
<g>
	<g>
		<path style="fill:#858686;" d="M273.41,92.48l1.97,0.5c-0.42,1.62-1.15,2.86-2.24,3.71c-1.07,0.85-2.39,1.28-3.94,1.28
			c-1.61,0-2.91-0.33-3.93-0.98c-1-0.65-1.77-1.61-2.3-2.84c-0.52-1.25-0.79-2.58-0.79-4c0-1.55,0.29-2.91,0.89-4.07
			s1.43-2.04,2.53-2.63c1.1-0.61,2.31-0.9,3.61-0.9c1.49,0,2.75,0.38,3.76,1.14s1.72,1.83,2.13,3.2l-1.95,0.45
			c-0.35-1.08-0.85-1.88-1.5-2.37c-0.65-0.5-1.48-0.75-2.48-0.75c-1.14,0-2.11,0.28-2.88,0.83c-0.77,0.55-1.31,1.28-1.62,2.21
			c-0.31,0.92-0.47,1.88-0.47,2.87c0,1.27,0.19,2.38,0.56,3.32s0.94,1.65,1.72,2.12s1.62,0.7,2.53,0.7c1.11,0,2.04-0.31,2.81-0.96
			C272.62,94.69,273.14,93.73,273.41,92.48z"/>
		<path style="fill:#858686;" d="M278.29,97.72V82.8h1.97v6.13h7.76V82.8h1.97v14.92h-1.97v-7.03h-7.76v7.03H278.29z"/>
		<path style="fill:#858686;" d="M292.07,97.72l5.73-14.92h2.13l6.11,14.92h-2.25l-1.74-4.52h-6.23l-1.64,4.52H292.07z
			 M296.37,91.59h5.06l-1.56-4.14c-0.48-1.26-0.83-2.28-1.06-3.1c-0.19,0.96-0.45,1.91-0.8,2.86L296.37,91.59z"/>
		<path style="fill:#858686;" d="M308.06,97.72V82.8h6.62c1.33,0,2.34,0.14,3.03,0.4c0.69,0.27,1.25,0.75,1.65,1.42
			c0.41,0.68,0.62,1.43,0.62,2.25c0,1.06-0.34,1.95-1.03,2.68c-0.69,0.72-1.75,1.19-3.17,1.39c0.52,0.26,0.92,0.5,1.19,0.75
			c0.58,0.52,1.12,1.19,1.64,1.98l2.6,4.06h-2.48l-1.97-3.1c-0.58-0.9-1.05-1.58-1.42-2.05c-0.37-0.47-0.71-0.8-1-1
			c-0.29-0.19-0.59-0.33-0.9-0.4c-0.22-0.05-0.59-0.07-1.1-0.07h-2.28v6.63h-2L308.06,97.72L308.06,97.72z M310.03,89.37h4.24
			c0.9,0,1.61-0.09,2.12-0.28s0.9-0.49,1.17-0.9c0.27-0.41,0.4-0.85,0.4-1.34c0-0.71-0.26-1.28-0.77-1.74
			c-0.51-0.45-1.32-0.68-2.42-0.68h-4.72v4.93L310.03,89.37L310.03,89.37z"/>
		<path style="fill:#858686;" d="M326.91,97.72V84.56h-4.92V82.8h11.83v1.76h-4.94v13.16H326.91z"/>
		<path style="fill:#858686;" d="M336.3,97.72V82.8h10.79v1.76h-8.81v4.57h8.25v1.75h-8.25v5.08h9.16v1.76L336.3,97.72L336.3,97.72z
			"/>
		<path style="fill:#858686;" d="M350.62,97.72V82.8h6.62c1.33,0,2.34,0.14,3.03,0.4c0.69,0.27,1.25,0.75,1.65,1.42
			c0.41,0.68,0.62,1.43,0.62,2.25c0,1.06-0.34,1.95-1.03,2.68c-0.69,0.72-1.75,1.19-3.17,1.39c0.52,0.26,0.92,0.5,1.19,0.75
			c0.58,0.52,1.12,1.19,1.64,1.98l2.6,4.06h-2.48l-1.97-3.1c-0.58-0.9-1.05-1.58-1.42-2.05c-0.37-0.47-0.71-0.8-1-1
			c-0.29-0.19-0.59-0.33-0.9-0.4c-0.22-0.05-0.59-0.07-1.1-0.07h-2.28v6.63h-2L350.62,97.72L350.62,97.72z M352.6,89.37h4.24
			c0.9,0,1.61-0.09,2.12-0.28s0.9-0.49,1.17-0.9c0.27-0.41,0.4-0.85,0.4-1.34c0-0.71-0.26-1.28-0.77-1.74
			c-0.51-0.45-1.32-0.68-2.42-0.68h-4.72v4.93L352.6,89.37L352.6,89.37z"/>
		<path style="fill:#858686;" d="M366.09,97.72V82.8h10.79v1.76h-8.81v4.57h8.25v1.75h-8.25v5.08h9.16v1.76L366.09,97.72
			L366.09,97.72z"/>
		<path style="fill:#858686;" d="M380.38,97.72V82.8h5.14c1.17,0,2.05,0.07,2.66,0.21c0.85,0.2,1.58,0.55,2.19,1.07
			c0.79,0.66,1.38,1.51,1.77,2.55c0.38,1.04,0.58,2.21,0.58,3.54c0,1.13-0.13,2.13-0.4,3.02c-0.27,0.87-0.61,1.6-1.01,2.17
			c-0.42,0.57-0.86,1.03-1.36,1.35c-0.49,0.33-1.08,0.58-1.78,0.75c-0.7,0.16-1.49,0.26-2.4,0.26H380.38L380.38,97.72z
			 M382.35,95.96h3.18c0.98,0,1.76-0.09,2.32-0.28s1-0.44,1.34-0.77c0.47-0.47,0.83-1.1,1.1-1.89c0.27-0.79,0.4-1.75,0.4-2.88
			c0-1.56-0.26-2.76-0.77-3.6c-0.51-0.84-1.13-1.4-1.86-1.69c-0.52-0.2-1.38-0.3-2.55-0.3h-3.13v11.41
			C382.38,95.96,382.35,95.96,382.35,95.96z"/>
		<path style="fill:#858686;" d="M399.27,97.72L405,82.8h2.13l6.11,14.92h-2.25l-1.74-4.52h-6.23l-1.64,4.52H399.27z M403.57,91.59
			h5.06l-1.56-4.14c-0.48-1.26-0.83-2.28-1.06-3.1c-0.19,0.96-0.45,1.91-0.8,2.86L403.57,91.59z"/>
		<path style="fill:#858686;" d="M425.86,92.48l1.97,0.5c-0.41,1.62-1.15,2.86-2.24,3.71c-1.07,0.85-2.39,1.28-3.94,1.28
			c-1.61,0-2.91-0.33-3.93-0.98c-1-0.65-1.77-1.61-2.3-2.84c-0.52-1.24-0.79-2.58-0.79-4c0-1.55,0.29-2.91,0.89-4.07
			c0.59-1.15,1.43-2.04,2.53-2.63c1.1-0.61,2.3-0.9,3.61-0.9c1.49,0,2.75,0.38,3.76,1.14s1.72,1.83,2.13,3.2l-1.95,0.45
			c-0.35-1.08-0.85-1.88-1.5-2.37c-0.65-0.5-1.49-0.75-2.48-0.75c-1.14,0-2.11,0.28-2.88,0.83c-0.77,0.55-1.32,1.28-1.62,2.21
			s-0.47,1.88-0.47,2.87c0,1.27,0.19,2.38,0.56,3.32s0.94,1.65,1.72,2.12s1.62,0.7,2.53,0.7c1.11,0,2.04-0.31,2.81-0.96
			C425.06,94.7,425.6,93.73,425.86,92.48z"/>
		<path style="fill:#858686;" d="M441.34,92.48l1.97,0.5c-0.41,1.62-1.15,2.86-2.24,3.71c-1.07,0.85-2.39,1.28-3.94,1.28
			c-1.61,0-2.91-0.33-3.93-0.98c-1-0.65-1.77-1.61-2.3-2.84c-0.52-1.24-0.79-2.58-0.79-4c0-1.55,0.29-2.91,0.89-4.07
			c0.59-1.15,1.43-2.04,2.53-2.63c1.1-0.61,2.3-0.9,3.61-0.9c1.49,0,2.75,0.38,3.76,1.14s1.72,1.83,2.13,3.2l-1.95,0.45
			c-0.35-1.08-0.85-1.88-1.5-2.37c-0.65-0.5-1.49-0.75-2.48-0.75c-1.14,0-2.11,0.28-2.88,0.83c-0.77,0.55-1.32,1.28-1.62,2.21
			s-0.47,1.88-0.47,2.87c0,1.27,0.19,2.38,0.56,3.32s0.94,1.65,1.72,2.12s1.62,0.7,2.53,0.7c1.11,0,2.04-0.31,2.81-0.96
			C440.54,94.7,441.07,93.73,441.34,92.48z"/>
		<path style="fill:#858686;" d="M445.56,90.44c0-2.47,0.66-4.42,1.99-5.82s3.04-2.1,5.15-2.1c1.38,0,2.62,0.33,3.73,0.99
			c1.11,0.65,1.95,1.57,2.53,2.75s0.87,2.52,0.87,4.01c0,1.51-0.3,2.87-0.92,4.06c-0.61,1.19-1.48,2.1-2.6,2.72
			s-2.33,0.92-3.62,0.92c-1.41,0-2.66-0.34-3.76-1.01s-1.95-1.61-2.52-2.77C445.85,93,445.56,91.75,445.56,90.44z M447.6,90.48
			c0,1.79,0.49,3.22,1.45,4.25c0.97,1.04,2.18,1.55,3.64,1.55c1.48,0,2.7-0.52,3.67-1.56c0.96-1.05,1.45-2.53,1.45-4.45
			c0-1.21-0.21-2.27-0.62-3.18s-1.01-1.61-1.81-2.11s-1.68-0.75-2.66-0.75c-1.4,0-2.6,0.48-3.61,1.45S447.6,88.23,447.6,90.48z"/>
		<path style="fill:#858686;" d="M472.58,82.79h1.97v8.62c0,1.5-0.17,2.69-0.51,3.58s-0.96,1.6-1.84,2.16
			c-0.89,0.55-2.05,0.83-3.48,0.83c-1.4,0-2.54-0.24-3.43-0.72c-0.89-0.48-1.53-1.18-1.9-2.09c-0.38-0.91-0.57-2.16-0.57-3.74V82.8
			h1.97v8.61c0,1.29,0.12,2.25,0.36,2.87s0.65,1.08,1.25,1.42c0.58,0.34,1.31,0.5,2.16,0.5c1.46,0,2.48-0.33,3.1-0.99
			c0.62-0.65,0.92-1.92,0.92-3.8V82.79L472.58,82.79z"/>
		<path style="fill:#858686;" d="M478.25,97.72V82.8h2.03l7.83,11.71V82.8H490v14.92h-2.03L480.14,86v11.72H478.25z"/>
		<path style="fill:#858686;" d="M497.53,97.72V84.56h-4.92V82.8h11.83v1.76h-4.94v13.16H497.53z"/>
		<path style="fill:#858686;" d="M503.7,97.72l5.73-14.92h2.13l6.11,14.92h-2.25l-1.74-4.52h-6.23l-1.64,4.52H503.7z M508,91.59
			h5.06l-1.56-4.14c-0.48-1.26-0.83-2.28-1.06-3.1c-0.19,0.96-0.45,1.91-0.8,2.86L508,91.59z"/>
		<path style="fill:#858686;" d="M519.63,97.72V82.8h2.03l7.83,11.71V82.8h1.89v14.92h-2.03L521.52,86v11.72H519.63z"/>
		<path style="fill:#858686;" d="M538.92,97.72V84.56H534V82.8h11.83v1.76h-4.94v13.16H538.92z"/>
		<path style="fill:#858686;" d="M547.6,92.92l1.86-0.16c0.09,0.75,0.29,1.36,0.62,1.84c0.33,0.48,0.83,0.86,1.5,1.17
			c0.68,0.29,1.45,0.44,2.3,0.44c0.76,0,1.42-0.12,1.99-0.34c0.57-0.22,1-0.54,1.28-0.92s0.42-0.82,0.42-1.28
			c0-0.47-0.14-0.87-0.41-1.22s-0.72-0.64-1.34-0.89c-0.4-0.15-1.28-0.4-2.66-0.72c-1.38-0.33-2.33-0.64-2.88-0.93
			c-0.71-0.37-1.25-0.84-1.6-1.39s-0.52-1.18-0.52-1.85c0-0.76,0.21-1.46,0.64-2.11s1.05-1.15,1.88-1.49
			c0.82-0.34,1.74-0.51,2.74-0.51c1.11,0,2.09,0.17,2.93,0.54c0.85,0.36,1.49,0.89,1.95,1.57c0.45,0.69,0.7,1.48,0.73,2.35
			l-1.89,0.14c-0.1-0.94-0.44-1.65-1.04-2.13c-0.58-0.48-1.46-0.72-2.6-0.72c-1.2,0-2.06,0.22-2.61,0.65s-0.82,0.97-0.82,1.58
			c0,0.54,0.2,0.98,0.58,1.33s1.38,0.7,2.97,1.06c1.61,0.36,2.7,0.68,3.3,0.96c0.87,0.4,1.5,0.91,1.92,1.53
			c0.41,0.62,0.62,1.32,0.62,2.12c0,0.79-0.23,1.54-0.68,2.25s-1.11,1.25-1.96,1.64c-0.85,0.38-1.81,0.58-2.88,0.58
			c-1.35,0-2.48-0.2-3.39-0.59s-1.63-0.99-2.14-1.77C547.91,94.85,547.63,93.92,547.6,92.92z"/>
	</g>
</g>
<g style="enable-background:new    ;">
	<path style="fill:#E30A13;" d="M200.59,134.21v-18.62h6.99c1.42,0,2.56,0.19,3.42,0.57s1.53,0.96,2.02,1.74
		c0.49,0.78,0.73,1.6,0.73,2.46c0,0.8-0.22,1.55-0.65,2.25c-0.43,0.7-1.08,1.27-1.96,1.7c1.13,0.33,1.99,0.89,2.6,1.69
		s0.91,1.74,0.91,2.82c0,0.87-0.18,1.68-0.55,2.43c-0.37,0.75-0.82,1.33-1.37,1.73c-0.54,0.41-1.22,0.71-2.04,0.92
		c-0.82,0.21-1.82,0.31-3,0.31H200.59z M203.05,123.41h4.03c1.09,0,1.88-0.07,2.35-0.22c0.63-0.19,1.1-0.5,1.42-0.93
		c0.32-0.43,0.48-0.97,0.48-1.63c0-0.62-0.15-1.16-0.44-1.63c-0.3-0.47-0.72-0.79-1.27-0.96c-0.55-0.17-1.49-0.26-2.83-0.26h-3.72
		V123.41z M203.05,132.01h4.64c0.8,0,1.35-0.03,1.68-0.09c0.57-0.1,1.04-0.27,1.42-0.51c0.38-0.24,0.69-0.58,0.94-1.04
		s0.37-0.98,0.37-1.57c0-0.69-0.18-1.3-0.53-1.81c-0.36-0.51-0.85-0.87-1.48-1.08c-0.63-0.21-1.54-0.31-2.73-0.31h-4.31V132.01z"/>
	<path style="fill:#E30A13;" d="M226.59,134.21v-1.98c-1.05,1.52-2.48,2.29-4.28,2.29c-0.8,0-1.54-0.15-2.23-0.46
		c-0.69-0.3-1.2-0.69-1.54-1.15c-0.33-0.46-0.57-1.03-0.71-1.7c-0.09-0.45-0.14-1.16-0.14-2.13v-8.36h2.29v7.48
		c0,1.19,0.05,2,0.14,2.41c0.14,0.6,0.45,1.07,0.92,1.42c0.47,0.34,1.04,0.51,1.73,0.51s1.33-0.18,1.93-0.53
		c0.6-0.35,1.03-0.83,1.28-1.44s0.38-1.48,0.38-2.64v-7.23h2.29v13.49H226.59z"/>
	<path style="fill:#E30A13;" d="M232.23,118.21v-2.63h2.29v2.63H232.23z M232.23,134.21v-13.49h2.29v13.49H232.23z"/>
	<path style="fill:#E30A13;" d="M237.95,134.21v-18.62h2.29v18.62H237.95z"/>
	<path style="fill:#E30A13;" d="M252.53,134.21v-1.7c-0.86,1.34-2.11,2.01-3.77,2.01c-1.08,0-2.06-0.3-2.97-0.89s-1.6-1.42-2.1-2.48
		c-0.5-1.06-0.74-2.28-0.74-3.66c0-1.35,0.22-2.57,0.67-3.67s1.12-1.94,2.02-2.52c0.9-0.58,1.9-0.88,3.01-0.88
		c0.81,0,1.54,0.17,2.17,0.51c0.63,0.34,1.15,0.79,1.55,1.34v-6.68h2.27v18.62H252.53z M245.3,127.47c0,1.73,0.36,3.02,1.09,3.87
		c0.73,0.86,1.59,1.28,2.58,1.28c1,0,1.85-0.41,2.55-1.23c0.7-0.82,1.05-2.06,1.05-3.74c0-1.85-0.36-3.2-1.07-4.07
		c-0.71-0.86-1.59-1.3-2.63-1.3c-1.02,0-1.87,0.42-2.55,1.25C245.64,124.38,245.3,125.69,245.3,127.47z"/>
	<path style="fill:#E30A13;" d="M258.26,118.21v-2.63h2.29v2.63H258.26z M258.26,134.21v-13.49h2.29v13.49H258.26z"/>
	<path style="fill:#E30A13;" d="M264.03,134.21v-13.49h2.06v1.92c0.99-1.48,2.42-2.22,4.29-2.22c0.81,0,1.56,0.15,2.24,0.44
		c0.68,0.29,1.19,0.67,1.53,1.15c0.34,0.47,0.58,1.04,0.71,1.69c0.08,0.42,0.13,1.17,0.13,2.22v8.29h-2.29V126
		c0-0.93-0.09-1.63-0.27-2.09c-0.18-0.46-0.49-0.83-0.95-1.11s-0.98-0.41-1.59-0.41c-0.97,0-1.81,0.31-2.52,0.93
		c-0.71,0.62-1.06,1.79-1.06,3.52v7.37H264.03z"/>
	<path style="fill:#E30A13;" d="M278.08,135.33l2.22,0.33c0.09,0.69,0.35,1.19,0.77,1.5c0.57,0.42,1.34,0.63,2.32,0.63
		c1.06,0,1.88-0.21,2.45-0.63c0.58-0.42,0.97-1.02,1.17-1.78c0.12-0.47,0.17-1.44,0.17-2.93c-1,1.18-2.24,1.77-3.73,1.77
		c-1.85,0-3.29-0.67-4.31-2.01s-1.52-2.94-1.52-4.82c0-1.29,0.23-2.47,0.7-3.56c0.47-1.09,1.14-1.93,2.03-2.52
		c0.88-0.59,1.92-0.89,3.12-0.89c1.59,0,2.9,0.64,3.94,1.93v-1.63h2.11v11.66c0,2.1-0.21,3.59-0.64,4.46
		c-0.43,0.88-1.11,1.57-2.03,2.08c-0.93,0.51-2.07,0.76-3.42,0.76c-1.61,0-2.91-0.36-3.9-1.09
		C278.52,137.87,278.04,136.78,278.08,135.33z M279.97,127.22c0,1.77,0.35,3.06,1.05,3.88c0.7,0.81,1.58,1.22,2.64,1.22
		c1.05,0,1.93-0.4,2.64-1.21c0.71-0.81,1.07-2.08,1.07-3.8c0-1.65-0.37-2.9-1.1-3.73s-1.62-1.26-2.65-1.26
		c-1.02,0-1.88,0.41-2.59,1.24C280.33,124.37,279.97,125.59,279.97,127.22z"/>
	<path style="fill:#E30A13;" d="M305.26,134.21v-7.89l-7.18-10.73h3l3.67,5.61c0.68,1.05,1.31,2.1,1.89,3.15
		c0.56-0.97,1.24-2.07,2.03-3.29l3.61-5.47h2.87l-7.43,10.73v7.89H305.26z"/>
	<path style="fill:#E30A13;" d="M313.84,127.46c0-2.5,0.69-4.35,2.08-5.55c1.16-1,2.57-1.5,4.24-1.5c1.85,0,3.37,0.61,4.55,1.82
		c1.18,1.21,1.77,2.89,1.77,5.04c0,1.74-0.26,3.1-0.78,4.1c-0.52,1-1.28,1.77-2.27,2.32c-1,0.55-2.08,0.83-3.26,0.83
		c-1.89,0-3.42-0.61-4.58-1.82C314.42,131.48,313.84,129.74,313.84,127.46z M316.19,127.46c0,1.73,0.38,3.02,1.13,3.88
		s1.7,1.29,2.85,1.29c1.13,0,2.08-0.43,2.83-1.3c0.75-0.86,1.13-2.18,1.13-3.95c0-1.67-0.38-2.93-1.14-3.79
		c-0.76-0.86-1.7-1.29-2.83-1.29c-1.14,0-2.09,0.43-2.85,1.28S316.19,125.73,316.19,127.46z"/>
	<path style="fill:#E30A13;" d="M338,134.21v-1.98c-1.05,1.52-2.48,2.29-4.28,2.29c-0.8,0-1.54-0.15-2.23-0.46s-1.2-0.69-1.54-1.15
		c-0.33-0.46-0.57-1.03-0.71-1.7c-0.09-0.45-0.14-1.16-0.14-2.13v-8.36h2.29v7.48c0,1.19,0.05,2,0.14,2.41
		c0.14,0.6,0.45,1.07,0.92,1.42s1.04,0.51,1.73,0.51c0.69,0,1.33-0.18,1.93-0.53c0.6-0.35,1.03-0.83,1.28-1.44s0.38-1.48,0.38-2.64
		v-7.23h2.29v13.49H338z"/>
	<path style="fill:#E30A13;" d="M343.6,134.21v-13.49h2.06v2.04c0.52-0.96,1.01-1.59,1.45-1.89s0.93-0.46,1.47-0.46
		c0.77,0,1.55,0.25,2.35,0.74l-0.79,2.12c-0.56-0.33-1.12-0.5-1.68-0.5c-0.5,0-0.95,0.15-1.35,0.45c-0.4,0.3-0.68,0.72-0.85,1.25
		c-0.25,0.81-0.38,1.7-0.38,2.67v7.06H343.6z"/>
	<path style="fill:#E30A13;" d="M359.71,134.21v-18.62h6.99c1.42,0,2.56,0.19,3.42,0.57s1.53,0.96,2.02,1.74
		c0.49,0.78,0.73,1.6,0.73,2.46c0,0.8-0.22,1.55-0.65,2.25c-0.43,0.7-1.08,1.27-1.96,1.7c1.13,0.33,1.99,0.89,2.6,1.69
		s0.91,1.74,0.91,2.82c0,0.87-0.18,1.68-0.55,2.43c-0.37,0.75-0.82,1.33-1.37,1.73s-1.22,0.71-2.04,0.92
		c-0.82,0.21-1.82,0.31-3,0.31H359.71z M362.18,123.41h4.03c1.09,0,1.88-0.07,2.35-0.22c0.63-0.19,1.1-0.5,1.42-0.93
		c0.32-0.43,0.48-0.97,0.48-1.63c0-0.62-0.15-1.16-0.44-1.63c-0.3-0.47-0.72-0.79-1.27-0.96s-1.5-0.26-2.83-0.26h-3.72V123.41z
		 M362.18,132.01h4.64c0.8,0,1.35-0.03,1.68-0.09c0.57-0.1,1.04-0.27,1.42-0.51s0.69-0.58,0.94-1.04c0.25-0.45,0.37-0.98,0.37-1.57
		c0-0.69-0.18-1.3-0.53-1.81c-0.36-0.51-0.85-0.87-1.48-1.08c-0.63-0.21-1.54-0.31-2.73-0.31h-4.31V132.01z"/>
	<path style="fill:#E30A13;" d="M385.71,134.21v-1.98c-1.05,1.52-2.48,2.29-4.28,2.29c-0.8,0-1.54-0.15-2.23-0.46
		c-0.69-0.3-1.2-0.69-1.54-1.15c-0.33-0.46-0.57-1.03-0.71-1.7c-0.09-0.45-0.14-1.16-0.14-2.13v-8.36h2.29v7.48
		c0,1.19,0.05,2,0.14,2.41c0.14,0.6,0.45,1.07,0.92,1.42c0.46,0.34,1.04,0.51,1.73,0.51c0.69,0,1.33-0.18,1.93-0.53
		s1.03-0.83,1.28-1.44s0.38-1.48,0.38-2.64v-7.23h2.29v13.49H385.71z"/>
	<path style="fill:#E30A13;" d="M390.43,130.18l2.26-0.36c0.13,0.91,0.48,1.6,1.06,2.08c0.58,0.48,1.39,0.72,2.43,0.72
		c1.05,0,1.83-0.21,2.34-0.64c0.51-0.43,0.76-0.93,0.76-1.5c0-0.52-0.22-0.92-0.67-1.22c-0.31-0.2-1.09-0.46-2.34-0.78
		c-1.68-0.42-2.84-0.79-3.49-1.1c-0.65-0.31-1.14-0.74-1.47-1.28c-0.33-0.55-0.5-1.15-0.5-1.81c0-0.6,0.14-1.16,0.41-1.67
		s0.65-0.94,1.12-1.28c0.36-0.26,0.84-0.48,1.45-0.67c0.61-0.18,1.27-0.27,1.98-0.27c1.06,0,1.99,0.15,2.79,0.46
		c0.8,0.3,1.39,0.72,1.77,1.24c0.38,0.52,0.64,1.22,0.79,2.09l-2.24,0.31c-0.1-0.69-0.4-1.24-0.88-1.63
		c-0.49-0.39-1.17-0.58-2.06-0.58c-1.05,0-1.8,0.17-2.25,0.52c-0.45,0.35-0.67,0.75-0.67,1.22c0,0.3,0.09,0.56,0.28,0.8
		c0.19,0.25,0.48,0.45,0.88,0.61c0.23,0.08,0.9,0.28,2.02,0.58c1.62,0.43,2.75,0.79,3.39,1.06s1.14,0.67,1.5,1.2
		s0.55,1.18,0.55,1.96c0,0.76-0.22,1.48-0.67,2.15c-0.45,0.67-1.09,1.19-1.92,1.56c-0.84,0.37-1.79,0.55-2.85,0.55
		c-1.75,0-3.09-0.36-4.01-1.09C391.27,132.69,390.68,131.61,390.43,130.18z"/>
	<path style="fill:#E30A13;" d="M404.36,118.21v-2.63h2.29v2.63H404.36z M404.36,134.21v-13.49h2.29v13.49H404.36z"/>
	<path style="fill:#E30A13;" d="M410.13,134.21v-13.49h2.06v1.92c0.99-1.48,2.42-2.22,4.29-2.22c0.81,0,1.56,0.15,2.24,0.44
		c0.68,0.29,1.19,0.67,1.53,1.15s0.58,1.04,0.71,1.69c0.08,0.42,0.13,1.17,0.13,2.22v8.29h-2.29V126c0-0.93-0.09-1.63-0.27-2.09
		c-0.18-0.46-0.49-0.83-0.95-1.11s-0.98-0.41-1.59-0.41c-0.97,0-1.81,0.31-2.52,0.93s-1.06,1.79-1.06,3.52v7.37H410.13z"/>
	<path style="fill:#E30A13;" d="M433.84,129.86l2.36,0.29c-0.37,1.38-1.06,2.45-2.07,3.21c-1.01,0.76-2.29,1.14-3.86,1.14
		c-1.97,0-3.54-0.61-4.69-1.82c-1.16-1.21-1.73-2.92-1.73-5.11c0-2.27,0.58-4.03,1.75-5.29c1.17-1.25,2.68-1.88,4.55-1.88
		c1.8,0,3.28,0.61,4.42,1.84c1.14,1.23,1.72,2.96,1.72,5.18c0,0.13,0,0.34-0.01,0.61H426.2c0.08,1.48,0.5,2.62,1.26,3.4
		c0.75,0.79,1.69,1.18,2.82,1.18c0.84,0,1.55-0.22,2.15-0.66S433.49,130.83,433.84,129.86z M426.33,126.17h7.53
		c-0.1-1.13-0.39-1.99-0.86-2.55c-0.73-0.88-1.67-1.32-2.83-1.32c-1.05,0-1.93,0.35-2.65,1.05S426.4,124.99,426.33,126.17z"/>
	<path style="fill:#E30A13;" d="M438.16,130.18l2.26-0.36c0.13,0.91,0.48,1.6,1.06,2.08c0.58,0.48,1.39,0.72,2.43,0.72
		c1.05,0,1.83-0.21,2.34-0.64s0.76-0.93,0.76-1.5c0-0.52-0.22-0.92-0.67-1.22c-0.31-0.2-1.09-0.46-2.34-0.78
		c-1.68-0.42-2.84-0.79-3.49-1.1c-0.65-0.31-1.14-0.74-1.47-1.28c-0.33-0.55-0.5-1.15-0.5-1.81c0-0.6,0.14-1.16,0.41-1.67
		s0.65-0.94,1.12-1.28c0.36-0.26,0.84-0.48,1.46-0.67c0.61-0.18,1.27-0.27,1.97-0.27c1.06,0,1.99,0.15,2.79,0.46
		c0.8,0.3,1.39,0.72,1.77,1.24c0.38,0.52,0.64,1.22,0.79,2.09l-2.24,0.31c-0.1-0.69-0.4-1.24-0.88-1.63
		c-0.49-0.39-1.17-0.58-2.06-0.58c-1.05,0-1.8,0.17-2.25,0.52c-0.45,0.35-0.67,0.75-0.67,1.22c0,0.3,0.09,0.56,0.28,0.8
		c0.19,0.25,0.48,0.45,0.88,0.61c0.23,0.08,0.9,0.28,2.02,0.58c1.62,0.43,2.75,0.79,3.38,1.06s1.14,0.67,1.51,1.2
		s0.55,1.18,0.55,1.96c0,0.76-0.22,1.48-0.67,2.15c-0.44,0.67-1.09,1.19-1.92,1.56c-0.84,0.37-1.79,0.55-2.84,0.55
		c-1.75,0-3.09-0.36-4.01-1.09C439,132.69,438.41,131.61,438.16,130.18z"/>
	<path style="fill:#E30A13;" d="M451.16,130.18l2.26-0.36c0.13,0.91,0.48,1.6,1.06,2.08c0.58,0.48,1.39,0.72,2.43,0.72
		c1.05,0,1.83-0.21,2.34-0.64s0.76-0.93,0.76-1.5c0-0.52-0.22-0.92-0.67-1.22c-0.31-0.2-1.09-0.46-2.34-0.78
		c-1.68-0.42-2.84-0.79-3.49-1.1c-0.65-0.31-1.14-0.74-1.47-1.28c-0.33-0.55-0.5-1.15-0.5-1.81c0-0.6,0.14-1.16,0.41-1.67
		s0.65-0.94,1.12-1.28c0.36-0.26,0.84-0.48,1.46-0.67c0.61-0.18,1.27-0.27,1.97-0.27c1.06,0,1.99,0.15,2.79,0.46
		c0.8,0.3,1.39,0.72,1.77,1.24c0.38,0.52,0.64,1.22,0.79,2.09l-2.24,0.31c-0.1-0.69-0.4-1.24-0.88-1.63
		c-0.49-0.39-1.17-0.58-2.06-0.58c-1.05,0-1.8,0.17-2.25,0.52c-0.45,0.35-0.67,0.75-0.67,1.22c0,0.3,0.09,0.56,0.28,0.8
		c0.19,0.25,0.48,0.45,0.88,0.61c0.23,0.08,0.9,0.28,2.02,0.58c1.62,0.43,2.75,0.79,3.38,1.06s1.14,0.67,1.51,1.2
		s0.55,1.18,0.55,1.96c0,0.76-0.22,1.48-0.67,2.15c-0.44,0.67-1.09,1.19-1.92,1.56c-0.84,0.37-1.79,0.55-2.84,0.55
		c-1.75,0-3.09-0.36-4.01-1.09C452,132.69,451.42,131.61,451.16,130.18z"/>
	<path style="fill:#E30A13;" d="M472.61,134.21v-18.62h6.42c1.45,0,2.55,0.09,3.32,0.27c1.07,0.25,1.98,0.69,2.73,1.33
		c0.98,0.83,1.72,1.89,2.2,3.18c0.49,1.29,0.73,2.77,0.73,4.43c0,1.41-0.17,2.67-0.5,3.76c-0.33,1.09-0.75,2-1.27,2.71
		c-0.52,0.71-1.08,1.28-1.7,1.69c-0.61,0.41-1.36,0.72-2.22,0.93s-1.87,0.32-2.99,0.32H472.61z M475.07,132.01h3.98
		c1.23,0,2.19-0.12,2.89-0.34c0.7-0.23,1.26-0.55,1.67-0.96c0.58-0.58,1.04-1.37,1.37-2.36c0.33-0.99,0.49-2.18,0.49-3.59
		c0-1.95-0.32-3.45-0.96-4.49s-1.42-1.75-2.33-2.1c-0.66-0.25-1.72-0.38-3.19-0.38h-3.91V132.01z"/>
	<path style="fill:#E30A13;" d="M491.08,134.21v-13.49h2.06v2.04c0.53-0.96,1.01-1.59,1.46-1.89c0.44-0.3,0.93-0.46,1.47-0.46
		c0.77,0,1.55,0.25,2.35,0.74l-0.79,2.12c-0.56-0.33-1.12-0.5-1.68-0.5c-0.5,0-0.95,0.15-1.35,0.45c-0.4,0.3-0.68,0.72-0.85,1.25
		c-0.25,0.81-0.38,1.7-0.38,2.67v7.06H491.08z"/>
	<path style="fill:#E30A13;" d="M509,129.86l2.36,0.29c-0.37,1.38-1.06,2.45-2.07,3.21c-1.01,0.76-2.29,1.14-3.86,1.14
		c-1.97,0-3.54-0.61-4.69-1.82c-1.16-1.21-1.73-2.92-1.73-5.11c0-2.27,0.58-4.03,1.75-5.29c1.17-1.25,2.68-1.88,4.55-1.88
		c1.8,0,3.28,0.61,4.42,1.84c1.14,1.23,1.72,2.96,1.72,5.18c0,0.13,0,0.34-0.01,0.61h-10.06c0.08,1.48,0.5,2.62,1.26,3.4
		c0.75,0.79,1.69,1.18,2.82,1.18c0.84,0,1.55-0.22,2.15-0.66S508.66,130.83,509,129.86z M501.5,126.17h7.53
		c-0.1-1.13-0.39-1.99-0.86-2.55c-0.73-0.88-1.67-1.32-2.83-1.32c-1.05,0-1.93,0.35-2.65,1.05S501.57,124.99,501.5,126.17z"/>
	<path style="fill:#E30A13;" d="M523.04,132.54c-0.85,0.72-1.66,1.23-2.45,1.52c-0.78,0.3-1.62,0.44-2.52,0.44
		c-1.48,0-2.62-0.36-3.42-1.09c-0.8-0.72-1.19-1.65-1.19-2.78c0-0.66,0.15-1.26,0.45-1.81c0.3-0.55,0.69-0.98,1.18-1.31
		c0.49-0.33,1.04-0.58,1.65-0.75c0.45-0.12,1.13-0.23,2.03-0.34c1.85-0.22,3.21-0.48,4.08-0.79c0.01-0.31,0.01-0.51,0.01-0.6
		c0-0.93-0.22-1.59-0.65-1.97c-0.58-0.52-1.45-0.78-2.6-0.78c-1.08,0-1.87,0.19-2.38,0.57c-0.51,0.38-0.89,1.04-1.14,2l-2.24-0.3
		c0.2-0.96,0.54-1.73,1-2.32c0.47-0.59,1.14-1.04,2.02-1.36c0.88-0.32,1.9-0.48,3.06-0.48c1.15,0,2.09,0.14,2.81,0.41
		c0.72,0.27,1.25,0.61,1.59,1.02c0.34,0.41,0.58,0.93,0.71,1.56c0.08,0.39,0.11,1.09,0.11,2.11v3.05c0,2.13,0.05,3.47,0.15,4.03
		c0.1,0.56,0.29,1.1,0.58,1.62h-2.39C523.26,133.73,523.11,133.18,523.04,132.54z M522.85,127.44c-0.83,0.34-2.08,0.63-3.73,0.86
		c-0.94,0.14-1.61,0.29-2,0.46c-0.39,0.17-0.69,0.42-0.9,0.74c-0.21,0.33-0.32,0.69-0.32,1.09c0,0.61,0.23,1.12,0.69,1.52
		c0.46,0.41,1.14,0.61,2.03,0.61c0.88,0,1.66-0.19,2.35-0.58c0.69-0.38,1.19-0.91,1.51-1.58c0.25-0.52,0.37-1.28,0.37-2.29V127.44z"
		/>
	<path style="fill:#E30A13;" d="M528.71,134.21v-13.49h2.04v1.89c0.42-0.66,0.99-1.19,1.69-1.59s1.5-0.6,2.4-0.6
		c1,0,1.82,0.21,2.46,0.62s1.09,1,1.35,1.74c1.07-1.58,2.46-2.36,4.17-2.36c1.34,0,2.37,0.37,3.09,1.11s1.08,1.88,1.08,3.42v9.26
		h-2.27v-8.5c0-0.91-0.07-1.57-0.22-1.97c-0.15-0.4-0.42-0.73-0.81-0.97c-0.39-0.25-0.85-0.37-1.37-0.37
		c-0.95,0-1.74,0.32-2.36,0.95s-0.94,1.64-0.94,3.03v7.84h-2.29v-8.77c0-1.02-0.19-1.78-0.56-2.29c-0.37-0.51-0.98-0.76-1.83-0.76
		c-0.64,0-1.24,0.17-1.79,0.51c-0.55,0.34-0.94,0.83-1.19,1.49c-0.25,0.65-0.37,1.59-0.37,2.82v7H528.71z"/>
	<path style="fill:#E30A13;" d="M549.46,130.18l2.26-0.36c0.13,0.91,0.48,1.6,1.06,2.08c0.58,0.48,1.39,0.72,2.43,0.72
		c1.05,0,1.83-0.21,2.34-0.64c0.51-0.43,0.76-0.93,0.76-1.5c0-0.52-0.22-0.92-0.67-1.22c-0.31-0.2-1.09-0.46-2.34-0.78
		c-1.68-0.42-2.84-0.79-3.49-1.1c-0.65-0.31-1.14-0.74-1.47-1.28c-0.33-0.55-0.5-1.15-0.5-1.81c0-0.6,0.14-1.16,0.41-1.67
		s0.65-0.94,1.12-1.28c0.36-0.26,0.84-0.48,1.45-0.67c0.61-0.18,1.27-0.27,1.98-0.27c1.06,0,1.99,0.15,2.79,0.46
		c0.8,0.3,1.39,0.72,1.77,1.24c0.38,0.52,0.64,1.22,0.79,2.09l-2.24,0.31c-0.1-0.69-0.4-1.24-0.88-1.63
		c-0.49-0.39-1.17-0.58-2.06-0.58c-1.05,0-1.8,0.17-2.25,0.52c-0.45,0.35-0.67,0.75-0.67,1.22c0,0.3,0.09,0.56,0.28,0.8
		c0.19,0.25,0.48,0.45,0.88,0.61c0.23,0.08,0.9,0.28,2.02,0.58c1.62,0.43,2.75,0.79,3.39,1.06s1.14,0.67,1.5,1.2
		s0.55,1.18,0.55,1.96c0,0.76-0.22,1.48-0.67,2.15c-0.45,0.67-1.09,1.19-1.92,1.56c-0.84,0.37-1.79,0.55-2.85,0.55
		c-1.75,0-3.09-0.36-4.01-1.09C550.3,132.69,549.72,131.61,549.46,130.18z"/>
</g>
</svg>
