<?xml version="1.0" encoding="utf-8"?>
<!-- Generator: Adobe Illustrator 24.3.0, SVG Export Plug-In . SVG Version: 6.00 Build 0)  -->
<svg version="1.1" id="Layer_1" xmlns="http://www.w3.org/2000/svg" xmlns:xlink="http://www.w3.org/1999/xlink" x="0px" y="0px"
	 viewBox="0 0 25 25" style="enable-background:new 0 0 25 25;" xml:space="preserve">
<style type="text/css">
	.st0{fill:url(#SVGID_1_);}
	.st1{fill:#FFFFFF;}
	.st2{fill-rule:evenodd;clip-rule:evenodd;fill:#FFFFFF;}
</style>
<g>
	
		<linearGradient id="SVGID_1_" gradientUnits="userSpaceOnUse" x1="22.4873" y1="19.4124" x2="5.6731" y2="2.5931" gradientTransform="matrix(1 0 0 -1 -1.58 23.5071)">
		<stop  offset="0" style="stop-color:#0FB258"/>
		<stop  offset="1" style="stop-color:#00AC5D"/>
	</linearGradient>
	<circle class="st0" cx="12.5" cy="12.5" r="11.9"/>
	<path class="st1" d="M6.1,19.2l1-3.7c-1.8-3.3-0.6-7.4,2.7-9.3c1-0.6,2.2-0.9,3.3-0.9c3.8,0,6.8,3,6.9,6.8c0,3.8-3,6.8-6.8,6.9
		c-1.2,0-2.3-0.3-3.3-0.8L6.1,19.2z M10,16.8l0.2,0.1c2.6,1.6,6,0.7,7.6-1.9s0.7-6-1.9-7.6s-6-0.7-7.6,1.9c-1,1.8-1,4,0,5.7l0.1,0.2
		l-0.5,2.1L10,16.8z"/>
	<path class="st2" d="M15.6,13.2c-0.3-0.2-0.6-0.3-1-0.2c-0.3,0.1-0.4,0.5-0.6,0.7c-0.1,0.1-0.2,0.1-0.3,0.1c-0.9-0.4-1.7-1-2.2-1.9
		c-0.1-0.1-0.1-0.3,0-0.4c0.2-0.2,0.3-0.4,0.4-0.7c0-0.3,0-0.5-0.2-0.8c-0.1-0.3-0.3-0.6-0.6-0.9c-0.3-0.1-0.6-0.1-0.8,0.1
		c-0.4,0.3-0.6,0.8-0.6,1.4c0,0.1,0,0.3,0.1,0.4c0.1,0.3,0.2,0.7,0.4,1c0.1,0.2,0.3,0.5,0.4,0.7c0.5,0.7,1.1,1.3,1.9,1.7
		c0.4,0.2,0.8,0.4,1.2,0.6c0.4,0.2,0.9,0.3,1.4,0.2c0.5-0.1,1-0.4,1.2-0.9c0.1-0.1,0.1-0.3,0.1-0.5C16.3,13.5,15.8,13.3,15.6,13.2z"
		/>
</g>
</svg>
