<svg xmlns="http://www.w3.org/2000/svg" x="0px" y="0px" viewBox="0 0 490 490">
    <g fill="#E32A2D">
        <path d="M371.8,229.7V116.4h-27.9V61.2H145.2v55.7h-27.7v112.8H3.9v254.4h482.2V229.7H371.8z M117.2,455.6H32.3V258.8h84.9V455.6z M174.5,89.1h140.9v27H174.5V89.1z M258.1,455.9h-26.5v-27.1h26.5V455.9z M343.5,455.8h-56.3v-55.3H203v55h-56.8V145.7h197.3V455.8z M457.1,455.9h-84.6V258.9h84.6V455.9z"/>
        <path d="M174.4,174.1c47.3,0,94,0,141,0c0,9.1,0,17.8,0,27.1c-46.9,0-93.7,0-141,0C174.4,192.3,174.4,183.4,174.4,174.1z"/>
        <path d="M315.2,258.1c-47.1,0-93.7,0-140.8,0c0-9.2,0-18.1,0-27.7c46.6,0,93.4,0,140.8,0C315.2,239.2,315.2,248.3,315.2,258.1z"/>
        <path d="M315.2,314.6c-47.1,0-93.7,0-140.8,0c0-9.2,0-18.1,0-27.3c46.9,0,93.6,0,140.8,0C315.2,296.1,315.2,305,315.2,314.6z"/>
        <path d="M174.3,371c0-9.4,0-18.3,0-27.7c47.1,0,93.9,0,141.1,0c0,9.3,0,18.2,0,27.7C268.6,371,221.8,371,174.3,371z"/>
        <path d="M61.1,287.2c9.5,0,18.5,0,27.9,0c0,9.1,0,18,0,27.3c-9.2,0-18.4,0-27.9,0C61.1,305.4,61.1,296.8,61.1,287.2z"/>
        <path d="M61.1,371c0-9.5,0-18.4,0-27.7c9.3,0,18.2,0,27.7,0c0,9,0,18.1,0,27.7C79.9,371,70.8,371,61.1,371z"/>
        <path d="M60.9,427.6c0-9.3,0-17.8,0-26.9c9.1,0,18.3,0,27.9,0c0,8.6,0,17.5,0,26.9C79.8,427.6,70.7,427.6,60.9,427.6z"/>
        <path d="M400.5,287.3c9.7,0,18.7,0,28,0c0,9.2,0,18.1,0,27.3c-9.5,0-18.6,0-28,0C400.5,305.3,400.5,296.6,400.5,287.3z"/>
        <path d="M400.6,371.1c0-9.5,0-18.4,0-27.7c9.3,0,18.2,0,27.7,0c0,9,0,18.1,0,27.7C419.4,371.1,410.3,371.1,400.6,371.1z"/>
        <path d="M428.5,427.7c-9.2,0-18.4,0-27.9,0c0-9.1,0-17.8,0-27c9.1,0,18.2,0,27.9,0C428.5,409.5,428.5,418.4,428.5,427.7z"/>
    </g>
</svg>
