<?xml version="1.0" encoding="utf-8"?>
<!-- Generator: Adobe Illustrator 24.3.0, SVG Export Plug-In . SVG Version: 6.00 Build 0)  -->
<svg version="1.1" id="Layer_1" xmlns="http://www.w3.org/2000/svg" xmlns:xlink="http://www.w3.org/1999/xlink" x="0px" y="0px"
	 viewBox="0 0 490 490" style="enable-background:new 0 0 490 490;" xml:space="preserve">
<style type="text/css">
	.st0{fill:#E32A2D;}
</style>
<g>
	<g>
		<path class="st0" d="M412.1,284.4L412.1,284.4c0.2,0,0.3-0.1,0.5-0.1C412.5,284.3,412.3,284.3,412.1,284.4z M377.2,284
			c-0.4-0.1-0.8-0.2-1.1-0.4C376.4,283.8,376.8,283.9,377.2,284c0.4,0.1,0.8,0.2,1.1,0.3C377.9,284.2,377.6,284.1,377.2,284z
			 M412.1,284.4c-0.1,0-0.2,0-0.3,0.1C412,284.4,412,284.4,412.1,284.4c0.2,0,0.3-0.1,0.5-0.1C412.5,284.3,412.3,284.3,412.1,284.4z
			 M412.1,284.4L412.1,284.4c0.2,0,0.3-0.1,0.5-0.1C412.5,284.3,412.3,284.3,412.1,284.4z"/>
		<path class="st0" d="M445.1,261.8c8-10.7,12.5-23.7,12.5-37.4c0-34.3-28-62.3-62.3-62.3c-34.4,0-62.3,28-62.3,62.3
			c0,13,4,25.4,11.2,35.7c-1.5,0.6-2.9,1.3-4.3,2c-9.3-13.9-22.3-25.2-37.8-32.4c10.5-12.9,16.3-29,16.3-46
			c0-40.3-32.8-73.2-73.2-73.2s-73.2,32.8-73.2,73.2c0,16.2,5.3,31.6,14.8,44.2c-10.7,4.4-20.3,10.7-28.5,18.4
			c2.6-6.9,4-14.3,4-21.9c0-34.3-28-62.3-62.3-62.3s-62.3,28-62.3,62.3c0,13,4,25.4,11.2,35.7C21.1,272.5,2.2,300.5,2.2,332v79.1
			h486.1V332C488.3,302,471.1,274.9,445.1,261.8z M23.2,394.3V332c0-23.8,14.6-44.9,36.1-53.5l25.3,115.8H23.2z M98.8,286.7
			c-5.8,0-10.5,4.7-10.5,10.5v15.9L82,284c0.8,0.2,1.5,0.5,2.3,0.7c0.6,0.1,1.2,0.3,1.7,0.4c0.3,0.1,0.7,0.1,1,0.2
			c2,0.4,4.1,0.8,6.2,1c0.2,0,0.5,0.1,0.8,0.1c0.8,0.1,1.6,0.1,2.4,0.2c0.7,0,1.4,0.1,2,0.1c0.6,0,1.1,0,1.7,0c0.7,0,1.5,0,2.2,0
			c0.7,0,1.4-0.1,2.1-0.1c0.1,0,0.1,0,0.2,0c0.7-0.1,1.4-0.1,2.1-0.2c0.7-0.1,1.4-0.2,2.2-0.3c0.7-0.1,1.5-0.2,2.2-0.3
			c0.5-0.1,1.1-0.2,1.6-0.3c0,0,0,0,0.1,0c0.4-0.1,0.8-0.2,1.2-0.2c0.4-0.1,0.8-0.2,1.2-0.3c0.4-0.1,0.8-0.2,1.2-0.3
			c0.3-0.1,0.6-0.2,0.8-0.2c0.1,0,0.2-0.1,0.4-0.1c-0.1,0-0.2,0.1-0.4,0.1l-7.6,30.4v-17.6C109.3,291.5,104.6,286.7,98.8,286.7z
			 M129.1,394.3h-18l18-72.2V394.3z M126,256.5c-0.2,0.2-0.4,0.3-0.6,0.5c-0.2,0.2-0.5,0.4-0.7,0.5c-7.2,5.4-15.7,8.2-24.7,8.2
			c-9.4,0-18.2-3-25.5-8.8c-10-7.9-15.8-19.7-15.8-32.5c0-22.8,18.5-41.3,41.3-41.3s41.3,18.5,41.3,41.3
			C141.3,236.9,135.8,248.5,126,256.5z M245.2,131.5c28.8,0,52.2,23.4,52.2,52.2c0,15.8-7,30.5-19.3,40.5c-0.4,0.3-0.8,0.6-1.2,1
			c-0.1,0.1-0.3,0.2-0.5,0.4c-9,6.8-19.8,10.3-31.2,10.3c-11.8,0-23-3.9-32.3-11.2c-12.6-10-19.9-24.9-19.9-41
			C193.1,154.9,216.5,131.5,245.2,131.5z M150.1,391.5V314c0-8.2,1.4-16.2,4-23.7c2.4-6.9,5.8-13.3,10.1-19.1
			c8.3-11.2,19.8-20,33.3-24.9l31.8,145.3H150.1z M243.8,261.3c-5.8,0-10.5,4.7-10.5,10.5v39.5l-12.9-58.9c2.4,0.8,4.8,1.6,7.2,2.2
			c0.5,0.1,0.9,0.2,1.3,0.3c3.3,0.8,6.7,1.3,10.1,1.6c0.5,0,1,0.1,1.5,0.1c0.6,0,1.2,0.1,1.9,0.1c0.9,0,1.8,0,2.7,0
			c0.5,0,1.1,0,1.7,0c1.9,0,3.8-0.2,5.8-0.3c0.5,0,1-0.1,1.5-0.2c2-0.2,3.9-0.6,5.9-1c0.5-0.1,1-0.2,1.5-0.3
			c0.4-0.1,0.9-0.2,1.3-0.3c0.6-0.2,1.3-0.3,1.9-0.5c0.1,0,0.2-0.1,0.3-0.1c0.7-0.2,1.3-0.4,2-0.6c0.6-0.2,1.2-0.4,1.9-0.6l-14.5,58
			v-39.2C254.3,266,249.6,261.3,243.8,261.3z M334.7,391.5h-78.8L291.7,248c12.8,5.6,23.5,14.9,31,26.2c4.1,6.3,7.3,13.2,9.3,20.5
			c1.7,6.1,2.6,12.6,2.6,19.1V391.5z M395.2,183.1c22.8,0,41.3,18.5,41.3,41.3c0,12.5-5.6,24.2-15.3,32.1c-0.4,0.3-0.9,0.7-1.3,1
			c-7.2,5.4-15.7,8.2-24.7,8.2c-9.4,0-18.2-3-25.5-8.8c-10-7.9-15.8-19.7-15.8-32.5C353.9,201.6,372.4,183.1,395.2,183.1z
			 M355.7,394.3V314c0-11.6-2.1-22.8-6.1-33.1c1.6-0.8,3.3-1.6,5-2.3l25.3,115.8H355.7z M394,286.7c-5.8,0-10.5,4.7-10.5,10.5v15.9
			l-6.4-29.1c-0.4-0.1-0.8-0.2-1.1-0.4c0.4,0.1,0.8,0.2,1.1,0.4s0.8,0.2,1.1,0.3c0.4,0.1,0.8,0.2,1.1,0.3c0.5,0.1,1,0.3,1.6,0.4
			c0.4,0.1,0.8,0.2,1.3,0.3c2,0.4,4,0.8,6.1,1c0.2,0,0.5,0.1,0.8,0.1c0.8,0.1,1.6,0.1,2.3,0.2c0.7,0,1.4,0.1,2,0.1
			c0.6,0,1.1,0,1.7,0c0.7,0,1.5,0,2.2,0c0.7,0,1.4-0.1,2.1-0.1c0.1,0,0.2,0,0.2,0c0.7-0.1,1.4-0.1,2-0.2c0.7-0.1,1.4-0.2,2.2-0.3
			c0.7-0.1,1.5-0.2,2.2-0.3c0.5-0.1,1-0.2,1.5-0.3c0,0,0,0,0.1,0c0.4-0.1,0.8-0.2,1.2-0.3c0.8-0.2,1.6-0.4,2.4-0.6
			c0.2,0,0.4-0.1,0.5-0.1c0.1,0,0.2,0,0.3-0.1c0.2,0,0.3-0.1,0.5-0.1c-0.2,0.1-0.3,0.1-0.5,0.1l-7.6,30.4v-17.5
			C404.5,291.5,399.8,286.7,394,286.7z M467.3,394.3h-61l28.5-114.2c19.5,9.5,32.4,29.6,32.4,51.9V394.3z"/>
	</g>
	<g>
		<path class="st0" d="M377.2,284L377.2,284c-0.4-0.1-0.8-0.2-1.1-0.4C376.4,283.8,376.8,283.9,377.2,284z"/>
	</g>
	<g>
		<path class="st0" d="M412.6,284.2c-0.2,0.1-0.3,0.1-0.5,0.1v0C412.3,284.3,412.5,284.3,412.6,284.2z"/>
	</g>
</g>
<g>
	<g>
		<path class="st0" d="M116.9,284.4c-0.3,0.1-0.5,0.2-0.8,0.2C116.4,284.5,116.7,284.5,116.9,284.4c0.1,0,0.2-0.1,0.4-0.1
			C117.2,284.3,117,284.3,116.9,284.4z"/>
	</g>
	<g>
		<path class="st0" d="M117.3,284.3c-0.1,0-0.2,0.1-0.4,0.1v0C117,284.3,117.2,284.3,117.3,284.3z"/>
	</g>
</g>
</svg>
