<?xml version="1.0" encoding="utf-8"?>
<!-- Generator: Adobe Illustrator 24.3.0, SVG Export Plug-In . SVG Version: 6.00 Build 0)  -->
<svg version="1.1" id="Layer_1" xmlns="http://www.w3.org/2000/svg" xmlns:xlink="http://www.w3.org/1999/xlink" x="0px" y="0px"
	 viewBox="0 0 490 490" style="enable-background:new 0 0 490 490;" xml:space="preserve">
<style type="text/css">
	.st0{fill:#E32A2D;}
</style>
<g>
	<g>
		<path class="st0" d="M339.8,485.4H125.1v-77h10.5c16.7,0,30.4-13.6,30.4-30.4s-13.6-30.4-30.4-30.4h-10.5v-77h53.6
			c2-26.5,24.2-47.5,51.2-47.5c27,0,49.3,21,51.2,47.5h58.7V485.4z M146.1,464.4h172.7V291.7h-61l2-12.2c0.3-1.6,0.4-3.3,0.4-5
			c0-16.7-13.6-30.4-30.4-30.4c-16.7,0-30.4,13.6-30.4,30.4c0,1.7,0.1,3.3,0.4,5l2,12.2h-55.9v36.1c23.3,4.9,40.9,25.6,40.9,50.3
			c0,24.7-17.6,45.4-40.9,50.3V464.4z"/>
	</g>
	<g>
		<path class="st0" d="M369.7,221.1h-77v-10.5c0-16.7-13.6-30.4-30.4-30.4S232,193.9,232,210.6v10.5h-77v-53.6
			c-26.5-2-47.5-24.2-47.5-51.2c0-27,21-49.3,47.5-51.2V6.4h214.7V221.1z M312.7,200.1h36.1V27.4H176v61l-12.2-2
			c-1.6-0.3-3.3-0.4-5-0.4c-16.7,0-30.4,13.6-30.4,30.4c0,16.7,13.6,30.4,30.4,30.4c1.7,0,3.3-0.1,5-0.4l12.2-2v55.9h36.1
			c4.9-23.3,25.6-40.9,50.3-40.9C287.1,159.2,307.8,176.8,312.7,200.1z"/>
	</g>
</g>
</svg>
